<svg width="1920" height="418" viewBox="0 0 1920 418" fill="none" xmlns="http://www.w3.org/2000/svg">
<g opacity="0.2">
<path opacity="0.2" d="M333.458 235.636C332.165 228.043 336.227 220.211 333.82 212.769C331.961 207.022 326.428 202.221 324.634 196.463C321.974 187.929 328.062 179.167 335.834 172.598C341.178 168.081 347.885 163.983 355.884 163.155C360.822 162.643 365.895 163.44 370.458 164.942C375.093 166.493 379.25 168.74 382.67 171.544C386.09 174.348 388.699 177.647 390.334 181.237C391.368 183.57 391.997 186.011 393.289 188.272C395.518 192.17 399.616 195.315 402.16 199.105C403.858 201.675 404.817 204.48 404.976 207.343C405.136 210.205 404.492 213.061 403.085 215.727C400.138 221.216 393.967 225.807 393.041 231.681C392.377 235.914 394.505 240.557 391.748 244.281C389.662 247.096 385.368 248.526 381.298 249.58C371.838 252.053 358.624 256.036 349.133 252.244C340.821 248.937 334.66 242.652 333.458 235.636Z" fill="#38D39F"/>
<path opacity="0.2" d="M359.995 241.037C359.995 241.037 373.922 236.848 375.678 234.49C377.433 232.132 379.892 218.239 379.892 218.239" stroke="#333333" stroke-width="3" stroke-miterlimit="10"/>
<path opacity="0.2" d="M359.876 305.262V214.831" stroke="#333333" stroke-width="3" stroke-miterlimit="10"/>
</g>
<g opacity="0.3">
<path opacity="0.3" d="M1607.48 253.712C1608.64 244.543 1604.98 235.085 1607.15 226.098C1608.83 219.159 1613.81 213.362 1615.43 206.409C1617.83 196.103 1612.34 185.522 1605.33 177.59C1600.52 172.143 1594.47 167.186 1587.27 166.187C1582.82 165.569 1578.25 166.532 1574.13 168.345C1569.95 170.218 1566.21 172.932 1563.13 176.317C1560.04 179.703 1557.69 183.687 1556.22 188.022C1555.29 190.839 1554.72 193.787 1553.56 196.518C1551.55 201.224 1547.85 205.022 1545.56 209.599C1544.03 212.701 1543.17 216.089 1543.02 219.546C1542.88 223.002 1543.46 226.451 1544.72 229.67C1547.38 236.299 1552.94 241.842 1553.78 248.935C1554.38 254.047 1552.46 259.653 1554.94 264.15C1556.82 267.55 1560.69 269.277 1564.36 270.549C1572.89 273.536 1584.79 278.345 1593.35 273.767C1600.84 269.773 1606.39 262.184 1607.48 253.712Z" fill="#F0C146"/>
<path opacity="0.3" d="M1583.56 260.234C1583.56 260.234 1571.01 255.175 1569.42 252.328C1567.84 249.48 1565.63 232.704 1565.63 232.704" stroke="#F0C146" stroke-width="3" stroke-miterlimit="10"/>
<path opacity="0.3" d="M1583.67 337.788V228.589" stroke="#F0C146" stroke-width="3" stroke-miterlimit="10"/>
</g>
<g opacity="0.4">
<path opacity="0.4" d="M1348.94 205.111C1347.58 194.423 1351.85 183.422 1349.31 172.959C1347.35 164.876 1341.57 158.128 1339.67 150.031C1336.87 138.031 1343.26 125.706 1351.42 116.493C1357.03 110.142 1364.07 104.378 1372.46 103.225C1377.64 102.487 1382.97 103.626 1387.75 105.738C1392.62 107.919 1396.98 111.079 1400.57 115.022C1404.16 118.964 1406.9 123.604 1408.61 128.651C1409.72 131.931 1410.35 135.363 1411.71 138.543C1414.06 144.024 1418.35 148.446 1421.02 153.775C1422.8 157.388 1423.81 161.333 1423.98 165.358C1424.14 169.383 1423.47 173.398 1421.99 177.145C1418.9 184.863 1412.41 191.32 1411.45 199.579C1410.78 205.506 1412.99 212.029 1410.1 217.274C1407.91 221.232 1403.4 223.229 1399.13 224.726C1389.2 228.205 1375.34 233.803 1365.38 228.47C1356.67 223.808 1350.2 214.981 1348.94 205.111Z" fill="#F0C146"/>
<path opacity="0.2" d="M1348.94 205.111C1347.58 194.423 1351.85 183.422 1349.31 172.959C1347.35 164.876 1341.57 158.128 1339.67 150.031C1336.87 138.031 1343.26 125.706 1351.42 116.493C1357.03 110.142 1364.07 104.378 1372.46 103.225C1377.64 102.487 1382.97 103.626 1387.75 105.738C1392.62 107.919 1396.98 111.079 1400.57 115.022C1404.16 118.964 1406.9 123.604 1408.61 128.651C1409.72 131.931 1410.35 135.363 1411.71 138.543C1414.06 144.024 1418.35 148.446 1421.02 153.775C1422.8 157.388 1423.81 161.333 1423.98 165.358C1424.14 169.383 1423.47 173.398 1421.99 177.145C1418.9 184.863 1412.41 191.32 1411.45 199.579C1410.78 205.506 1412.99 212.029 1410.1 217.274C1407.91 221.232 1403.4 223.229 1399.13 224.726C1389.2 228.205 1375.34 233.803 1365.38 228.47C1356.67 223.808 1350.2 214.981 1348.94 205.111Z" fill="#F0C146"/>
<path opacity="0.4" d="M1376.79 212.711C1376.79 212.711 1391.4 206.814 1393.25 203.497C1395.09 200.18 1397.67 180.647 1397.67 180.647" stroke="#F0C146" stroke-width="3" stroke-miterlimit="10"/>
<path opacity="0.4" d="M1376.66 303.014V175.863" stroke="#F0C146" stroke-width="3" stroke-miterlimit="10"/>
</g>
<path d="M692.885 56.458H586.561V33.4627C586.562 32.7399 586.42 32.0242 586.144 31.3564C585.868 30.6885 585.463 30.0817 584.952 29.5707C584.441 29.0597 583.834 28.6544 583.166 28.3782C582.498 28.1019 581.783 27.9601 581.06 27.9608H549.842V3.46257C549.842 2.54424 549.477 1.66352 548.828 1.01417C548.179 0.364808 547.298 0 546.38 0H506.146C505.228 0.00140459 504.348 0.36666 503.699 1.01571C503.05 1.66477 502.685 2.54467 502.683 3.46257V27.9608H465.996C465.272 27.9587 464.555 28.0995 463.886 28.375C463.217 28.6506 462.608 29.0555 462.096 29.5666C461.583 30.0777 461.177 30.6849 460.899 31.3535C460.622 32.0221 460.479 32.7388 460.479 33.4627V56.442H359.115C358.819 56.4434 358.535 56.5621 358.326 56.7721C358.117 56.9821 358 57.2663 358 57.5626V362.879C358 363.176 358.117 363.46 358.326 363.67C358.535 363.88 358.819 363.999 359.115 364H426.495C426.791 363.999 427.075 363.88 427.285 363.67C427.495 363.46 427.614 363.176 427.615 362.879V321.785C427.616 321.489 427.735 321.204 427.945 320.995C428.155 320.785 428.439 320.666 428.735 320.665H457.197C457.494 320.666 457.777 320.785 457.986 320.995C458.195 321.205 458.313 321.489 458.313 321.785V362.858C458.313 363.154 458.429 363.437 458.637 363.647C458.845 363.857 459.127 363.976 459.422 363.979H592.578C592.873 363.976 593.156 363.857 593.365 363.647C593.574 363.438 593.691 363.154 593.693 362.858V321.785C593.693 321.49 593.809 321.207 594.017 320.997C594.225 320.787 594.507 320.668 594.803 320.665H623.265C623.562 320.665 623.847 320.783 624.057 320.993C624.267 321.203 624.385 321.488 624.385 321.785V362.858C624.386 363.155 624.505 363.439 624.715 363.649C624.924 363.859 625.209 363.977 625.505 363.979H692.885C693.181 363.976 693.464 363.857 693.672 363.647C693.881 363.438 693.999 363.154 694 362.858V57.5785C694 57.2822 693.883 56.998 693.674 56.788C693.465 56.578 693.181 56.4594 692.885 56.458ZM415.551 306.422C415.549 306.715 415.432 306.997 415.224 307.205C415.016 307.413 414.735 307.53 414.441 307.531H372.82C372.674 307.532 372.529 307.504 372.394 307.448C372.259 307.393 372.136 307.311 372.032 307.208C371.929 307.105 371.846 306.983 371.79 306.848C371.734 306.712 371.705 306.568 371.705 306.422V292.205C371.705 292.058 371.733 291.912 371.789 291.776C371.844 291.64 371.926 291.517 372.03 291.413C372.134 291.309 372.257 291.226 372.392 291.17C372.528 291.113 372.674 291.084 372.82 291.084H414.441C414.736 291.087 415.018 291.206 415.226 291.416C415.434 291.626 415.551 291.909 415.551 292.205V306.422ZM415.551 269.687C415.551 269.982 415.434 270.265 415.226 270.474C415.018 270.683 414.736 270.801 414.441 270.803H372.82C372.674 270.803 372.528 270.774 372.392 270.717C372.257 270.661 372.134 270.578 372.03 270.474C371.926 270.37 371.844 270.246 371.789 270.111C371.733 269.975 371.705 269.829 371.705 269.682V255.481C371.705 255.334 371.733 255.189 371.789 255.053C371.844 254.917 371.926 254.793 372.03 254.689C372.134 254.585 372.257 254.503 372.392 254.446C372.528 254.39 372.674 254.361 372.82 254.361H414.441C414.587 254.361 414.732 254.391 414.867 254.448C415.002 254.504 415.125 254.587 415.228 254.691C415.331 254.795 415.412 254.919 415.468 255.054C415.523 255.19 415.551 255.335 415.551 255.481V269.687ZM415.551 232.964C415.551 233.259 415.434 233.542 415.226 233.751C415.018 233.96 414.736 234.078 414.441 234.079H372.82C372.525 234.079 372.241 233.962 372.032 233.753C371.823 233.543 371.705 233.26 371.705 232.964V218.758C371.705 218.611 371.733 218.465 371.789 218.33C371.844 218.194 371.926 218.07 372.03 217.966C372.134 217.862 372.257 217.779 372.392 217.723C372.528 217.666 372.674 217.637 372.82 217.637H414.441C414.736 217.64 415.018 217.759 415.226 217.969C415.434 218.179 415.551 218.463 415.551 218.758V232.964ZM415.551 196.23C415.551 196.376 415.523 196.521 415.468 196.656C415.412 196.792 415.33 196.915 415.227 197.018C415.124 197.122 415.002 197.204 414.867 197.26C414.732 197.316 414.587 197.345 414.441 197.345H372.82C372.674 197.346 372.528 197.318 372.393 197.262C372.257 197.206 372.134 197.124 372.03 197.02C371.927 196.916 371.845 196.793 371.789 196.658C371.733 196.522 371.705 196.377 371.705 196.23V182.019C371.705 181.872 371.733 181.727 371.789 181.591C371.845 181.455 371.927 181.332 372.03 181.228C372.134 181.125 372.257 181.043 372.393 180.987C372.528 180.931 372.674 180.903 372.82 180.903H414.441C414.587 180.903 414.732 180.932 414.867 180.988C415.002 181.044 415.124 181.127 415.227 181.23C415.33 181.334 415.412 181.457 415.468 181.592C415.523 181.728 415.551 181.872 415.551 182.019V196.23ZM415.551 159.501C415.551 159.797 415.434 160.08 415.226 160.29C415.018 160.5 414.736 160.619 414.441 160.622H372.82C372.674 160.622 372.528 160.593 372.392 160.536C372.257 160.48 372.134 160.397 372.03 160.293C371.926 160.189 371.844 160.066 371.789 159.93C371.733 159.794 371.705 159.648 371.705 159.501V145.285C371.705 145.138 371.734 144.994 371.79 144.859C371.846 144.724 371.929 144.601 372.032 144.498C372.136 144.395 372.259 144.313 372.394 144.258C372.529 144.202 372.674 144.174 372.82 144.175H414.441C414.735 144.176 415.016 144.293 415.224 144.501C415.432 144.709 415.549 144.991 415.551 145.285V159.501ZM415.551 122.778C415.549 123.072 415.432 123.353 415.224 123.561C415.016 123.769 414.735 123.886 414.441 123.888H372.82C372.674 123.888 372.529 123.86 372.394 123.805C372.259 123.749 372.136 123.668 372.032 123.565C371.929 123.461 371.846 123.339 371.79 123.204C371.734 123.069 371.705 122.924 371.705 122.778V108.561C371.705 108.265 371.823 107.981 372.032 107.771C372.241 107.561 372.524 107.442 372.82 107.441H414.441C414.736 107.443 415.018 107.563 415.226 107.773C415.434 107.982 415.551 108.266 415.551 108.561V122.778ZM415.551 86.0438C415.551 86.1903 415.523 86.3354 415.468 86.471C415.412 86.6066 415.331 86.7299 415.228 86.834C415.125 86.938 415.002 87.0208 414.867 87.0774C414.732 87.1341 414.587 87.1637 414.441 87.1644H372.82C372.674 87.1644 372.528 87.1353 372.392 87.079C372.257 87.0226 372.134 86.94 372.03 86.8358C371.926 86.7317 371.844 86.6081 371.789 86.4722C371.733 86.3363 371.705 86.1907 371.705 86.0438V71.8377C371.705 71.6908 371.733 71.5452 371.789 71.4093C371.844 71.2734 371.926 71.1498 372.03 71.0457C372.134 70.9416 372.257 70.8589 372.392 70.8026C372.528 70.7462 372.674 70.7171 372.82 70.7171H414.441C414.587 70.7178 414.732 70.7474 414.867 70.8041C415.002 70.8608 415.125 70.9435 415.228 71.0476C415.331 71.1516 415.412 71.2749 415.468 71.4105C415.523 71.5461 415.551 71.6913 415.551 71.8377V86.0438ZM514.212 306.437C514.212 306.584 514.183 306.728 514.127 306.863C514.071 306.998 513.988 307.121 513.885 307.224C513.781 307.327 513.658 307.409 513.523 307.464C513.388 307.52 513.243 307.548 513.097 307.547H471.481C471.186 307.547 470.903 307.431 470.693 307.223C470.483 307.015 470.364 306.733 470.361 306.437V292.205C470.362 291.908 470.481 291.624 470.691 291.414C470.901 291.204 471.185 291.086 471.481 291.084H513.097C513.243 291.084 513.389 291.113 513.524 291.17C513.66 291.226 513.783 291.309 513.887 291.413C513.991 291.517 514.073 291.64 514.128 291.776C514.184 291.912 514.212 292.058 514.212 292.205V306.437ZM514.212 269.703C514.212 269.85 514.184 269.996 514.128 270.132C514.073 270.268 513.991 270.391 513.887 270.495C513.783 270.6 513.66 270.682 513.524 270.739C513.389 270.795 513.243 270.824 513.097 270.824H471.481C471.184 270.824 470.899 270.706 470.689 270.496C470.479 270.286 470.361 270.001 470.361 269.703V255.481C470.361 255.184 470.479 254.899 470.689 254.689C470.899 254.479 471.184 254.361 471.481 254.361H513.097C513.243 254.361 513.389 254.39 513.524 254.446C513.66 254.503 513.783 254.585 513.887 254.689C513.991 254.793 514.073 254.917 514.128 255.053C514.184 255.189 514.212 255.334 514.212 255.481V269.703ZM514.212 232.98C514.212 233.276 514.094 233.559 513.885 233.769C513.676 233.978 513.392 234.095 513.097 234.095H471.481C471.185 234.095 470.901 233.978 470.691 233.769C470.481 233.56 470.362 233.276 470.361 232.98V218.758C470.362 218.461 470.481 218.177 470.691 217.967C470.901 217.757 471.185 217.639 471.481 217.637H513.097C513.243 217.637 513.389 217.666 513.524 217.723C513.66 217.779 513.783 217.862 513.887 217.966C513.991 218.07 514.073 218.194 514.128 218.33C514.184 218.465 514.212 218.611 514.212 218.758V232.98ZM514.212 196.246C514.212 196.393 514.184 196.538 514.128 196.674C514.072 196.809 513.99 196.932 513.887 197.036C513.783 197.14 513.66 197.222 513.524 197.278C513.388 197.334 513.243 197.362 513.097 197.361H471.481C471.335 197.362 471.189 197.334 471.053 197.278C470.917 197.222 470.794 197.14 470.69 197.036C470.585 196.933 470.503 196.81 470.446 196.674C470.39 196.538 470.361 196.393 470.361 196.246V182.019C470.361 181.872 470.39 181.726 470.446 181.591C470.503 181.455 470.585 181.332 470.69 181.228C470.794 181.124 470.917 181.042 471.053 180.987C471.189 180.931 471.335 180.903 471.481 180.903H513.097C513.243 180.903 513.388 180.931 513.524 180.987C513.66 181.043 513.783 181.125 513.887 181.228C513.99 181.332 514.072 181.455 514.128 181.591C514.184 181.727 514.212 181.872 514.212 182.019V196.246ZM514.212 159.517C514.212 159.664 514.184 159.81 514.128 159.946C514.073 160.082 513.991 160.205 513.887 160.309C513.783 160.413 513.66 160.496 513.524 160.552C513.389 160.609 513.243 160.638 513.097 160.638H471.481C471.185 160.636 470.901 160.518 470.691 160.308C470.481 160.098 470.362 159.814 470.361 159.517V145.285C470.364 144.989 470.483 144.707 470.693 144.499C470.903 144.291 471.186 144.175 471.481 144.175H513.097C513.243 144.174 513.388 144.202 513.523 144.258C513.658 144.313 513.781 144.395 513.885 144.498C513.988 144.601 514.071 144.724 514.127 144.859C514.183 144.994 514.212 145.138 514.212 145.285V159.517ZM514.212 122.794C514.212 122.94 514.183 123.085 514.127 123.22C514.071 123.355 513.988 123.477 513.885 123.581C513.781 123.684 513.658 123.765 513.523 123.821C513.388 123.876 513.243 123.904 513.097 123.904H471.481C471.186 123.904 470.903 123.787 470.693 123.579C470.483 123.371 470.364 123.089 470.361 122.794V108.561C470.362 108.264 470.481 107.98 470.691 107.77C470.901 107.56 471.185 107.442 471.481 107.441H513.097C513.393 107.442 513.676 107.561 513.885 107.771C514.094 107.981 514.212 108.265 514.212 108.561V122.794ZM514.212 86.0597C514.212 86.2066 514.184 86.3522 514.128 86.4882C514.073 86.6241 513.991 86.7477 513.887 86.8518C513.783 86.9559 513.66 87.0385 513.524 87.0949C513.389 87.1513 513.243 87.1803 513.097 87.1803H471.481C471.184 87.1803 470.899 87.0622 470.689 86.8521C470.479 86.642 470.361 86.3569 470.361 86.0597V71.8377C470.361 71.5405 470.479 71.2555 470.689 71.0454C470.899 70.8352 471.184 70.7171 471.481 70.7171H513.097C513.243 70.7171 513.389 70.7462 513.524 70.8026C513.66 70.8589 513.783 70.9416 513.887 71.0457C513.991 71.1498 514.073 71.2734 514.128 71.4093C514.184 71.5452 514.212 71.6908 514.212 71.8377V86.0597ZM581.65 306.453C581.649 306.6 581.619 306.745 581.563 306.88C581.506 307.015 581.423 307.137 581.319 307.24C581.215 307.344 581.092 307.425 580.956 307.48C580.821 307.536 580.676 307.564 580.529 307.563H538.898C538.603 307.563 538.32 307.447 538.112 307.239C537.903 307.031 537.784 306.748 537.783 306.453V292.205C537.783 291.909 537.9 291.624 538.109 291.414C538.318 291.204 538.602 291.086 538.898 291.084H580.513C580.81 291.084 581.095 291.202 581.305 291.412C581.516 291.623 581.634 291.908 581.634 292.205L581.65 306.453ZM581.65 269.719C581.65 269.867 581.622 270.013 581.566 270.149C581.51 270.285 581.427 270.409 581.323 270.513C581.219 270.617 581.095 270.7 580.959 270.756C580.822 270.812 580.676 270.841 580.529 270.84H538.898C538.602 270.839 538.318 270.72 538.109 270.51C537.9 270.3 537.783 270.016 537.783 269.719V255.481C537.783 255.185 537.9 254.901 538.109 254.691C538.318 254.481 538.602 254.362 538.898 254.361H580.513C580.66 254.36 580.807 254.389 580.943 254.445C581.079 254.501 581.203 254.583 581.307 254.687C581.411 254.792 581.494 254.915 581.55 255.052C581.606 255.188 581.634 255.334 581.634 255.481L581.65 269.719ZM581.65 232.996C581.648 233.292 581.529 233.576 581.319 233.785C581.11 233.994 580.825 234.111 580.529 234.111H538.898C538.603 234.11 538.32 233.992 538.111 233.783C537.902 233.574 537.784 233.291 537.783 232.996V218.758C537.783 218.462 537.9 218.177 538.109 217.967C538.318 217.757 538.602 217.639 538.898 217.637H580.513C580.81 217.637 581.095 217.755 581.305 217.966C581.516 218.176 581.634 218.461 581.634 218.758L581.65 232.996ZM581.65 196.262C581.65 196.409 581.62 196.554 581.564 196.69C581.508 196.826 581.425 196.949 581.321 197.052C581.217 197.156 581.093 197.238 580.957 197.294C580.822 197.349 580.676 197.378 580.529 197.377H538.898C538.752 197.377 538.607 197.348 538.471 197.292C538.336 197.236 538.213 197.154 538.11 197.05C538.006 196.947 537.924 196.824 537.868 196.689C537.812 196.553 537.783 196.408 537.783 196.262V182.019C537.783 181.872 537.812 181.727 537.868 181.592C537.924 181.456 538.006 181.334 538.11 181.23C538.213 181.126 538.336 181.044 538.471 180.988C538.607 180.932 538.752 180.903 538.898 180.903H580.513C580.66 180.903 580.806 180.931 580.942 180.987C581.077 181.042 581.201 181.124 581.305 181.228C581.409 181.332 581.492 181.455 581.548 181.591C581.605 181.726 581.634 181.872 581.634 182.019L581.65 196.262ZM581.65 159.533C581.65 159.83 581.531 160.115 581.321 160.325C581.111 160.536 580.826 160.654 580.529 160.654H538.898C538.602 160.652 538.318 160.534 538.109 160.324C537.9 160.114 537.783 159.829 537.783 159.533V145.285C537.784 144.99 537.903 144.707 538.112 144.499C538.32 144.291 538.603 144.175 538.898 144.175H580.513C580.66 144.174 580.805 144.202 580.94 144.257C581.076 144.313 581.199 144.394 581.303 144.498C581.407 144.601 581.49 144.723 581.547 144.858C581.603 144.993 581.633 145.138 581.634 145.285L581.65 159.533ZM581.65 122.81C581.649 122.956 581.619 123.101 581.563 123.236C581.506 123.371 581.423 123.494 581.319 123.597C581.215 123.7 581.092 123.781 580.956 123.837C580.821 123.892 580.676 123.92 580.529 123.92H538.898C538.603 123.92 538.32 123.803 538.112 123.595C537.903 123.387 537.784 123.105 537.783 122.81V108.561C537.784 108.265 537.902 107.982 538.111 107.772C538.32 107.562 538.602 107.443 538.898 107.441H580.513C580.81 107.442 581.094 107.56 581.304 107.77C581.514 107.98 581.632 108.264 581.634 108.561L581.65 122.81ZM581.65 86.0757C581.65 86.223 581.622 86.369 581.566 86.5053C581.51 86.6416 581.427 86.7654 581.323 86.8696C581.219 86.9738 581.095 87.0563 580.959 87.1124C580.822 87.1684 580.676 87.1969 580.529 87.1962H538.898C538.602 87.1948 538.318 87.0761 538.109 86.8661C537.9 86.6562 537.783 86.3719 537.783 86.0757V71.8377C537.783 71.5414 537.9 71.2572 538.109 71.0472C538.318 70.8372 538.602 70.7186 538.898 70.7171H580.513C580.66 70.7164 580.807 70.745 580.943 70.801C581.079 70.8571 581.203 70.9396 581.307 71.0438C581.411 71.148 581.494 71.2718 581.55 71.4081C581.606 71.5443 581.634 71.6904 581.634 71.8377L581.65 86.0757ZM680.316 306.422C680.313 306.717 680.194 306.999 679.984 307.207C679.774 307.415 679.491 307.531 679.196 307.531H637.565C637.418 307.532 637.273 307.504 637.137 307.449C637.002 307.393 636.879 307.312 636.774 307.209C636.67 307.105 636.588 306.983 636.531 306.848C636.474 306.713 636.445 306.568 636.444 306.422V292.205C636.444 291.908 636.562 291.623 636.772 291.412C636.982 291.202 637.267 291.084 637.565 291.084H679.18C679.328 291.083 679.475 291.111 679.612 291.166C679.75 291.222 679.875 291.304 679.981 291.408C680.086 291.512 680.17 291.636 680.228 291.773C680.285 291.91 680.315 292.056 680.316 292.205V306.422ZM680.316 269.687C680.316 269.985 680.198 270.27 679.988 270.48C679.778 270.69 679.493 270.808 679.196 270.808H637.565C637.417 270.809 637.271 270.78 637.135 270.724C636.999 270.668 636.875 270.586 636.771 270.481C636.667 270.377 636.584 270.253 636.528 270.117C636.472 269.981 636.443 269.835 636.444 269.687V255.481C636.443 255.334 636.472 255.188 636.528 255.052C636.584 254.915 636.667 254.792 636.771 254.687C636.875 254.583 636.999 254.501 637.135 254.445C637.271 254.389 637.417 254.36 637.565 254.361H679.18C679.477 254.361 679.762 254.479 679.972 254.689C680.182 254.899 680.3 255.184 680.3 255.481L680.316 269.687ZM680.316 232.964C680.315 233.26 680.196 233.544 679.986 233.753C679.776 233.962 679.492 234.079 679.196 234.079H637.565C637.268 234.079 636.984 233.962 636.774 233.753C636.564 233.544 636.446 233.26 636.444 232.964V218.758C636.444 218.461 636.562 218.176 636.772 217.966C636.982 217.755 637.267 217.637 637.565 217.637H679.18C679.328 217.636 679.475 217.664 679.612 217.72C679.75 217.775 679.875 217.857 679.981 217.962C680.086 218.066 680.17 218.19 680.228 218.326C680.285 218.463 680.315 218.61 680.316 218.758V232.964ZM680.316 196.23C680.316 196.377 680.287 196.522 680.231 196.658C680.174 196.794 680.092 196.917 679.987 197.02C679.883 197.124 679.76 197.206 679.624 197.262C679.488 197.318 679.342 197.346 679.196 197.345H637.565C637.418 197.346 637.272 197.318 637.136 197.262C637 197.206 636.877 197.124 636.773 197.02C636.668 196.917 636.586 196.794 636.53 196.658C636.473 196.522 636.444 196.377 636.444 196.23V182.019C636.444 181.872 636.473 181.726 636.53 181.591C636.586 181.455 636.668 181.332 636.773 181.228C636.877 181.124 637 181.042 637.136 180.987C637.272 180.931 637.418 180.903 637.565 180.903H679.18C679.326 180.903 679.472 180.931 679.608 180.987C679.744 181.042 679.867 181.124 679.971 181.228C680.076 181.332 680.158 181.455 680.215 181.591C680.271 181.726 680.3 181.872 680.3 182.019L680.316 196.23ZM680.316 159.501C680.315 159.798 680.196 160.082 679.986 160.292C679.776 160.502 679.492 160.62 679.196 160.622H637.565C637.267 160.622 636.982 160.504 636.772 160.294C636.562 160.083 636.444 159.798 636.444 159.501V145.285C636.445 145.138 636.474 144.993 636.531 144.858C636.588 144.723 636.67 144.601 636.774 144.498C636.879 144.394 637.002 144.313 637.137 144.257C637.273 144.202 637.418 144.174 637.565 144.175H679.18C679.475 144.175 679.758 144.291 679.968 144.499C680.178 144.707 680.297 144.989 680.3 145.285L680.316 159.501ZM680.316 122.778C680.313 123.073 680.194 123.355 679.984 123.563C679.774 123.771 679.491 123.888 679.196 123.888H637.565C637.418 123.888 637.273 123.86 637.137 123.805C637.002 123.75 636.879 123.668 636.774 123.565C636.67 123.462 636.588 123.339 636.531 123.204C636.474 123.069 636.445 122.924 636.444 122.778V108.561C636.446 108.264 636.564 107.98 636.774 107.77C636.984 107.56 637.268 107.442 637.565 107.441H679.18C679.328 107.439 679.475 107.467 679.612 107.523C679.75 107.578 679.875 107.661 679.981 107.765C680.086 107.869 680.17 107.993 680.228 108.129C680.285 108.266 680.315 108.413 680.316 108.561V122.778ZM680.316 86.0438C680.316 86.341 680.198 86.626 679.988 86.8362C679.778 87.0463 679.493 87.1644 679.196 87.1644H637.565C637.417 87.1651 637.271 87.1366 637.135 87.0805C636.999 87.0244 636.875 86.9419 636.771 86.8377C636.667 86.7335 636.584 86.6097 636.528 86.4735C636.472 86.3372 636.443 86.1912 636.444 86.0438V71.8377C636.443 71.6904 636.472 71.5443 636.528 71.4081C636.584 71.2718 636.667 71.148 636.771 71.0438C636.875 70.9396 636.999 70.8571 637.135 70.801C637.271 70.745 637.417 70.7164 637.565 70.7171H679.18C679.477 70.7171 679.762 70.8352 679.972 71.0454C680.182 71.2555 680.3 71.5405 680.3 71.8377L680.316 86.0438Z" fill="#F2F2F2"/>
<path d="M297.833 157V177.41H271V400H327V185.883V177.41V157H297.833Z" fill="#575A89"/>
<path d="M150.869 294.209V259H117.51V294.209H105V401H163V294.209H150.869Z" fill="#575A89"/>
<path d="M157 352H111V401H157V352Z" fill="#3F3D56"/>
<path opacity="0.1" d="M119 352H111V401H119V352Z" fill="black"/>
<path d="M251.258 50V61.9411H183.129V50H163V305H271V50H251.258Z" fill="#3F3D56"/>
<path opacity="0.1" d="M179 146H163V401H179V146Z" fill="black"/>
<path d="M87.2186 218.639V209H77.1683V218.639H59V401H105V218.639H87.2186Z" fill="#3F3D56"/>
<path opacity="0.1" d="M82 209H76V218H82V209Z" fill="black"/>
<path opacity="0.1" d="M64 218H59V401H64V218Z" fill="black"/>
<path opacity="0.1" d="M267 244H251V401H267V244Z" fill="black"/>
<path opacity="0.1" d="M105 218H90V252H105V218Z" fill="black"/>
<path d="M247 274H226V283H247V274Z" fill="#FF6584"/>
<path d="M202 340H180V349H202V340Z" fill="#FF6584"/>
<path d="M92 261H71V270H92V261Z" fill="#FF6584"/>
<path d="M145 357H123V366H145V357Z" fill="#FF6584"/>
<path opacity="0.1" d="M153 302H116V318H153V302Z" fill="black"/>
<path opacity="0.1" d="M315 195H278V211H315V195Z" fill="black"/>
<path opacity="0.1" d="M315 228H278V243H315V228Z" fill="black"/>
<path opacity="0.1" d="M315 261H278V276H315V261Z" fill="black"/>
<path opacity="0.1" d="M315 294H278V309H315V294Z" fill="black"/>
<path opacity="0.1" d="M315 326H278V342H315V326Z" fill="black"/>
<path opacity="0.1" d="M315 359H278V375H315V359Z" fill="black"/>
<path d="M339.723 264.996V223H312.664V264.996H303V401H349V264.996H339.723Z" fill="#3F3D56"/>
<path opacity="0.1" d="M321 223H313V265H321V223Z" fill="black"/>
<path opacity="0.1" d="M311 265H303V401H311V265Z" fill="black"/>
<path opacity="0.1" d="M349 333H326V347H349V333Z" fill="black"/>
<path d="M348 313H327V322H348V313Z" fill="#FF6584"/>
<path d="M92 178.802C92 213.044 71.4051 225 46 225C20.5949 225 0 213.044 0 178.802C0 144.561 46 101 46 101C46 101 92 144.561 92 178.802Z" fill="#F0C146"/>
<path d="M1537.7 234.352L1538.17 205.552L1558 169.923L1538.25 201.034L1538.46 188.085L1552.13 162.308L1538.52 184.658V184.659L1538.9 161.368L1553.54 140.846L1538.96 157.706L1539.2 115L1537.69 171.535L1537.82 169.203L1522.94 146.835L1537.58 173.679L1536.19 199.69L1536.15 199L1519 175.462L1536.1 201.439L1535.93 204.692L1535.89 204.741L1535.91 205.008L1532.39 271H1537.09L1537.65 236.914L1554.71 211L1537.7 234.352Z" fill="#3F3D56"/>
<path d="M972.503 145.607V108H951.615V83.5714H937.476V108H916.588V145.607H905.019V61.0714H881.56V53.0357H850.389V45H819.539V53.0357H790.296V61.0714H764.909V145.286H751.412V107.679H730.524V83.25H716.385V107.679H695.497V145.286H682V278.679H712.85V231.429H734.059V278.679H816.968V223.714H852.96V278.679H903.091V279H933.941V231.75H955.15V279H986V145.607H972.503ZM693.087 161.679H705.298V171.321H693.087V161.679ZM693.247 188.679H705.459V198.321H693.247V188.679ZM705.619 225.321H693.408V215.679H705.619V225.321ZM737.594 138.214H709.315V132.429H737.594V138.214ZM737.594 129.857H709.315V124.071H737.594V129.857ZM737.594 121.5H709.315V115.714H737.594V121.5ZM741.611 161.679H753.822V171.321H741.611V161.679ZM741.772 188.679H753.983V198.321H741.772V188.679ZM754.144 225.321H741.932V215.679H754.144V225.321ZM804.114 209.25H781.619V199.286H804.114V209.25ZM804.114 180.643H781.619V170.679H804.114V180.643ZM804.114 152.036H781.619V142.071H804.114V152.036ZM804.114 123.429H781.619V113.464H804.114V123.429ZM804.114 94.8214H781.619V84.8571H804.114V94.8214ZM846.211 209.25H823.717V199.286H846.211V209.25ZM846.211 180.643H823.717V170.679H846.211V180.643ZM846.211 152.036H823.717V142.071H846.211V152.036ZM846.211 123.429H823.717V113.464H846.211V123.429ZM846.211 94.8214H823.717V84.8571H846.211V94.8214ZM888.309 209.25H865.814V199.286H888.309V209.25ZM888.309 180.643H865.814V170.679H888.309V180.643ZM888.309 152.036H865.814V142.071H888.309V152.036ZM888.309 123.429H865.814V113.464H888.309V123.429ZM888.309 94.8214H865.814V84.8571H888.309V94.8214ZM914.178 162H926.389V171.643H914.178V162ZM914.338 189H926.55V198.643H914.338V189ZM926.71 225.643H914.499V216H926.71V225.643ZM958.685 138.536H930.406V132.75H958.685V138.536ZM958.685 130.179H930.406V124.393H958.685V130.179ZM958.685 121.821H930.406V116.036H958.685V121.821ZM962.702 162H974.913V171.643H962.702V162ZM962.863 189H975.074V198.643H962.863V189ZM975.235 225.643H963.023V216H975.235V225.643Z" fill="#F2F2F2"/>
<path d="M1948.5 267.607V230H1927.62V205.571H1913.48V230H1892.59V267.607H1881.02V183.071H1857.56V175.036H1826.39V167H1795.54V175.036H1766.3V183.071H1740.91V267.286H1727.41V229.679H1706.52V205.25H1692.38V229.679H1671.5V267.286H1658V400.679H1688.85V353.429H1710.06V400.679H1792.97V345.714H1828.96V400.679H1879.09V401H1909.94V353.75H1931.15V401H1962V267.607H1948.5ZM1669.09 283.679H1681.3V293.321H1669.09V283.679ZM1669.25 310.679H1681.46V320.321H1669.25V310.679ZM1681.62 347.321H1669.41V337.679H1681.62V347.321ZM1713.59 260.214H1685.32V254.429H1713.59V260.214ZM1713.59 251.857H1685.32V246.071H1713.59V251.857ZM1713.59 243.5H1685.32V237.714H1713.59V243.5ZM1717.61 283.679H1729.82V293.321H1717.61V283.679ZM1717.77 310.679H1729.98V320.321H1717.77V310.679ZM1730.14 347.321H1717.93V337.679H1730.14V347.321ZM1780.11 331.25H1757.62V321.286H1780.11V331.25ZM1780.11 302.643H1757.62V292.679H1780.11V302.643ZM1780.11 274.036H1757.62V264.071H1780.11V274.036ZM1780.11 245.429H1757.62V235.464H1780.11V245.429ZM1780.11 216.821H1757.62V206.857H1780.11V216.821ZM1822.21 331.25H1799.72V321.286H1822.21V331.25ZM1822.21 302.643H1799.72V292.679H1822.21V302.643ZM1822.21 274.036H1799.72V264.071H1822.21V274.036ZM1822.21 245.429H1799.72V235.464H1822.21V245.429ZM1822.21 216.821H1799.72V206.857H1822.21V216.821ZM1864.31 331.25H1841.81V321.286H1864.31V331.25ZM1864.31 302.643H1841.81V292.679H1864.31V302.643ZM1864.31 274.036H1841.81V264.071H1864.31V274.036ZM1864.31 245.429H1841.81V235.464H1864.31V245.429ZM1864.31 216.821H1841.81V206.857H1864.31V216.821ZM1890.18 284H1902.39V293.643H1890.18V284ZM1890.34 311H1902.55V320.643H1890.34V311ZM1902.71 347.643H1890.5V338H1902.71V347.643ZM1934.68 260.536H1906.41V254.75H1934.68V260.536ZM1934.68 252.179H1906.41V246.393H1934.68V252.179ZM1934.68 243.821H1906.41V238.036H1934.68V243.821ZM1938.7 284H1950.91V293.643H1938.7V284ZM1938.86 311H1951.07V320.643H1938.86V311ZM1951.23 347.643H1939.02V338H1951.23V347.643Z" fill="#F2F2F2"/>
<path d="M1342.88 179.458H1236.56V156.463C1236.56 155.74 1236.42 155.024 1236.14 154.356C1235.87 153.689 1235.46 153.082 1234.95 152.571C1234.44 152.06 1233.83 151.654 1233.17 151.378C1232.5 151.102 1231.78 150.96 1231.06 150.961H1199.84V126.463C1199.84 125.544 1199.48 124.664 1198.83 124.014C1198.18 123.365 1197.3 123 1196.38 123H1156.15C1155.23 123.001 1154.35 123.367 1153.7 124.016C1153.05 124.665 1152.68 125.545 1152.68 126.463V150.961H1116C1115.27 150.959 1114.56 151.099 1113.89 151.375C1113.22 151.651 1112.61 152.056 1112.1 152.567C1111.58 153.078 1111.18 153.685 1110.9 154.353C1110.62 155.022 1110.48 155.739 1110.48 156.463V179.442H1009.12C1008.82 179.443 1008.54 179.562 1008.33 179.772C1008.12 179.982 1008 180.266 1008 180.563V485.879C1008 486.176 1008.12 486.46 1008.33 486.67C1008.54 486.88 1008.82 486.999 1009.12 487H1076.49C1076.79 486.999 1077.08 486.88 1077.29 486.67C1077.5 486.46 1077.61 486.176 1077.62 485.879V444.785C1077.62 444.489 1077.73 444.204 1077.94 443.995C1078.15 443.785 1078.44 443.666 1078.74 443.665H1107.2C1107.49 443.666 1107.78 443.785 1107.99 443.995C1108.2 444.205 1108.31 444.489 1108.31 444.785V485.858C1108.31 486.154 1108.43 486.437 1108.64 486.647C1108.84 486.857 1109.13 486.976 1109.42 486.979H1242.58C1242.87 486.976 1243.16 486.857 1243.36 486.647C1243.57 486.438 1243.69 486.154 1243.69 485.858V444.785C1243.69 444.49 1243.81 444.207 1244.02 443.997C1244.22 443.787 1244.51 443.668 1244.8 443.665H1273.26C1273.56 443.665 1273.85 443.783 1274.06 443.993C1274.27 444.203 1274.38 444.488 1274.38 444.785V485.858C1274.39 486.155 1274.5 486.439 1274.71 486.649C1274.92 486.859 1275.21 486.977 1275.51 486.979H1342.88C1343.18 486.976 1343.46 486.857 1343.67 486.647C1343.88 486.438 1344 486.154 1344 485.858V180.579C1344 180.282 1343.88 179.998 1343.67 179.788C1343.46 179.578 1343.18 179.459 1342.88 179.458ZM1065.55 429.422C1065.55 429.715 1065.43 429.997 1065.22 430.205C1065.02 430.413 1064.73 430.53 1064.44 430.531H1022.82C1022.67 430.532 1022.53 430.504 1022.39 430.448C1022.26 430.393 1022.14 430.311 1022.03 430.208C1021.93 430.105 1021.85 429.983 1021.79 429.848C1021.73 429.712 1021.71 429.568 1021.71 429.422V415.205C1021.7 415.058 1021.73 414.912 1021.79 414.776C1021.84 414.64 1021.93 414.517 1022.03 414.413C1022.13 414.309 1022.26 414.226 1022.39 414.17C1022.53 414.113 1022.67 414.084 1022.82 414.084H1064.44C1064.74 414.087 1065.02 414.206 1065.23 414.416C1065.43 414.626 1065.55 414.909 1065.55 415.205V429.422ZM1065.55 392.687C1065.55 392.982 1065.43 393.265 1065.23 393.474C1065.02 393.683 1064.74 393.801 1064.44 393.803H1022.82C1022.67 393.803 1022.53 393.774 1022.39 393.717C1022.26 393.661 1022.13 393.578 1022.03 393.474C1021.93 393.37 1021.84 393.246 1021.79 393.111C1021.73 392.975 1021.7 392.829 1021.71 392.682V378.481C1021.7 378.334 1021.73 378.189 1021.79 378.053C1021.84 377.917 1021.93 377.793 1022.03 377.689C1022.13 377.585 1022.26 377.503 1022.39 377.446C1022.53 377.39 1022.67 377.361 1022.82 377.361H1064.44C1064.59 377.361 1064.73 377.391 1064.87 377.448C1065 377.504 1065.12 377.587 1065.23 377.691C1065.33 377.795 1065.41 377.919 1065.47 378.054C1065.52 378.19 1065.55 378.335 1065.55 378.481V392.687ZM1065.55 355.964C1065.55 356.259 1065.43 356.542 1065.23 356.751C1065.02 356.96 1064.74 357.078 1064.44 357.079H1022.82C1022.52 357.079 1022.24 356.962 1022.03 356.753C1021.82 356.543 1021.71 356.26 1021.71 355.964V341.758C1021.7 341.611 1021.73 341.465 1021.79 341.33C1021.84 341.194 1021.93 341.07 1022.03 340.966C1022.13 340.862 1022.26 340.779 1022.39 340.723C1022.53 340.666 1022.67 340.637 1022.82 340.637H1064.44C1064.74 340.64 1065.02 340.759 1065.23 340.969C1065.43 341.179 1065.55 341.463 1065.55 341.758V355.964ZM1065.55 319.23C1065.55 319.376 1065.52 319.521 1065.47 319.656C1065.41 319.792 1065.33 319.915 1065.23 320.018C1065.12 320.122 1065 320.204 1064.87 320.26C1064.73 320.316 1064.59 320.345 1064.44 320.345H1022.82C1022.67 320.346 1022.53 320.318 1022.39 320.262C1022.26 320.206 1022.13 320.124 1022.03 320.02C1021.93 319.916 1021.84 319.793 1021.79 319.658C1021.73 319.522 1021.7 319.377 1021.71 319.23V305.019C1021.7 304.872 1021.73 304.727 1021.79 304.591C1021.84 304.455 1021.93 304.332 1022.03 304.228C1022.13 304.125 1022.26 304.043 1022.39 303.987C1022.53 303.931 1022.67 303.903 1022.82 303.903H1064.44C1064.59 303.903 1064.73 303.932 1064.87 303.988C1065 304.044 1065.12 304.127 1065.23 304.23C1065.33 304.334 1065.41 304.457 1065.47 304.592C1065.52 304.728 1065.55 304.872 1065.55 305.019V319.23ZM1065.55 282.501C1065.55 282.797 1065.43 283.08 1065.23 283.29C1065.02 283.5 1064.74 283.619 1064.44 283.622H1022.82C1022.67 283.622 1022.53 283.593 1022.39 283.536C1022.26 283.48 1022.13 283.397 1022.03 283.293C1021.93 283.189 1021.84 283.066 1021.79 282.93C1021.73 282.794 1021.7 282.648 1021.71 282.501V268.285C1021.71 268.138 1021.73 267.994 1021.79 267.859C1021.85 267.724 1021.93 267.601 1022.03 267.498C1022.14 267.395 1022.26 267.313 1022.39 267.258C1022.53 267.202 1022.67 267.174 1022.82 267.175H1064.44C1064.73 267.176 1065.02 267.293 1065.22 267.501C1065.43 267.709 1065.55 267.991 1065.55 268.285V282.501ZM1065.55 245.778C1065.55 246.072 1065.43 246.353 1065.22 246.561C1065.02 246.769 1064.73 246.886 1064.44 246.888H1022.82C1022.67 246.888 1022.53 246.86 1022.39 246.805C1022.26 246.749 1022.14 246.668 1022.03 246.565C1021.93 246.461 1021.85 246.339 1021.79 246.204C1021.73 246.069 1021.71 245.924 1021.71 245.778V231.561C1021.71 231.265 1021.82 230.981 1022.03 230.771C1022.24 230.561 1022.52 230.442 1022.82 230.441H1064.44C1064.74 230.443 1065.02 230.563 1065.23 230.773C1065.43 230.982 1065.55 231.266 1065.55 231.561V245.778ZM1065.55 209.044C1065.55 209.19 1065.52 209.335 1065.47 209.471C1065.41 209.607 1065.33 209.73 1065.23 209.834C1065.12 209.938 1065 210.021 1064.87 210.077C1064.73 210.134 1064.59 210.164 1064.44 210.164H1022.82C1022.67 210.164 1022.53 210.135 1022.39 210.079C1022.26 210.023 1022.13 209.94 1022.03 209.836C1021.93 209.732 1021.84 209.608 1021.79 209.472C1021.73 209.336 1021.7 209.191 1021.71 209.044V194.838C1021.7 194.691 1021.73 194.545 1021.79 194.409C1021.84 194.273 1021.93 194.15 1022.03 194.046C1022.13 193.942 1022.26 193.859 1022.39 193.803C1022.53 193.746 1022.67 193.717 1022.82 193.717H1064.44C1064.59 193.718 1064.73 193.747 1064.87 193.804C1065 193.861 1065.12 193.944 1065.23 194.048C1065.33 194.152 1065.41 194.275 1065.47 194.411C1065.52 194.546 1065.55 194.691 1065.55 194.838V209.044ZM1164.21 429.437C1164.21 429.584 1164.18 429.728 1164.13 429.863C1164.07 429.998 1163.99 430.121 1163.88 430.224C1163.78 430.327 1163.66 430.409 1163.52 430.464C1163.39 430.52 1163.24 430.548 1163.1 430.547H1121.48C1121.19 430.547 1120.9 430.431 1120.69 430.223C1120.48 430.015 1120.36 429.733 1120.36 429.437V415.205C1120.36 414.908 1120.48 414.624 1120.69 414.414C1120.9 414.204 1121.18 414.086 1121.48 414.084H1163.1C1163.24 414.084 1163.39 414.113 1163.52 414.17C1163.66 414.226 1163.78 414.309 1163.89 414.413C1163.99 414.517 1164.07 414.64 1164.13 414.776C1164.18 414.912 1164.21 415.058 1164.21 415.205V429.437ZM1164.21 392.703C1164.21 392.85 1164.18 392.996 1164.13 393.132C1164.07 393.268 1163.99 393.391 1163.89 393.495C1163.78 393.6 1163.66 393.682 1163.52 393.739C1163.39 393.795 1163.24 393.824 1163.1 393.824H1121.48C1121.18 393.824 1120.9 393.706 1120.69 393.496C1120.48 393.286 1120.36 393.001 1120.36 392.703V378.481C1120.36 378.184 1120.48 377.899 1120.69 377.689C1120.9 377.479 1121.18 377.361 1121.48 377.361H1163.1C1163.24 377.361 1163.39 377.39 1163.52 377.446C1163.66 377.503 1163.78 377.585 1163.89 377.689C1163.99 377.793 1164.07 377.917 1164.13 378.053C1164.18 378.189 1164.21 378.334 1164.21 378.481V392.703ZM1164.21 355.98C1164.21 356.276 1164.09 356.559 1163.89 356.769C1163.68 356.978 1163.39 357.095 1163.1 357.095H1121.48C1121.19 357.095 1120.9 356.978 1120.69 356.769C1120.48 356.56 1120.36 356.276 1120.36 355.98V341.758C1120.36 341.461 1120.48 341.177 1120.69 340.967C1120.9 340.757 1121.18 340.639 1121.48 340.637H1163.1C1163.24 340.637 1163.39 340.666 1163.52 340.723C1163.66 340.779 1163.78 340.862 1163.89 340.966C1163.99 341.07 1164.07 341.194 1164.13 341.33C1164.18 341.465 1164.21 341.611 1164.21 341.758V355.98ZM1164.21 319.246C1164.21 319.393 1164.18 319.538 1164.13 319.674C1164.07 319.809 1163.99 319.932 1163.89 320.036C1163.78 320.14 1163.66 320.222 1163.52 320.278C1163.39 320.334 1163.24 320.362 1163.1 320.361H1121.48C1121.33 320.362 1121.19 320.334 1121.05 320.278C1120.92 320.222 1120.79 320.14 1120.69 320.036C1120.59 319.933 1120.5 319.81 1120.45 319.674C1120.39 319.538 1120.36 319.393 1120.36 319.246V305.019C1120.36 304.872 1120.39 304.726 1120.45 304.591C1120.5 304.455 1120.59 304.332 1120.69 304.228C1120.79 304.124 1120.92 304.042 1121.05 303.987C1121.19 303.931 1121.33 303.903 1121.48 303.903H1163.1C1163.24 303.903 1163.39 303.931 1163.52 303.987C1163.66 304.043 1163.78 304.125 1163.89 304.228C1163.99 304.332 1164.07 304.455 1164.13 304.591C1164.18 304.727 1164.21 304.872 1164.21 305.019V319.246ZM1164.21 282.517C1164.21 282.664 1164.18 282.81 1164.13 282.946C1164.07 283.082 1163.99 283.205 1163.89 283.309C1163.78 283.413 1163.66 283.496 1163.52 283.552C1163.39 283.609 1163.24 283.638 1163.1 283.638H1121.48C1121.18 283.636 1120.9 283.518 1120.69 283.308C1120.48 283.098 1120.36 282.814 1120.36 282.517V268.285C1120.36 267.989 1120.48 267.707 1120.69 267.499C1120.9 267.291 1121.19 267.175 1121.48 267.175H1163.1C1163.24 267.174 1163.39 267.202 1163.52 267.258C1163.66 267.313 1163.78 267.395 1163.88 267.498C1163.99 267.601 1164.07 267.724 1164.13 267.859C1164.18 267.994 1164.21 268.138 1164.21 268.285V282.517ZM1164.21 245.794C1164.21 245.94 1164.18 246.085 1164.13 246.22C1164.07 246.355 1163.99 246.477 1163.88 246.581C1163.78 246.684 1163.66 246.765 1163.52 246.821C1163.39 246.876 1163.24 246.904 1163.1 246.904H1121.48C1121.19 246.904 1120.9 246.787 1120.69 246.579C1120.48 246.371 1120.36 246.089 1120.36 245.794V231.561C1120.36 231.264 1120.48 230.98 1120.69 230.77C1120.9 230.56 1121.18 230.442 1121.48 230.441H1163.1C1163.39 230.442 1163.68 230.561 1163.89 230.771C1164.09 230.981 1164.21 231.265 1164.21 231.561V245.794ZM1164.21 209.06C1164.21 209.207 1164.18 209.352 1164.13 209.488C1164.07 209.624 1163.99 209.748 1163.89 209.852C1163.78 209.956 1163.66 210.039 1163.52 210.095C1163.39 210.151 1163.24 210.18 1163.1 210.18H1121.48C1121.18 210.18 1120.9 210.062 1120.69 209.852C1120.48 209.642 1120.36 209.357 1120.36 209.06V194.838C1120.36 194.541 1120.48 194.256 1120.69 194.045C1120.9 193.835 1121.18 193.717 1121.48 193.717H1163.1C1163.24 193.717 1163.39 193.746 1163.52 193.803C1163.66 193.859 1163.78 193.942 1163.89 194.046C1163.99 194.15 1164.07 194.273 1164.13 194.409C1164.18 194.545 1164.21 194.691 1164.21 194.838V209.06ZM1231.65 429.453C1231.65 429.6 1231.62 429.745 1231.56 429.88C1231.51 430.015 1231.42 430.137 1231.32 430.24C1231.22 430.344 1231.09 430.425 1230.96 430.48C1230.82 430.536 1230.68 430.564 1230.53 430.563H1188.9C1188.6 430.563 1188.32 430.447 1188.11 430.239C1187.9 430.031 1187.78 429.748 1187.78 429.453V415.205C1187.78 414.909 1187.9 414.624 1188.11 414.414C1188.32 414.204 1188.6 414.086 1188.9 414.084H1230.51C1230.81 414.084 1231.1 414.202 1231.31 414.412C1231.52 414.623 1231.63 414.908 1231.63 415.205L1231.65 429.453ZM1231.65 392.719C1231.65 392.867 1231.62 393.013 1231.57 393.149C1231.51 393.285 1231.43 393.409 1231.32 393.513C1231.22 393.617 1231.09 393.7 1230.96 393.756C1230.82 393.812 1230.68 393.841 1230.53 393.84H1188.9C1188.6 393.839 1188.32 393.72 1188.11 393.51C1187.9 393.3 1187.78 393.016 1187.78 392.719V378.481C1187.78 378.185 1187.9 377.901 1188.11 377.691C1188.32 377.481 1188.6 377.362 1188.9 377.361H1230.51C1230.66 377.36 1230.81 377.389 1230.94 377.445C1231.08 377.501 1231.2 377.583 1231.31 377.687C1231.41 377.792 1231.49 377.915 1231.55 378.052C1231.61 378.188 1231.63 378.334 1231.63 378.481L1231.65 392.719ZM1231.65 355.996C1231.65 356.292 1231.53 356.576 1231.32 356.785C1231.11 356.994 1230.83 357.111 1230.53 357.111H1188.9C1188.6 357.11 1188.32 356.992 1188.11 356.783C1187.9 356.574 1187.78 356.291 1187.78 355.996V341.758C1187.78 341.462 1187.9 341.177 1188.11 340.967C1188.32 340.757 1188.6 340.639 1188.9 340.637H1230.51C1230.81 340.637 1231.1 340.755 1231.31 340.966C1231.52 341.176 1231.63 341.461 1231.63 341.758L1231.65 355.996ZM1231.65 319.262C1231.65 319.409 1231.62 319.554 1231.56 319.69C1231.51 319.826 1231.43 319.949 1231.32 320.052C1231.22 320.156 1231.09 320.238 1230.96 320.294C1230.82 320.349 1230.68 320.378 1230.53 320.377H1188.9C1188.75 320.377 1188.61 320.348 1188.47 320.292C1188.34 320.236 1188.21 320.154 1188.11 320.05C1188.01 319.947 1187.92 319.824 1187.87 319.689C1187.81 319.553 1187.78 319.408 1187.78 319.262V305.019C1187.78 304.872 1187.81 304.727 1187.87 304.592C1187.92 304.456 1188.01 304.334 1188.11 304.23C1188.21 304.126 1188.34 304.044 1188.47 303.988C1188.61 303.932 1188.75 303.903 1188.9 303.903H1230.51C1230.66 303.903 1230.81 303.931 1230.94 303.987C1231.08 304.042 1231.2 304.124 1231.31 304.228C1231.41 304.332 1231.49 304.455 1231.55 304.591C1231.6 304.726 1231.63 304.872 1231.63 305.019L1231.65 319.262ZM1231.65 282.533C1231.65 282.83 1231.53 283.115 1231.32 283.325C1231.11 283.536 1230.83 283.654 1230.53 283.654H1188.9C1188.6 283.652 1188.32 283.534 1188.11 283.324C1187.9 283.114 1187.78 282.829 1187.78 282.533V268.285C1187.78 267.99 1187.9 267.707 1188.11 267.499C1188.32 267.291 1188.6 267.175 1188.9 267.175H1230.51C1230.66 267.174 1230.8 267.202 1230.94 267.257C1231.08 267.313 1231.2 267.394 1231.3 267.498C1231.41 267.601 1231.49 267.723 1231.55 267.858C1231.6 267.993 1231.63 268.138 1231.63 268.285L1231.65 282.533ZM1231.65 245.81C1231.65 245.956 1231.62 246.101 1231.56 246.236C1231.51 246.371 1231.42 246.494 1231.32 246.597C1231.22 246.7 1231.09 246.781 1230.96 246.837C1230.82 246.892 1230.68 246.92 1230.53 246.92H1188.9C1188.6 246.92 1188.32 246.803 1188.11 246.595C1187.9 246.387 1187.78 246.105 1187.78 245.81V231.561C1187.78 231.265 1187.9 230.982 1188.11 230.772C1188.32 230.562 1188.6 230.443 1188.9 230.441H1230.51C1230.81 230.442 1231.09 230.56 1231.3 230.77C1231.51 230.98 1231.63 231.264 1231.63 231.561L1231.65 245.81ZM1231.65 209.076C1231.65 209.223 1231.62 209.369 1231.57 209.505C1231.51 209.642 1231.43 209.765 1231.32 209.87C1231.22 209.974 1231.09 210.056 1230.96 210.112C1230.82 210.168 1230.68 210.197 1230.53 210.196H1188.9C1188.6 210.195 1188.32 210.076 1188.11 209.866C1187.9 209.656 1187.78 209.372 1187.78 209.076V194.838C1187.78 194.541 1187.9 194.257 1188.11 194.047C1188.32 193.837 1188.6 193.719 1188.9 193.717H1230.51C1230.66 193.716 1230.81 193.745 1230.94 193.801C1231.08 193.857 1231.2 193.94 1231.31 194.044C1231.41 194.148 1231.49 194.272 1231.55 194.408C1231.61 194.544 1231.63 194.69 1231.63 194.838L1231.65 209.076ZM1330.32 429.422C1330.31 429.717 1330.19 429.999 1329.98 430.207C1329.77 430.415 1329.49 430.531 1329.2 430.531H1287.56C1287.42 430.532 1287.27 430.504 1287.14 430.449C1287 430.393 1286.88 430.312 1286.77 430.209C1286.67 430.105 1286.59 429.983 1286.53 429.848C1286.47 429.713 1286.44 429.568 1286.44 429.422V415.205C1286.44 414.908 1286.56 414.623 1286.77 414.412C1286.98 414.202 1287.27 414.084 1287.56 414.084H1329.18C1329.33 414.083 1329.47 414.111 1329.61 414.166C1329.75 414.222 1329.88 414.304 1329.98 414.408C1330.09 414.512 1330.17 414.636 1330.23 414.773C1330.29 414.91 1330.32 415.056 1330.32 415.205V429.422ZM1330.32 392.687C1330.32 392.985 1330.2 393.27 1329.99 393.48C1329.78 393.69 1329.49 393.808 1329.2 393.808H1287.56C1287.42 393.809 1287.27 393.78 1287.13 393.724C1287 393.668 1286.87 393.586 1286.77 393.481C1286.67 393.377 1286.58 393.253 1286.53 393.117C1286.47 392.981 1286.44 392.835 1286.44 392.687V378.481C1286.44 378.334 1286.47 378.188 1286.53 378.052C1286.58 377.915 1286.67 377.792 1286.77 377.687C1286.87 377.583 1287 377.501 1287.13 377.445C1287.27 377.389 1287.42 377.36 1287.56 377.361H1329.18C1329.48 377.361 1329.76 377.479 1329.97 377.689C1330.18 377.899 1330.3 378.184 1330.3 378.481L1330.32 392.687ZM1330.32 355.964C1330.31 356.26 1330.2 356.544 1329.99 356.753C1329.78 356.962 1329.49 357.079 1329.2 357.079H1287.56C1287.27 357.079 1286.98 356.962 1286.77 356.753C1286.56 356.544 1286.45 356.26 1286.44 355.964V341.758C1286.44 341.461 1286.56 341.176 1286.77 340.966C1286.98 340.755 1287.27 340.637 1287.56 340.637H1329.18C1329.33 340.636 1329.47 340.664 1329.61 340.72C1329.75 340.775 1329.88 340.857 1329.98 340.962C1330.09 341.066 1330.17 341.19 1330.23 341.326C1330.29 341.463 1330.32 341.61 1330.32 341.758V355.964ZM1330.32 319.23C1330.32 319.377 1330.29 319.522 1330.23 319.658C1330.17 319.794 1330.09 319.917 1329.99 320.02C1329.88 320.124 1329.76 320.206 1329.62 320.262C1329.49 320.318 1329.34 320.346 1329.2 320.345H1287.56C1287.42 320.346 1287.27 320.318 1287.14 320.262C1287 320.206 1286.88 320.124 1286.77 320.02C1286.67 319.917 1286.59 319.794 1286.53 319.658C1286.47 319.522 1286.44 319.377 1286.44 319.23V305.019C1286.44 304.872 1286.47 304.726 1286.53 304.591C1286.59 304.455 1286.67 304.332 1286.77 304.228C1286.88 304.124 1287 304.042 1287.14 303.987C1287.27 303.931 1287.42 303.903 1287.56 303.903H1329.18C1329.33 303.903 1329.47 303.931 1329.61 303.987C1329.74 304.042 1329.87 304.124 1329.97 304.228C1330.08 304.332 1330.16 304.455 1330.21 304.591C1330.27 304.726 1330.3 304.872 1330.3 305.019L1330.32 319.23ZM1330.32 282.501C1330.31 282.798 1330.2 283.082 1329.99 283.292C1329.78 283.502 1329.49 283.62 1329.2 283.622H1287.56C1287.27 283.622 1286.98 283.504 1286.77 283.294C1286.56 283.083 1286.44 282.798 1286.44 282.501V268.285C1286.44 268.138 1286.47 267.993 1286.53 267.858C1286.59 267.723 1286.67 267.601 1286.77 267.498C1286.88 267.394 1287 267.313 1287.14 267.257C1287.27 267.202 1287.42 267.174 1287.56 267.175H1329.18C1329.47 267.175 1329.76 267.291 1329.97 267.499C1330.18 267.707 1330.3 267.989 1330.3 268.285L1330.32 282.501ZM1330.32 245.778C1330.31 246.073 1330.19 246.355 1329.98 246.563C1329.77 246.771 1329.49 246.888 1329.2 246.888H1287.56C1287.42 246.888 1287.27 246.86 1287.14 246.805C1287 246.75 1286.88 246.668 1286.77 246.565C1286.67 246.462 1286.59 246.339 1286.53 246.204C1286.47 246.069 1286.44 245.924 1286.44 245.778V231.561C1286.45 231.264 1286.56 230.98 1286.77 230.77C1286.98 230.56 1287.27 230.442 1287.56 230.441H1329.18C1329.33 230.439 1329.47 230.467 1329.61 230.523C1329.75 230.578 1329.88 230.661 1329.98 230.765C1330.09 230.869 1330.17 230.993 1330.23 231.129C1330.29 231.266 1330.32 231.413 1330.32 231.561V245.778ZM1330.32 209.044C1330.32 209.341 1330.2 209.626 1329.99 209.836C1329.78 210.046 1329.49 210.164 1329.2 210.164H1287.56C1287.42 210.165 1287.27 210.137 1287.13 210.08C1287 210.024 1286.87 209.942 1286.77 209.838C1286.67 209.734 1286.58 209.61 1286.53 209.473C1286.47 209.337 1286.44 209.191 1286.44 209.044V194.838C1286.44 194.69 1286.47 194.544 1286.53 194.408C1286.58 194.272 1286.67 194.148 1286.77 194.044C1286.87 193.94 1287 193.857 1287.13 193.801C1287.27 193.745 1287.42 193.716 1287.56 193.717H1329.18C1329.48 193.717 1329.76 193.835 1329.97 194.045C1330.18 194.256 1330.3 194.541 1330.3 194.838L1330.32 209.044Z" fill="#F2F2F2"/>
<path d="M976.833 162V182.41H950V405H1006V190.883V182.41V162H976.833Z" fill="#575A89"/>
<path d="M829.869 299.209V264H796.51V299.209H784V406H842V299.209H829.869Z" fill="#575A89"/>
<path d="M836 357H790V406H836V357Z" fill="#3F3D56"/>
<path opacity="0.1" d="M798 357H790V406H798V357Z" fill="black"/>
<path d="M1692.26 177V188.941H1624.13V177H1604V432H1712V177H1692.26Z" fill="#3F3D56"/>
<path opacity="0.1" d="M858 151H842V406H858V151Z" fill="black"/>
<path d="M766.219 223.639V214H756.168V223.639H738V406H784V223.639H766.219Z" fill="#3F3D56"/>
<path opacity="0.1" d="M761 214H755V223H761V214Z" fill="black"/>
<path opacity="0.1" d="M743 223H738V406H743V223Z" fill="black"/>
<path opacity="0.1" d="M946 249H930V406H946V249Z" fill="black"/>
<path opacity="0.1" d="M784 223H769V257H784V223Z" fill="black"/>
<path d="M1688 259H1667V268H1688V259Z" fill="#FF6584"/>
<path d="M1643 325H1621V334H1643V325Z" fill="#FF6584"/>
<path d="M771 266H750V275H771V266Z" fill="#FF6584"/>
<path d="M824 362H802V371H824V362Z" fill="#FF6584"/>
<path opacity="0.1" d="M832 307H795V323H832V307Z" fill="black"/>
<path opacity="0.1" d="M994 200H957V216H994V200Z" fill="black"/>
<path opacity="0.1" d="M994 233H957V248H994V233Z" fill="black"/>
<path opacity="0.1" d="M994 266H957V281H994V266Z" fill="black"/>
<path opacity="0.1" d="M994 299H957V314H994V299Z" fill="black"/>
<path opacity="0.1" d="M994 331H957V347H994V331Z" fill="black"/>
<path opacity="0.1" d="M994 364H957V380H994V364Z" fill="black"/>
<path d="M1018.72 269.996V228H991.664V269.996H982V406H1028V269.996H1018.72Z" fill="#3F3D56"/>
<path opacity="0.1" d="M1000 228H992V270H1000V228Z" fill="black"/>
<path opacity="0.1" d="M990 270H982V406H990V270Z" fill="black"/>
<path opacity="0.1" d="M1028 338H1005V352H1028V338Z" fill="black"/>
<path d="M1027 318H1006V327H1027V318Z" fill="#FF6584"/>
<path d="M1585 180.528C1585 212.008 1564.41 223 1539 223C1513.59 223 1493 212.008 1493 180.528C1493 149.048 1539 109 1539 109C1539 109 1585 149.048 1585 180.528Z" fill="#F0C146"/>
<path d="M1598.5 258.607V221H1577.62V196.571H1563.48V221H1542.59V258.607H1531.02V174.071H1507.56V166.036H1476.39V158H1445.54V166.036H1416.3V174.071H1390.91V258.286H1377.41V220.679H1356.52V196.25H1342.38V220.679H1321.5V258.286H1308V391.679H1338.85V344.429H1360.06V391.679H1442.97V336.714H1478.96V391.679H1529.09V392H1559.94V344.75H1581.15V392H1612V258.607H1598.5ZM1319.09 274.679H1331.3V284.321H1319.09V274.679ZM1319.25 301.679H1331.46V311.321H1319.25V301.679ZM1331.62 338.321H1319.41V328.679H1331.62V338.321ZM1363.59 251.214H1335.32V245.429H1363.59V251.214ZM1363.59 242.857H1335.32V237.071H1363.59V242.857ZM1363.59 234.5H1335.32V228.714H1363.59V234.5ZM1367.61 274.679H1379.82V284.321H1367.61V274.679ZM1367.77 301.679H1379.98V311.321H1367.77V301.679ZM1380.14 338.321H1367.93V328.679H1380.14V338.321ZM1430.11 322.25H1407.62V312.286H1430.11V322.25ZM1430.11 293.643H1407.62V283.679H1430.11V293.643ZM1430.11 265.036H1407.62V255.071H1430.11V265.036ZM1430.11 236.429H1407.62V226.464H1430.11V236.429ZM1430.11 207.821H1407.62V197.857H1430.11V207.821ZM1472.21 322.25H1449.72V312.286H1472.21V322.25ZM1472.21 293.643H1449.72V283.679H1472.21V293.643ZM1472.21 265.036H1449.72V255.071H1472.21V265.036ZM1472.21 236.429H1449.72V226.464H1472.21V236.429ZM1472.21 207.821H1449.72V197.857H1472.21V207.821ZM1514.31 322.25H1491.81V312.286H1514.31V322.25ZM1514.31 293.643H1491.81V283.679H1514.31V293.643ZM1514.31 265.036H1491.81V255.071H1514.31V265.036ZM1514.31 236.429H1491.81V226.464H1514.31V236.429ZM1514.31 207.821H1491.81V197.857H1514.31V207.821ZM1540.18 275H1552.39V284.643H1540.18V275ZM1540.34 302H1552.55V311.643H1540.34V302ZM1552.71 338.643H1540.5V329H1552.71V338.643ZM1584.68 251.536H1556.41V245.75H1584.68V251.536ZM1584.68 243.179H1556.41V237.393H1584.68V243.179ZM1584.68 234.821H1556.41V229.036H1584.68V234.821ZM1588.7 275H1600.91V284.643H1588.7V275ZM1588.86 302H1601.07V311.643H1588.86V302ZM1601.23 338.643H1589.02V329H1601.23V338.643Z" fill="#F2F2F2"/>
<path d="M50.6963 256.352L51.1726 227.552L71 191.923L51.2477 223.034L51.4616 210.085L65.1262 184.308L51.5185 206.658V206.659L51.9036 183.368L66.5362 162.846L51.9642 179.706L52.205 137L50.692 193.535L50.8165 191.203L35.9393 168.835L50.5778 195.679L49.1919 221.69L49.1506 221L32 197.462L49.0986 223.439L48.9254 226.692L48.8943 226.741L48.9082 227.008L45.3915 293H50.0903L50.6539 258.914L67.7107 233L50.6963 256.352Z" fill="#3F3D56"/>
</svg>
