<svg width="143" height="59" viewBox="0 0 143 59" fill="none" xmlns="http://www.w3.org/2000/svg">
<rect width="143" height="59" rx="29.5" fill="#6C63FF"/>
<path d="M47.28 17.34C48.46 17.34 49.43 17.51 50.19 17.85C50.95 18.17 51.78 18.65 52.68 19.29C52.94 19.49 53.14 19.59 53.28 19.59C53.66 19.59 53.91 18.98 54.03 17.76H54.72C54.64 19.06 54.6 21.36 54.6 24.66H53.91C53.73 23.6 53.54 22.73 53.34 22.05C53.14 21.35 52.83 20.74 52.41 20.22C51.83 19.5 51.07 18.93 50.13 18.51C49.21 18.09 48.24 17.88 47.22 17.88C45.9 17.88 44.74 18.31 43.74 19.17C42.74 20.03 41.97 21.26 41.43 22.86C40.89 24.44 40.62 26.29 40.62 28.41C40.62 32.01 41.19 34.65 42.33 36.33C43.49 37.99 45.3 38.82 47.76 38.82C48.96 38.82 50 38.51 50.88 37.89C51.24 37.65 51.47 37.42 51.57 37.2C51.69 36.96 51.75 36.64 51.75 36.24V33.36C51.75 32.52 51.67 31.91 51.51 31.53C51.35 31.15 51.07 30.89 50.67 30.75C50.27 30.61 49.62 30.52 48.72 30.48V29.88C49.76 29.94 51.17 29.97 52.95 29.97C54.31 29.97 55.35 29.94 56.07 29.88V30.48C55.61 30.52 55.27 30.6 55.05 30.72C54.85 30.84 54.71 31.07 54.63 31.41C54.57 31.75 54.54 32.3 54.54 33.06V39H53.94C53.92 38.6 53.84 38.22 53.7 37.86C53.56 37.48 53.37 37.29 53.13 37.29C53.01 37.29 52.89 37.32 52.77 37.38C52.65 37.44 52.44 37.58 52.14 37.8C51.44 38.34 50.71 38.74 49.95 39C49.21 39.28 48.38 39.42 47.46 39.42C45.4 39.42 43.63 39 42.15 38.16C40.69 37.3 39.57 36.07 38.79 34.47C38.01 32.87 37.62 30.96 37.62 28.74C37.62 26.46 38.03 24.46 38.85 22.74C39.69 21 40.84 19.67 42.3 18.75C43.76 17.81 45.42 17.34 47.28 17.34ZM65.3138 23.13C67.3538 23.13 68.9938 23.81 70.2338 25.17C71.4938 26.51 72.1238 28.55 72.1238 31.29C72.1238 34.03 71.4938 36.07 70.2338 37.41C68.9938 38.75 67.3538 39.42 65.3138 39.42C63.2738 39.42 61.6238 38.75 60.3638 37.41C59.1238 36.07 58.5038 34.03 58.5038 31.29C58.5038 28.55 59.1238 26.51 60.3638 25.17C61.6238 23.81 63.2738 23.13 65.3138 23.13ZM65.3138 23.73C64.1138 23.73 63.1638 24.35 62.4638 25.59C61.7638 26.81 61.4138 28.71 61.4138 31.29C61.4138 33.87 61.7638 35.77 62.4638 36.99C63.1638 38.21 64.1138 38.82 65.3138 38.82C66.5138 38.82 67.4638 38.21 68.1638 36.99C68.8638 35.77 69.2138 33.87 69.2138 31.29C69.2138 28.71 68.8638 26.81 68.1638 25.59C67.4638 24.35 66.5138 23.73 65.3138 23.73Z" fill="white"/>
<path d="M94 42.3575L105.744 30.5L94 18.6425L97.6154 15L113 30.5L97.6154 46L94 42.3575Z" fill="white"/>
</svg>
