<svg width="976" height="412" viewBox="0 0 976 412" fill="none" xmlns="http://www.w3.org/2000/svg">
<path d="M293.425 344.185L216.598 268.413L197.546 249.621L140.681 193.538L70.1891 268.861L0 343.87" fill="#F2F2F2"/>
<path d="M671.77 344.642H152.331L216.598 274.91L335.336 135.502L343.339 126.108L450.746 0L525.066 117.821L527.012 120.905L621.562 270.776L671.77 344.642Z" fill="#F2F2F2"/>
<path d="M929 344.185L800.698 192.653L737.801 118.371L677.01 194.665L621.562 264.278L558.144 343.87" fill="#F2F2F2"/>
<path opacity="0.1" d="M197.546 249.621L163.693 272.341L123.724 256.58L70.189 268.861L140.68 193.538L197.546 249.621Z" fill="black"/>
<path opacity="0.1" d="M525.066 117.821L513.725 137.765L488.297 111.1L460.437 137.765L444.69 107.463L419.252 137.765L411.984 118.375L395.035 137.765L364.752 118.375L343.339 126.108L450.746 0L525.066 117.821Z" fill="black"/>
<path opacity="0.1" d="M800.698 192.653L769.291 231.12L743.856 200.812L705.099 232.332L677.01 194.665L737.801 118.371L800.698 192.653Z" fill="black"/>
<path d="M801.085 345.653L799.389 344.777C821.405 302.174 809.633 246.847 795.881 207.936C786.543 181.782 774.633 156.621 760.325 132.824L761.938 131.804C776.319 155.722 788.292 181.011 797.678 207.298C811.557 246.565 823.412 302.444 801.085 345.653Z" fill="#2F2E41"/>
<path d="M817.413 132.145L805.038 199.934L806.914 200.277L819.289 132.488L817.413 132.145Z" fill="#2F2E41"/>
<path d="M735.124 189.901L733.727 191.202L797.631 259.942L799.028 258.64L735.124 189.901Z" fill="#2F2E41"/>
<path d="M823.128 114.174C828.396 114.174 832.666 109.9 832.666 104.627C832.666 99.3544 828.396 95.08 823.128 95.08C817.861 95.08 813.59 99.3544 813.59 104.627C813.59 109.9 817.861 114.174 823.128 114.174Z" fill="#6C63FF"/>
<path d="M719.164 187.687C724.432 187.687 728.702 183.413 728.702 178.14C728.702 172.867 724.432 168.593 719.164 168.593C713.896 168.593 709.626 172.867 709.626 178.14C709.626 183.413 713.896 187.687 719.164 187.687Z" fill="#3F3D56"/>
<path d="M761.131 197.234C766.399 197.234 770.669 192.96 770.669 187.687C770.669 182.414 766.399 178.14 761.131 178.14C755.864 178.14 751.593 182.414 751.593 187.687C751.593 192.96 755.864 197.234 761.131 197.234Z" fill="#3F3D56"/>
<path d="M742.056 234.468C747.323 234.468 751.594 230.194 751.594 224.921C751.594 219.648 747.323 215.374 742.056 215.374C736.788 215.374 732.518 219.648 732.518 224.921C732.518 230.194 736.788 234.468 742.056 234.468Z" fill="#6C63FF"/>
<path d="M861.28 258.336C866.548 258.336 870.818 254.062 870.818 248.789C870.818 243.516 866.548 239.242 861.28 239.242C856.012 239.242 851.742 243.516 851.742 248.789C851.742 254.062 856.012 258.336 861.28 258.336Z" fill="#3F3D56"/>
<path d="M829.805 268.838C835.072 268.838 839.343 264.563 839.343 259.291C839.343 254.018 835.072 249.744 829.805 249.744C824.537 249.744 820.267 254.018 820.267 259.291C820.267 264.563 824.537 268.838 829.805 268.838Z" fill="#3F3D56"/>
<path d="M751.594 125.631C756.861 125.631 761.132 121.356 761.132 116.084C761.132 110.811 756.861 106.537 751.594 106.537C746.326 106.537 742.056 110.811 742.056 116.084C742.056 121.356 746.326 125.631 751.594 125.631Z" fill="#3F3D56"/>
<path d="M563.589 343.744L561.893 342.867C583.909 300.264 572.137 244.937 558.385 206.026C549.047 179.872 537.136 154.712 522.829 130.914L524.441 129.894C538.823 153.813 550.795 179.101 560.182 205.389C574.061 244.656 585.916 300.535 563.589 343.744Z" fill="#2F2E41"/>
<path d="M579.916 130.235L567.541 198.024L569.416 198.367L581.792 130.578L579.916 130.235Z" fill="#2F2E41"/>
<path d="M497.627 187.991L496.23 189.292L560.135 258.032L561.532 256.731L497.627 187.991Z" fill="#2F2E41"/>
<path d="M585.633 112.265C590.9 112.265 595.171 107.99 595.171 102.718C595.171 97.445 590.9 93.1706 585.633 93.1706C580.365 93.1706 576.095 97.445 576.095 102.718C576.095 107.99 580.365 112.265 585.633 112.265Z" fill="#3F3D56"/>
<path d="M481.668 185.778C486.936 185.778 491.206 181.503 491.206 176.231C491.206 170.958 486.936 166.684 481.668 166.684C476.401 166.684 472.13 170.958 472.13 176.231C472.13 181.503 476.401 185.778 481.668 185.778Z" fill="#3F3D56"/>
<path d="M523.636 195.325C528.903 195.325 533.174 191.051 533.174 185.778C533.174 180.505 528.903 176.231 523.636 176.231C518.368 176.231 514.098 180.505 514.098 185.778C514.098 191.051 518.368 195.325 523.636 195.325Z" fill="#3F3D56"/>
<path d="M504.559 232.559C509.827 232.559 514.097 228.284 514.097 223.012C514.097 217.739 509.827 213.465 504.559 213.465C499.292 213.465 495.021 217.739 495.021 223.012C495.021 228.284 499.292 232.559 504.559 232.559Z" fill="#3F3D56"/>
<path d="M623.784 256.427C629.052 256.427 633.322 252.152 633.322 246.879C633.322 241.607 629.052 237.332 623.784 237.332C618.516 237.332 614.246 241.607 614.246 246.879C614.246 252.152 618.516 256.427 623.784 256.427Z" fill="#6C63FF"/>
<path d="M592.309 266.928C597.577 266.928 601.847 262.654 601.847 257.381C601.847 252.109 597.577 247.834 592.309 247.834C587.041 247.834 582.771 252.109 582.771 257.381C582.771 262.654 587.041 266.928 592.309 266.928Z" fill="#3F3D56"/>
<path d="M514.098 123.721C519.365 123.721 523.635 119.447 523.635 114.174C523.635 108.902 519.365 104.627 514.098 104.627C508.83 104.627 504.56 108.902 504.56 114.174C504.56 119.447 508.83 123.721 514.098 123.721Z" fill="#3F3D56"/>
<path d="M165.113 343.744L166.809 342.867C144.793 300.264 156.565 244.937 170.317 206.026C179.655 179.872 191.566 154.712 205.873 130.914L204.26 129.894C189.879 153.813 177.906 179.101 168.52 205.389C154.641 244.656 142.786 300.535 165.113 343.744Z" fill="#2F2E41"/>
<path d="M148.789 130.231L146.913 130.574L159.288 198.363L161.164 198.02L148.789 130.231Z" fill="#2F2E41"/>
<path d="M231.074 187.991L167.17 256.731L168.567 258.032L232.471 189.292L231.074 187.991Z" fill="#2F2E41"/>
<path d="M143.07 112.265C148.337 112.265 152.608 107.99 152.608 102.718C152.608 97.445 148.337 93.1706 143.07 93.1706C137.802 93.1706 133.532 97.445 133.532 102.718C133.532 107.99 137.802 112.265 143.07 112.265Z" fill="#3F3D56"/>
<path d="M247.034 185.778C252.302 185.778 256.572 181.503 256.572 176.231C256.572 170.958 252.302 166.684 247.034 166.684C241.766 166.684 237.496 170.958 237.496 176.231C237.496 181.503 241.766 185.778 247.034 185.778Z" fill="#3F3D56"/>
<path d="M205.067 195.325C210.334 195.325 214.605 191.051 214.605 185.778C214.605 180.505 210.334 176.231 205.067 176.231C199.799 176.231 195.529 180.505 195.529 185.778C195.529 191.051 199.799 195.325 205.067 195.325Z" fill="#3F3D56"/>
<path d="M224.143 232.559C229.41 232.559 233.681 228.284 233.681 223.012C233.681 217.739 229.41 213.465 224.143 213.465C218.875 213.465 214.605 217.739 214.605 223.012C214.605 228.284 218.875 232.559 224.143 232.559Z" fill="#3F3D56"/>
<path d="M104.918 256.427C110.186 256.427 114.456 252.152 114.456 246.879C114.456 241.607 110.186 237.332 104.918 237.332C99.6502 237.332 95.3799 241.607 95.3799 246.879C95.3799 252.152 99.6502 256.427 104.918 256.427Z" fill="#3F3D56"/>
<path d="M136.393 266.928C141.661 266.928 145.931 262.654 145.931 257.381C145.931 252.109 141.661 247.834 136.393 247.834C131.126 247.834 126.855 252.109 126.855 257.381C126.855 262.654 131.126 266.928 136.393 266.928Z" fill="#3F3D56"/>
<path d="M214.605 123.721C219.873 123.721 224.143 119.447 224.143 114.174C224.143 108.902 219.873 104.627 214.605 104.627C209.337 104.627 205.067 108.902 205.067 114.174C205.067 119.447 209.337 123.721 214.605 123.721Z" fill="#3F3D56"/>
<path d="M956.217 375.2L956.681 346.586L976 311.185L956.754 342.097L956.963 329.23L970.277 303.619L957.018 325.826L957.394 302.685L971.651 282.295L957.452 299.046L957.687 256.614L956.213 312.786L956.334 310.469L941.838 288.245L956.102 314.918L954.751 340.762L954.711 340.076L938 316.688L954.66 342.499L954.491 345.731L954.461 345.78L954.475 346.045L951.048 411.614H955.627L956.176 377.746L972.795 351.999L956.217 375.2Z" fill="#3F3D56"/>
</svg>
