<svg width="652" height="245" viewBox="0 0 652 245" fill="none" xmlns="http://www.w3.org/2000/svg">
<path d="M270.143 31.5593C276.482 31.5593 281.621 26.4156 281.621 20.0706C281.621 13.7255 276.482 8.58179 270.143 8.58179C263.804 8.58179 258.666 13.7255 258.666 20.0706C258.666 26.4156 263.804 31.5593 270.143 31.5593Z" fill="#2F2E41"/>
<path d="M263.945 28.8021C263.945 28.8021 264.175 32.938 261.42 33.3976L265.322 42.8183L270.143 50.6307H274.275L276.8 48.3329L276.341 45.3459L274.964 40.061L273.357 38.4526C273.357 38.4526 273.586 31.7892 275.652 28.8021C277.718 25.815 263.945 28.8021 263.945 28.8021Z" fill="#FFB8B8"/>
<path opacity="0.1" d="M263.945 28.8021C263.945 28.8021 264.175 32.938 261.42 33.3976L265.322 42.8183L270.143 50.6307H274.275L276.8 48.3329L276.341 45.3459L274.964 40.061L273.357 38.4526C273.357 38.4526 273.586 31.7892 275.652 28.8021C277.718 25.815 263.945 28.8021 263.945 28.8021Z" fill="black"/>
<path d="M273.357 14.5561C276.4 14.5561 278.866 12.0871 278.866 9.04144C278.866 5.99582 276.4 3.52686 273.357 3.52686C270.314 3.52686 267.848 5.99582 267.848 9.04144C267.848 12.0871 270.314 14.5561 273.357 14.5561Z" fill="#2F2E41"/>
<path d="M268.077 6.74366C268.077 6.01947 268.22 5.30238 268.497 4.63332C268.774 3.96425 269.18 3.35636 269.691 2.84428C270.203 2.3322 270.81 1.92598 271.478 1.64885C272.147 1.37171 272.863 1.22907 273.587 1.22907C273.659 1.22907 273.731 1.23176 273.803 1.23454C273.054 1.00793 272.266 0.943604 271.49 1.04586C270.714 1.14812 269.969 1.41464 269.304 1.82762C268.639 2.24061 268.07 2.79057 267.634 3.44097C267.198 4.09138 266.906 4.82725 266.776 5.59962C266.647 6.372 266.683 7.16319 266.883 7.92044C267.082 8.67769 267.441 9.38368 267.935 9.99139C268.428 10.5991 269.045 11.0946 269.745 11.4449C270.445 11.7952 271.211 11.9923 271.993 12.023C270.861 11.6802 269.869 10.9818 269.164 10.0311C268.458 9.08035 268.078 7.92774 268.077 6.74366Z" fill="#2F2E41"/>
<path d="M262.568 33.6273L260.272 33.3976C259.634 33.2128 258.957 33.2005 258.312 33.3619C257.667 33.5233 257.076 33.8527 256.6 34.3167C254.993 35.9251 256.829 54.0773 256.829 54.0773L262.568 50.1711L263.486 40.9801L262.568 33.6273Z" fill="#FFB8B8"/>
<path d="M251.32 104.858L248.106 123.01C248.106 123.01 246.04 130.592 243.515 132.89C240.99 135.188 237.087 154.259 236.169 158.395C235.251 162.531 235.021 164.829 233.873 166.437C232.726 168.046 233.873 173.79 233.873 173.79H236.399L240.071 173.101C240.071 173.101 240.76 164.369 241.449 162.761C242.137 161.153 253.386 137.026 253.386 137.026C253.386 137.026 260.961 125.767 262.338 119.563C263.38 115.41 265.085 111.453 267.388 107.845L251.32 104.858Z" fill="#FFB8B8"/>
<path d="M274.505 103.939L277.489 124.848C277.489 124.848 277.489 131.282 278.407 133.809C279.326 136.337 280.014 151.272 280.932 154.719C281.851 158.165 283.917 165.748 283.228 166.667C282.423 168.144 281.732 169.68 281.162 171.263L283.458 176.318L289.656 171.952L288.737 134.269C288.737 134.269 291.262 102.33 289.656 101.411C288.049 100.492 280.014 97.7346 274.505 103.939Z" fill="#FFB8B8"/>
<path d="M256.829 81.4206L252.238 94.0582C252.238 94.0582 248.795 107.385 250.631 108.074C252.467 108.764 273.357 111.751 273.816 109.223C274.027 108.237 274.18 107.24 274.275 106.236C274.275 106.236 292.181 106.926 292.41 102.79C292.42 97.1856 292.114 91.5855 291.492 86.0161C291.27 85.0709 290.746 84.2236 290.001 83.6019C289.256 82.9803 288.329 82.6179 287.36 82.5695C284.835 82.5695 263.027 76.8251 256.829 81.4206Z" fill="#2F2E41"/>
<path d="M234.333 171.033C234.549 170.701 234.886 170.467 235.272 170.381C235.658 170.295 236.063 170.364 236.399 170.573C237.776 171.263 240.531 171.033 240.531 171.033L239.842 177.237C239.842 177.237 242.597 188.266 237.547 188.266C232.496 188.266 229.742 184.59 230.201 183.211C230.66 181.832 231.808 171.033 231.808 171.033C231.808 171.033 234.013 165.608 234.103 165.289C234.193 164.969 234.333 171.033 234.333 171.033Z" fill="#2F2E41"/>
<path d="M282.31 169.884C282.31 169.884 281.851 172.412 283.917 172.182C285.983 171.952 289.426 169.884 289.655 170.114C290.245 171.265 290.633 172.508 290.803 173.79C291.033 175.399 291.492 178.845 293.558 180.454C295.624 182.062 298.838 187.117 295.165 187.347C291.492 187.577 284.835 187.347 284.605 185.049C284.376 182.751 284.376 180.224 284.376 180.224C284.376 180.224 282.31 180.454 281.621 179.994C280.932 179.535 276.341 176.777 277.719 173.101C279.096 169.424 282.982 167.055 282.982 167.055L282.31 169.884Z" fill="#2F2E41"/>
<path d="M269.225 32.2486C274.17 32.2486 278.178 28.2366 278.178 23.2874C278.178 18.3383 274.17 14.3262 269.225 14.3262C264.281 14.3262 260.272 18.3383 260.272 23.2874C260.272 28.2366 264.281 32.2486 269.225 32.2486Z" fill="#FFB8B8"/>
<path d="M274.046 40.061C274.046 40.061 278.178 40.061 279.096 42.3588C280.014 44.6565 278.178 49.4818 278.178 49.4818L276.085 44.3603L274.046 40.061Z" fill="#FFB8B8"/>
<path d="M259.124 33.1677H261.879C261.879 33.1677 268.995 43.7374 270.143 44.6565C271.291 45.5756 275.423 45.8054 275.423 45.1161C275.423 44.4268 273.357 38.4526 273.357 38.4526L275.193 39.8312L278.177 47.184C278.177 47.184 286.212 67.4042 285.523 69.4722C285.409 69.7275 285.348 70.0036 285.344 70.2835C285.34 70.5633 285.394 70.841 285.501 71.0993C285.609 71.3577 285.768 71.5913 285.969 71.7857C286.17 71.98 286.409 72.1311 286.671 72.2295C286.901 72.4593 289.426 77.7441 288.278 79.8121C287.13 81.8801 289.426 84.4076 289.426 84.4076C289.426 84.4076 290.573 89.4626 286.671 90.1519C282.769 90.8413 280.703 87.1649 276.111 89.0031C271.52 90.8413 265.322 91.0711 263.945 88.3138C262.961 86.2282 262.117 84.0788 261.42 81.8801C261.42 81.8801 258.895 86.2458 260.043 89.6924C261.191 93.139 259.584 89.4627 258.436 89.4627C257.288 89.4627 255.222 89.2328 255.222 87.8542C255.222 86.4755 250.631 63.2683 250.631 63.2683L257.058 48.5627C257.058 48.5627 263.027 45.8054 262.338 42.5885C261.65 39.3717 262.568 34.7762 259.124 33.1677Z" fill="#3F3D56"/>
<path d="M259.875 34.6292C259.306 34.1155 258.602 33.7755 257.846 33.6493C257.09 33.5231 256.314 33.6159 255.61 33.9169C254.224 34.5114 252.993 35.4157 252.01 36.5604C251.028 37.7051 250.32 39.0598 249.942 40.5206C247.876 47.1841 243.515 64.8768 244.433 69.2425C245.351 73.6082 252.927 93.1391 252.927 93.1391C253.14 94.9156 253.447 96.6796 253.845 98.424C254.074 98.6537 257.518 90.152 257.518 90.152L251.549 67.4043L259.584 42.8184C259.584 42.8184 262.852 37.4202 259.875 34.6292Z" fill="#FFB8B8"/>
<path d="M270.028 21.4492C274.909 21.4492 278.866 18.8774 278.866 15.7048C278.866 12.5323 274.909 9.96045 270.028 9.96045C265.147 9.96045 261.19 12.5323 261.19 15.7048C261.19 18.8774 265.147 21.4492 270.028 21.4492Z" fill="#2F2E41"/>
<path d="M74.2166 40.2742C74.2166 40.2742 58.8408 48.5614 58.2494 55.6648C57.658 62.7682 48.7873 80.5266 48.7873 80.5266C48.7873 80.5266 13.8959 70.4635 13.3046 69.8715C12.7132 69.2796 10.3477 80.5266 10.3477 80.5266L22.7666 82.3024L45.8304 90.5896C45.8304 90.5896 51.1529 98.285 60.0235 87.6299C68.8942 76.9749 91.3667 53.889 91.3667 53.889L74.2166 40.2742Z" fill="#2F2E41"/>
<path d="M71.2598 69.2795C71.2598 69.2795 90.7753 88.2218 90.1839 92.3654C89.5925 96.5091 80.7218 130.25 80.7218 130.25L87.8184 133.802L92.5494 130.842L102.011 89.9977C102.011 89.9977 105.573 84.9952 98.7657 79.2092C91.958 73.4232 87.227 53.297 87.227 53.297L71.2598 69.2795Z" fill="#2F2E41"/>
<path d="M126.554 31.6909C132.106 31.6909 136.607 27.1855 136.607 21.6278C136.607 16.0701 132.106 11.5647 126.554 11.5647C121.001 11.5647 116.5 16.0701 116.5 21.6278C116.5 27.1855 121.001 31.6909 126.554 31.6909Z" fill="#A0616A"/>
<path d="M119.753 20.1479C119.753 20.1479 109.699 15.4124 108.517 16.5963C107.334 17.7801 110.882 31.9869 110.882 31.9869C110.882 31.9869 120.344 26.6593 121.527 26.6593C122.71 26.6593 119.753 20.1479 119.753 20.1479Z" fill="#A0616A"/>
<path d="M113.839 26.6594C113.839 26.6594 110.882 14.8204 109.699 14.8204C108.516 14.8204 97.2803 16.5963 90.1837 24.8836C83.0872 33.1708 75.3992 37.9063 73.0338 39.6822C70.6683 41.4581 68.8941 43.2339 73.0338 45.0097C77.1734 46.7855 81.9045 51.5211 83.6786 54.4808C85.4527 57.4406 97.2803 53.8889 97.2803 53.8889C97.2803 53.8889 102.603 43.8259 104.377 43.8259C106.151 43.8259 115.613 30.211 113.839 26.6594Z" fill="#6C63FF"/>
<path d="M96.0977 39.6823C96.0977 39.6823 87.8184 50.9292 87.8184 59.2165C87.8184 67.5037 92.5494 81.1185 92.5494 81.1185C92.5494 81.1185 96.6891 101.245 100.237 94.1413C103.786 87.0379 97.8718 77.5668 97.8718 77.5668L95.5063 56.2568L100.237 45.0097L96.0977 39.6823Z" fill="#A0616A"/>
<path d="M15.167 70.5543C15.167 70.5543 8.57331 65.7278 7.98193 67.5037C7.39054 69.2795 -1.48017 89.4058 1.47674 90.5897C4.43364 91.7736 13.3043 79.9346 13.8957 79.9346C14.4871 79.9346 13.4815 70.0532 15.167 70.5543Z" fill="#2F2E41"/>
<path d="M91.3665 127.29C91.3665 127.29 100.237 132.026 102.011 132.026C103.785 132.026 107.334 134.394 103.194 135.578C99.0544 136.761 80.7216 138.537 80.1303 136.761C79.5389 134.985 80.1303 130.25 80.1303 130.25C80.1303 130.25 91.3665 129.066 91.3665 127.29Z" fill="#2F2E41"/>
<path d="M138.214 21.4461C138.485 20.7178 138.582 19.9362 138.497 19.1638C138.442 17.4633 138.324 15.603 137.169 14.3548C136.578 13.7153 135.746 13.2833 135.329 12.5181C135.11 11.9821 134.932 11.4303 134.796 10.8674C134.502 10.1953 134.052 9.60315 133.484 9.14022C132.915 8.6773 132.244 8.35699 131.527 8.20602C130.091 7.91797 128.619 7.86402 127.166 8.04624C125.081 8.0879 123.016 8.45186 121.043 9.12519C120.058 9.47041 119.165 10.0366 118.433 10.7805C117.7 11.5244 117.148 12.4262 116.817 13.4169C116.643 14.1898 116.56 14.9806 116.57 15.773L116.483 19.0689C116.813 19.3596 117.225 19.541 117.662 19.5881C118.099 19.6352 118.54 19.5456 118.924 19.3318C119.725 18.9753 120.404 18.3763 121.219 18.0491C121.611 17.8506 122.057 17.7856 122.489 17.864C122.921 17.9425 123.316 18.1601 123.614 18.4837C123.774 18.7759 123.913 19.0788 124.031 19.3903C125.654 22.6253 130.015 19.1823 132.281 19.2319C134.308 19.2762 136.728 24.635 138.214 21.4461Z" fill="#2F2E41"/>
<path d="M106.049 138.579C120.787 138.579 123.161 133.083 123.259 132.837L122.163 132.391C122.139 132.447 119.616 137.92 103.807 137.354C88.4616 136.805 64.718 137.278 61.5451 137.346C60.6558 135.839 56.6674 129.724 51.0366 130.853L51.2688 132.014C56.679 130.927 60.646 138.153 60.6858 138.226L60.8573 138.545L61.2194 138.537C61.4799 138.531 87.4128 137.953 103.764 138.537C104.557 138.565 105.319 138.579 106.049 138.579Z" fill="#2F2E41"/>
<path d="M105.977 144.457H106.325C107.535 144.457 108.517 143.475 108.517 142.263V141.915C108.517 140.703 107.535 139.721 106.325 139.721H105.977C104.767 139.721 103.786 140.703 103.786 141.915V142.263C103.786 143.475 104.767 144.457 105.977 144.457Z" fill="#2F2E41"/>
<path d="M65.1721 144.457H65.5197C66.7302 144.457 67.7114 143.475 67.7114 142.263V141.915C67.7114 140.703 66.7302 139.721 65.5197 139.721H65.1721C63.9617 139.721 62.9804 140.703 62.9804 141.915V142.263C62.9804 143.475 63.9617 144.457 65.1721 144.457Z" fill="#2F2E41"/>
<path d="M112.065 25.4755C112.065 25.4755 109.254 39.7251 106.224 42.3674C103.194 45.0097 102.482 47.5693 100.473 48.3613C98.4633 49.1533 91.3667 40.866 91.3667 40.2741C91.3667 39.6821 112.065 25.4755 112.065 25.4755Z" fill="#6C63FF"/>
<path d="M171.892 146.665H23.0996V148.574H171.892V146.665Z" fill="#2F2E41"/>
<path d="M349.298 186.762H200.506V188.672H349.298V186.762Z" fill="#2F2E41"/>
<path d="M470.431 243.091H409.388V245H470.431V243.091Z" fill="#2F2E41"/>
<path d="M89.8654 226.86H28.8223V228.77H89.8654V226.86Z" fill="#2F2E41"/>
<path d="M630.272 92.2458H367.819V94.1553H630.272V92.2458Z" fill="#2F2E41"/>
<path d="M651.653 213.494H507.629V215.404H651.653V213.494Z" fill="#2F2E41"/>
<path d="M532.546 176.284C532.546 178.21 531.82 180.065 530.511 181.478C529.203 182.89 527.409 183.754 525.49 183.898H525.485C525.297 183.916 525.109 183.922 524.915 183.922C523.913 183.922 522.921 183.724 521.995 183.341C521.069 182.957 520.228 182.394 519.52 181.685C518.811 180.976 518.249 180.134 517.866 179.207C517.482 178.28 517.285 177.287 517.285 176.284C517.284 176.245 517.286 176.206 517.291 176.167C517.317 174.308 518.021 172.523 519.269 171.147C520.517 169.771 522.225 168.899 524.07 168.693C524.351 168.663 524.633 168.647 524.915 168.646C526.71 168.645 528.448 169.278 529.822 170.433C531.196 171.589 532.119 173.193 532.428 174.962V174.968C532.506 175.403 532.545 175.843 532.546 176.284Z" fill="#6C63FF"/>
<path d="M532.545 176.284C532.546 178.21 531.819 180.065 530.511 181.477C529.202 182.89 527.409 183.754 525.49 183.898H525.484C524.72 182.867 524.314 181.614 524.328 180.331C524.343 179.047 524.777 177.803 525.565 176.79C526.352 175.776 527.449 175.049 528.689 174.719C529.928 174.389 531.242 174.474 532.428 174.962V174.968C532.506 175.402 532.545 175.843 532.545 176.284Z" fill="#F2F2F2"/>
<path d="M524.328 170.409C524.328 171.28 524.135 172.139 523.762 172.926C523.389 173.713 522.847 174.407 522.173 174.958C521.5 175.509 520.712 175.903 519.868 176.112C519.023 176.321 518.143 176.34 517.291 176.167C517.317 174.308 518.021 172.523 519.269 171.147C520.517 169.771 522.224 168.899 524.07 168.693C524.243 169.249 524.33 169.827 524.328 170.409Z" fill="#F2F2F2"/>
<path d="M599.194 165.299C599.194 170.044 592.111 169.39 590.61 173.891C585.361 189.638 581.977 171.551 582.026 165.299C582.026 163.02 582.93 160.834 584.54 159.223C586.15 157.612 588.333 156.706 590.61 156.706C592.887 156.706 595.07 157.612 596.68 159.223C598.29 160.834 599.194 163.02 599.194 165.299H599.194Z" fill="#2F2E41"/>
<path d="M588.184 189.134C588.184 189.134 588.082 199.954 586.674 200.659C585.266 201.363 577.273 202.875 578.681 205.341C579.421 206.56 580.593 207.455 581.963 207.846C583.333 208.238 584.801 208.098 586.072 207.455C588.536 206.046 594.52 197.59 594.52 197.59L588.184 189.134Z" fill="#3F3D56"/>
<path d="M618.103 198.647C618.103 198.647 618.103 198.75 618.113 198.935C618.2 200.173 618.581 201.372 619.223 202.434C619.865 203.496 620.75 204.389 621.805 205.041C622.86 205.692 624.055 206.084 625.291 206.182C626.527 206.28 627.769 206.082 628.913 205.605C629.94 205.202 630.83 205.14 630.672 206.25C630.32 208.716 630.422 212.035 632.182 212.035C633.942 212.035 636.406 207.807 634.998 203.227C633.879 199.987 632.34 196.907 630.422 194.067L618.103 198.647Z" fill="#3F3D56"/>
<path opacity="0.1" d="M588.184 189.134C588.184 189.134 588.082 199.954 586.674 200.659C585.266 201.363 577.273 202.875 578.681 205.341C579.421 206.56 580.593 207.455 581.963 207.846C583.333 208.238 584.801 208.098 586.072 207.455C588.536 206.046 594.52 197.59 594.52 197.59L588.184 189.134Z" fill="black"/>
<path opacity="0.1" d="M618.103 198.647C618.103 198.647 618.103 198.75 618.113 198.935C618.2 200.173 618.581 201.372 619.223 202.434C619.865 203.496 620.75 204.389 621.805 205.041C622.86 205.692 624.055 206.084 625.291 206.182C626.527 206.28 627.769 206.082 628.913 205.605C629.94 205.202 630.83 205.14 630.672 206.25C630.32 208.716 630.422 212.035 632.182 212.035C633.942 212.035 636.406 207.807 634.998 203.227C633.879 199.987 632.34 196.907 630.422 194.067L618.103 198.647Z" fill="black"/>
<path d="M580.495 166.922C581.242 165.275 582.356 163.819 583.75 162.667C585.078 161.555 586.657 160.786 588.35 160.425C590.043 160.064 591.799 160.123 593.464 160.596C601.56 162.71 602.616 168.7 602.616 168.7V171.117C602.6 172.276 602.933 173.414 603.571 174.382C604.209 175.35 605.123 176.103 606.194 176.546C607.986 177.247 637.494 176.259 639.254 174.497C640.524 173.078 641.58 171.481 642.39 169.756V169.825C642.418 173.052 641.578 176.228 639.957 179.018C639.248 180.018 638.868 181.214 638.87 182.44C639.222 184.906 640.278 191.6 638.166 194.067C636.054 196.533 637.11 198.294 639.574 198.647C642.038 198.999 646.262 198.295 645.91 202.522C645.558 206.75 646.262 208.512 644.502 208.512C642.742 208.512 641.967 207.969 640.207 204.093C640.207 204.093 638.87 203.227 633.942 204.636C630.739 205.552 626.531 206.42 625.3 203.931C622.577 198.426 605.068 199.512 601.081 205.022C600.02 206.592 598.723 207.989 597.236 209.162C596.542 209.708 595.776 210.156 594.96 210.494C592.848 211.242 590.296 211.507 588.536 209.569C585.016 205.693 594.425 205.048 594.425 205.048C594.425 205.048 595.928 201.465 595.224 198.999C595.224 198.999 586.776 197.238 586.424 186.316C586.424 186.316 575.161 186.316 573.401 180.678L571.641 175.041L575.027 173.008C577.408 171.578 579.308 169.467 580.483 166.948L580.495 166.922Z" fill="#3F3D56"/>
<path d="M571.8 177.434C572.707 177.434 573.441 176.487 573.441 175.32C573.441 174.152 572.707 173.206 571.8 173.206C570.894 173.206 570.159 174.152 570.159 175.32C570.159 176.487 570.894 177.434 571.8 177.434Z" fill="#2F2E41"/>
<path d="M606.825 168.769C606.825 174.042 598.954 173.314 597.287 178.316C591.455 195.813 587.695 175.716 587.749 168.769C587.749 166.237 588.754 163.808 590.542 162.018C592.331 160.228 594.757 159.222 597.287 159.222C599.816 159.222 602.242 160.228 604.031 162.018C605.82 163.808 606.825 166.237 606.825 168.769Z" fill="#2F2E41"/>
</svg>
