<svg width="555" height="217" viewBox="0 0 555 217" fill="none" xmlns="http://www.w3.org/2000/svg">
<path d="M234.661 216.155C270.782 216.155 300.065 186.844 300.065 150.687C300.065 114.531 270.782 85.2198 234.661 85.2198C198.539 85.2198 169.256 114.531 169.256 150.687C169.256 186.844 198.539 216.155 234.661 216.155Z" fill="#6C63FF"/>
<path d="M72.2208 76.74C67.0966 71.5905 60.7621 67.8122 53.7989 65.7519C46.8356 63.6916 39.4669 63.4155 32.3693 64.9489C25.2716 66.4822 18.6726 69.7759 13.1782 74.5275C7.68372 79.2791 3.46996 85.3362 0.923828 92.1427L80.5265 88.4509C78.4285 84.1117 75.6213 80.1537 72.2208 76.74Z" fill="#F2F2F2"/>
<path d="M243.904 12.7742C238.78 7.62475 232.446 3.8464 225.482 1.78614C218.519 -0.274112 211.15 -0.550242 204.053 0.98311C196.955 2.51646 190.356 5.81015 184.862 10.5617C179.367 15.3133 175.154 21.3705 172.607 28.177L252.21 24.4852C250.112 20.146 247.305 16.1879 243.904 12.7742Z" fill="#F2F2F2"/>
<path d="M546.259 172.211C541.135 167.062 534.8 163.284 527.837 161.223C520.874 159.163 513.505 158.887 506.407 160.42C499.31 161.954 492.711 165.247 487.216 169.999C481.722 174.75 477.508 180.808 474.962 187.614L554.565 183.922C552.467 179.583 549.659 175.625 546.259 172.211Z" fill="#F2F2F2"/>
</svg>
