<svg width="978" height="913" viewBox="0 0 978 913" fill="none" xmlns="http://www.w3.org/2000/svg">
<path fill-rule="evenodd" clip-rule="evenodd" d="M366.114 145.679C438.637 113.147 515.957 89.3591 593.161 98.1742C675.649 107.593 771.735 127.818 807.896 196.122C843.92 264.167 762.305 345.401 765.138 423.019C767.984 500.984 858.595 568.13 824.153 641.539C790.205 713.895 689.541 737.233 608.342 757.212C536.147 774.975 466.273 757.437 394.339 747.292C315.897 736.229 221.597 749.701 170.225 695.422C118.638 640.916 137.185 554.531 140.752 479.357C144.043 410.004 149.206 339.4 189.981 279.028C231.189 218.015 296.737 176.799 366.114 145.679Z" fill="#C1D6FF" fill-opacity="0.69"/>
</svg>
