<svg width="1920" height="213" viewBox="0 0 1920 213" fill="none" xmlns="http://www.w3.org/2000/svg">
<g opacity="0.2">
<path opacity="0.2" d="M333.458 120.636C332.165 113.043 336.227 105.211 333.82 97.7686C331.961 92.0222 326.428 87.2214 324.634 81.4635C321.974 72.9289 328.062 64.1665 335.834 57.5982C341.178 53.081 347.885 48.9825 355.884 48.1547C360.822 47.6434 365.895 48.4403 370.458 49.9415C375.093 51.4928 379.25 53.7404 382.67 56.5441C386.09 59.3478 388.699 62.6474 390.334 66.237C391.368 68.5699 391.997 71.0108 393.289 73.2723C395.518 77.1701 399.616 80.3154 402.16 84.1051C403.858 86.6745 404.817 89.4805 404.976 92.3429C405.136 95.2053 404.492 98.0609 403.085 100.727C400.138 106.216 393.967 110.807 393.041 116.681C392.377 120.914 394.505 125.557 391.748 129.281C389.662 132.096 385.368 133.526 381.298 134.58C371.838 137.053 358.624 141.036 349.133 137.244C340.821 133.937 334.66 127.652 333.458 120.636Z" fill="#38D39F"/>
<path opacity="0.2" d="M359.995 126.037C359.995 126.037 373.922 121.848 375.678 119.49C377.433 117.132 379.892 103.239 379.892 103.239" stroke="#333333" stroke-width="3" stroke-miterlimit="10"/>
<path opacity="0.2" d="M359.876 190.262V99.8313" stroke="#333333" stroke-width="3" stroke-miterlimit="10"/>
</g>
<g opacity="0.3">
<path opacity="0.3" d="M1607.48 138.712C1608.64 129.543 1604.98 120.085 1607.15 111.098C1608.83 104.159 1613.81 98.3617 1615.43 91.4087C1617.83 81.1028 1612.34 70.5219 1605.33 62.5903C1600.52 57.1425 1594.47 52.1865 1587.27 51.1869C1582.82 50.5694 1578.25 51.5317 1574.13 53.3445C1569.95 55.2177 1566.21 57.9318 1563.13 61.3174C1560.04 64.703 1557.69 68.6874 1556.22 73.0221C1555.29 75.8391 1554.72 78.7867 1553.56 81.5175C1551.55 86.2243 1547.85 90.0223 1545.56 94.5986C1544.03 97.7012 1543.17 101.089 1543.02 104.546C1542.88 108.002 1543.46 111.451 1544.72 114.67C1547.38 121.299 1552.94 126.842 1553.78 133.935C1554.38 139.047 1552.46 144.653 1554.94 149.15C1556.82 152.55 1560.69 154.277 1564.36 155.549C1572.89 158.536 1584.79 163.345 1593.35 158.767C1600.84 154.773 1606.39 147.184 1607.48 138.712Z" fill="#F0C146"/>
<path opacity="0.3" d="M1583.56 145.234C1583.56 145.234 1571.01 140.175 1569.42 137.328C1567.84 134.48 1565.63 117.704 1565.63 117.704" stroke="#F0C146" stroke-width="3" stroke-miterlimit="10"/>
<path opacity="0.3" d="M1583.67 222.788V113.589" stroke="#F0C146" stroke-width="3" stroke-miterlimit="10"/>
</g>
<g opacity="0.4">
<path opacity="0.4" d="M1348.94 120.111C1347.58 109.423 1351.85 98.4219 1349.31 87.9587C1347.35 79.8763 1341.57 73.1281 1339.67 65.031C1336.87 53.0308 1343.26 40.7064 1351.42 31.4925C1357.03 25.1424 1364.07 19.3782 1372.46 18.2246C1377.64 17.4875 1382.97 18.6263 1387.75 20.7381C1392.62 22.9192 1396.98 26.0795 1400.57 30.0217C1404.16 33.964 1406.9 38.6036 1408.61 43.6511C1409.72 46.9313 1410.35 50.3625 1411.71 53.5431C1414.06 59.0235 1418.35 63.4462 1421.02 68.7755C1422.8 72.3883 1423.81 76.3335 1423.98 80.358C1424.14 84.3826 1423.47 88.3976 1421.99 92.1455C1418.9 99.863 1412.41 106.32 1411.45 114.579C1410.78 120.506 1412.99 127.029 1410.1 132.274C1407.91 136.232 1403.4 138.229 1399.13 139.726C1389.2 143.205 1375.34 148.803 1365.38 143.47C1356.67 138.808 1350.2 129.981 1348.94 120.111Z" fill="#F0C146"/>
<path opacity="0.2" d="M1348.94 120.111C1347.58 109.423 1351.85 98.4219 1349.31 87.9587C1347.35 79.8763 1341.57 73.1281 1339.67 65.031C1336.87 53.0308 1343.26 40.7064 1351.42 31.4925C1357.03 25.1424 1364.07 19.3782 1372.46 18.2246C1377.64 17.4875 1382.97 18.6263 1387.75 20.7381C1392.62 22.9192 1396.98 26.0795 1400.57 30.0217C1404.16 33.964 1406.9 38.6036 1408.61 43.6511C1409.72 46.9313 1410.35 50.3625 1411.71 53.5431C1414.06 59.0235 1418.35 63.4462 1421.02 68.7755C1422.8 72.3883 1423.81 76.3335 1423.98 80.358C1424.14 84.3826 1423.47 88.3976 1421.99 92.1455C1418.9 99.863 1412.41 106.32 1411.45 114.579C1410.78 120.506 1412.99 127.029 1410.1 132.274C1407.91 136.232 1403.4 138.229 1399.13 139.726C1389.2 143.205 1375.34 148.803 1365.38 143.47C1356.67 138.808 1350.2 129.981 1348.94 120.111Z" fill="#F0C146"/>
<path opacity="0.4" d="M1376.79 127.711C1376.79 127.711 1391.4 121.814 1393.25 118.497C1395.09 115.18 1397.67 95.6467 1397.67 95.6467" stroke="#F0C146" stroke-width="3" stroke-miterlimit="10"/>
<path opacity="0.4" d="M1376.66 218.014V90.8629" stroke="#F0C146" stroke-width="3" stroke-miterlimit="10"/>
</g>
<path d="M692.885 81.458H586.561V58.4627C586.562 57.7399 586.42 57.0242 586.144 56.3564C585.868 55.6885 585.463 55.0817 584.952 54.5707C584.441 54.0597 583.834 53.6544 583.166 53.3782C582.498 53.1019 581.783 52.9601 581.06 52.9608H549.842V28.4626C549.842 27.5442 549.477 26.6635 548.828 26.0142C548.179 25.3648 547.298 25 546.38 25H506.146C505.228 25.0014 504.348 25.3667 503.699 26.0157C503.05 26.6648 502.685 27.5447 502.683 28.4626V52.9608H465.996C465.272 52.9587 464.555 53.0995 463.886 53.375C463.217 53.6506 462.608 54.0555 462.096 54.5666C461.583 55.0777 461.177 55.6849 460.899 56.3535C460.622 57.0221 460.479 57.7388 460.479 58.4627V81.442H359.115C358.819 81.4434 358.535 81.5621 358.326 81.7721C358.117 81.9821 358 82.2663 358 82.5626V387.879C358 388.176 358.117 388.46 358.326 388.67C358.535 388.88 358.819 388.999 359.115 389H426.495C426.791 388.999 427.075 388.88 427.285 388.67C427.495 388.46 427.614 388.176 427.615 387.879V346.785C427.616 346.489 427.735 346.204 427.945 345.995C428.155 345.785 428.439 345.666 428.735 345.665H457.197C457.494 345.666 457.777 345.785 457.986 345.995C458.195 346.205 458.313 346.489 458.313 346.785V387.858C458.313 388.154 458.429 388.437 458.637 388.647C458.845 388.857 459.127 388.976 459.422 388.979H592.578C592.873 388.976 593.156 388.857 593.365 388.647C593.574 388.438 593.691 388.154 593.693 387.858V346.785C593.693 346.49 593.809 346.207 594.017 345.997C594.225 345.787 594.507 345.668 594.803 345.665H623.265C623.562 345.665 623.847 345.783 624.057 345.993C624.267 346.203 624.385 346.488 624.385 346.785V387.858C624.386 388.155 624.505 388.439 624.715 388.649C624.924 388.859 625.209 388.977 625.505 388.979H692.885C693.181 388.976 693.464 388.857 693.672 388.647C693.881 388.438 693.999 388.154 694 387.858V82.5785C694 82.2822 693.883 81.998 693.674 81.788C693.465 81.578 693.181 81.4594 692.885 81.458ZM415.551 331.422C415.549 331.715 415.432 331.997 415.224 332.205C415.016 332.413 414.735 332.53 414.441 332.531H372.82C372.674 332.532 372.529 332.504 372.394 332.448C372.259 332.393 372.136 332.311 372.032 332.208C371.929 332.105 371.846 331.983 371.79 331.848C371.734 331.712 371.705 331.568 371.705 331.422V317.205C371.705 317.058 371.733 316.912 371.789 316.776C371.844 316.64 371.926 316.517 372.03 316.413C372.134 316.309 372.257 316.226 372.392 316.17C372.528 316.113 372.674 316.084 372.82 316.084H414.441C414.736 316.087 415.018 316.206 415.226 316.416C415.434 316.626 415.551 316.909 415.551 317.205V331.422ZM415.551 294.687C415.551 294.982 415.434 295.265 415.226 295.474C415.018 295.683 414.736 295.801 414.441 295.803H372.82C372.674 295.803 372.528 295.774 372.392 295.717C372.257 295.661 372.134 295.578 372.03 295.474C371.926 295.37 371.844 295.246 371.789 295.111C371.733 294.975 371.705 294.829 371.705 294.682V280.481C371.705 280.334 371.733 280.189 371.789 280.053C371.844 279.917 371.926 279.793 372.03 279.689C372.134 279.585 372.257 279.503 372.392 279.446C372.528 279.39 372.674 279.361 372.82 279.361H414.441C414.587 279.361 414.732 279.391 414.867 279.448C415.002 279.504 415.125 279.587 415.228 279.691C415.331 279.795 415.412 279.919 415.468 280.054C415.523 280.19 415.551 280.335 415.551 280.481V294.687ZM415.551 257.964C415.551 258.259 415.434 258.542 415.226 258.751C415.018 258.96 414.736 259.078 414.441 259.079H372.82C372.525 259.079 372.241 258.962 372.032 258.753C371.823 258.543 371.705 258.26 371.705 257.964V243.758C371.705 243.611 371.733 243.465 371.789 243.33C371.844 243.194 371.926 243.07 372.03 242.966C372.134 242.862 372.257 242.779 372.392 242.723C372.528 242.666 372.674 242.637 372.82 242.637H414.441C414.736 242.64 415.018 242.759 415.226 242.969C415.434 243.179 415.551 243.463 415.551 243.758V257.964ZM415.551 221.23C415.551 221.376 415.523 221.521 415.468 221.656C415.412 221.792 415.33 221.915 415.227 222.018C415.124 222.122 415.002 222.204 414.867 222.26C414.732 222.316 414.587 222.345 414.441 222.345H372.82C372.674 222.346 372.528 222.318 372.393 222.262C372.257 222.206 372.134 222.124 372.03 222.02C371.927 221.916 371.845 221.793 371.789 221.658C371.733 221.522 371.705 221.377 371.705 221.23V207.019C371.705 206.872 371.733 206.727 371.789 206.591C371.845 206.455 371.927 206.332 372.03 206.228C372.134 206.125 372.257 206.043 372.393 205.987C372.528 205.931 372.674 205.903 372.82 205.903H414.441C414.587 205.903 414.732 205.932 414.867 205.988C415.002 206.044 415.124 206.127 415.227 206.23C415.33 206.334 415.412 206.457 415.468 206.592C415.523 206.728 415.551 206.872 415.551 207.019V221.23ZM415.551 184.501C415.551 184.797 415.434 185.08 415.226 185.29C415.018 185.5 414.736 185.619 414.441 185.622H372.82C372.674 185.622 372.528 185.593 372.392 185.536C372.257 185.48 372.134 185.397 372.03 185.293C371.926 185.189 371.844 185.066 371.789 184.93C371.733 184.794 371.705 184.648 371.705 184.501V170.285C371.705 170.138 371.734 169.994 371.79 169.859C371.846 169.724 371.929 169.601 372.032 169.498C372.136 169.395 372.259 169.313 372.394 169.258C372.529 169.202 372.674 169.174 372.82 169.175H414.441C414.735 169.176 415.016 169.293 415.224 169.501C415.432 169.709 415.549 169.991 415.551 170.285V184.501ZM415.551 147.778C415.549 148.072 415.432 148.353 415.224 148.561C415.016 148.769 414.735 148.886 414.441 148.888H372.82C372.674 148.888 372.529 148.86 372.394 148.805C372.259 148.749 372.136 148.668 372.032 148.565C371.929 148.461 371.846 148.339 371.79 148.204C371.734 148.069 371.705 147.924 371.705 147.778V133.561C371.705 133.265 371.823 132.981 372.032 132.771C372.241 132.561 372.524 132.442 372.82 132.441H414.441C414.736 132.443 415.018 132.563 415.226 132.773C415.434 132.982 415.551 133.266 415.551 133.561V147.778ZM415.551 111.044C415.551 111.19 415.523 111.335 415.468 111.471C415.412 111.607 415.331 111.73 415.228 111.834C415.125 111.938 415.002 112.021 414.867 112.077C414.732 112.134 414.587 112.164 414.441 112.164H372.82C372.674 112.164 372.528 112.135 372.392 112.079C372.257 112.023 372.134 111.94 372.03 111.836C371.926 111.732 371.844 111.608 371.789 111.472C371.733 111.336 371.705 111.191 371.705 111.044V96.8377C371.705 96.6908 371.733 96.5452 371.789 96.4093C371.844 96.2734 371.926 96.1498 372.03 96.0457C372.134 95.9416 372.257 95.8589 372.392 95.8026C372.528 95.7462 372.674 95.7171 372.82 95.7171H414.441C414.587 95.7178 414.732 95.7474 414.867 95.8041C415.002 95.8608 415.125 95.9435 415.228 96.0476C415.331 96.1516 415.412 96.2749 415.468 96.4105C415.523 96.5461 415.551 96.6913 415.551 96.8377V111.044ZM514.212 331.437C514.212 331.584 514.183 331.728 514.127 331.863C514.071 331.998 513.988 332.121 513.885 332.224C513.781 332.327 513.658 332.409 513.523 332.464C513.388 332.52 513.243 332.548 513.097 332.547H471.481C471.186 332.547 470.903 332.431 470.693 332.223C470.483 332.015 470.364 331.733 470.361 331.437V317.205C470.362 316.908 470.481 316.624 470.691 316.414C470.901 316.204 471.185 316.086 471.481 316.084H513.097C513.243 316.084 513.389 316.113 513.524 316.17C513.66 316.226 513.783 316.309 513.887 316.413C513.991 316.517 514.073 316.64 514.128 316.776C514.184 316.912 514.212 317.058 514.212 317.205V331.437ZM514.212 294.703C514.212 294.85 514.184 294.996 514.128 295.132C514.073 295.268 513.991 295.391 513.887 295.495C513.783 295.6 513.66 295.682 513.524 295.739C513.389 295.795 513.243 295.824 513.097 295.824H471.481C471.184 295.824 470.899 295.706 470.689 295.496C470.479 295.286 470.361 295.001 470.361 294.703V280.481C470.361 280.184 470.479 279.899 470.689 279.689C470.899 279.479 471.184 279.361 471.481 279.361H513.097C513.243 279.361 513.389 279.39 513.524 279.446C513.66 279.503 513.783 279.585 513.887 279.689C513.991 279.793 514.073 279.917 514.128 280.053C514.184 280.189 514.212 280.334 514.212 280.481V294.703ZM514.212 257.98C514.212 258.276 514.094 258.559 513.885 258.769C513.676 258.978 513.392 259.095 513.097 259.095H471.481C471.185 259.095 470.901 258.978 470.691 258.769C470.481 258.56 470.362 258.276 470.361 257.98V243.758C470.362 243.461 470.481 243.177 470.691 242.967C470.901 242.757 471.185 242.639 471.481 242.637H513.097C513.243 242.637 513.389 242.666 513.524 242.723C513.66 242.779 513.783 242.862 513.887 242.966C513.991 243.07 514.073 243.194 514.128 243.33C514.184 243.465 514.212 243.611 514.212 243.758V257.98ZM514.212 221.246C514.212 221.393 514.184 221.538 514.128 221.674C514.072 221.809 513.99 221.932 513.887 222.036C513.783 222.14 513.66 222.222 513.524 222.278C513.388 222.334 513.243 222.362 513.097 222.361H471.481C471.335 222.362 471.189 222.334 471.053 222.278C470.917 222.222 470.794 222.14 470.69 222.036C470.585 221.933 470.503 221.81 470.446 221.674C470.39 221.538 470.361 221.393 470.361 221.246V207.019C470.361 206.872 470.39 206.726 470.446 206.591C470.503 206.455 470.585 206.332 470.69 206.228C470.794 206.124 470.917 206.042 471.053 205.987C471.189 205.931 471.335 205.903 471.481 205.903H513.097C513.243 205.903 513.388 205.931 513.524 205.987C513.66 206.043 513.783 206.125 513.887 206.228C513.99 206.332 514.072 206.455 514.128 206.591C514.184 206.727 514.212 206.872 514.212 207.019V221.246ZM514.212 184.517C514.212 184.664 514.184 184.81 514.128 184.946C514.073 185.082 513.991 185.205 513.887 185.309C513.783 185.413 513.66 185.496 513.524 185.552C513.389 185.609 513.243 185.638 513.097 185.638H471.481C471.185 185.636 470.901 185.518 470.691 185.308C470.481 185.098 470.362 184.814 470.361 184.517V170.285C470.364 169.989 470.483 169.707 470.693 169.499C470.903 169.291 471.186 169.175 471.481 169.175H513.097C513.243 169.174 513.388 169.202 513.523 169.258C513.658 169.313 513.781 169.395 513.885 169.498C513.988 169.601 514.071 169.724 514.127 169.859C514.183 169.994 514.212 170.138 514.212 170.285V184.517ZM514.212 147.794C514.212 147.94 514.183 148.085 514.127 148.22C514.071 148.355 513.988 148.477 513.885 148.581C513.781 148.684 513.658 148.765 513.523 148.821C513.388 148.876 513.243 148.904 513.097 148.904H471.481C471.186 148.904 470.903 148.787 470.693 148.579C470.483 148.371 470.364 148.089 470.361 147.794V133.561C470.362 133.264 470.481 132.98 470.691 132.77C470.901 132.56 471.185 132.442 471.481 132.441H513.097C513.393 132.442 513.676 132.561 513.885 132.771C514.094 132.981 514.212 133.265 514.212 133.561V147.794ZM514.212 111.06C514.212 111.207 514.184 111.352 514.128 111.488C514.073 111.624 513.991 111.748 513.887 111.852C513.783 111.956 513.66 112.039 513.524 112.095C513.389 112.151 513.243 112.18 513.097 112.18H471.481C471.184 112.18 470.899 112.062 470.689 111.852C470.479 111.642 470.361 111.357 470.361 111.06V96.8377C470.361 96.5405 470.479 96.2555 470.689 96.0454C470.899 95.8352 471.184 95.7171 471.481 95.7171H513.097C513.243 95.7171 513.389 95.7462 513.524 95.8026C513.66 95.8589 513.783 95.9416 513.887 96.0457C513.991 96.1498 514.073 96.2734 514.128 96.4093C514.184 96.5452 514.212 96.6908 514.212 96.8377V111.06ZM581.65 331.453C581.649 331.6 581.619 331.745 581.563 331.88C581.506 332.015 581.423 332.137 581.319 332.24C581.215 332.344 581.092 332.425 580.956 332.48C580.821 332.536 580.676 332.564 580.529 332.563H538.898C538.603 332.563 538.32 332.447 538.112 332.239C537.903 332.031 537.784 331.748 537.783 331.453V317.205C537.783 316.909 537.9 316.624 538.109 316.414C538.318 316.204 538.602 316.086 538.898 316.084H580.513C580.81 316.084 581.095 316.202 581.305 316.412C581.516 316.623 581.634 316.908 581.634 317.205L581.65 331.453ZM581.65 294.719C581.65 294.867 581.622 295.013 581.566 295.149C581.51 295.285 581.427 295.409 581.323 295.513C581.219 295.617 581.095 295.7 580.959 295.756C580.822 295.812 580.676 295.841 580.529 295.84H538.898C538.602 295.839 538.318 295.72 538.109 295.51C537.9 295.3 537.783 295.016 537.783 294.719V280.481C537.783 280.185 537.9 279.901 538.109 279.691C538.318 279.481 538.602 279.362 538.898 279.361H580.513C580.66 279.36 580.807 279.389 580.943 279.445C581.079 279.501 581.203 279.583 581.307 279.687C581.411 279.792 581.494 279.915 581.55 280.052C581.606 280.188 581.634 280.334 581.634 280.481L581.65 294.719ZM581.65 257.996C581.648 258.292 581.529 258.576 581.319 258.785C581.11 258.994 580.825 259.111 580.529 259.111H538.898C538.603 259.11 538.32 258.992 538.111 258.783C537.902 258.574 537.784 258.291 537.783 257.996V243.758C537.783 243.462 537.9 243.177 538.109 242.967C538.318 242.757 538.602 242.639 538.898 242.637H580.513C580.81 242.637 581.095 242.755 581.305 242.966C581.516 243.176 581.634 243.461 581.634 243.758L581.65 257.996ZM581.65 221.262C581.65 221.409 581.62 221.554 581.564 221.69C581.508 221.826 581.425 221.949 581.321 222.052C581.217 222.156 581.093 222.238 580.957 222.294C580.822 222.349 580.676 222.378 580.529 222.377H538.898C538.752 222.377 538.607 222.348 538.471 222.292C538.336 222.236 538.213 222.154 538.11 222.05C538.006 221.947 537.924 221.824 537.868 221.689C537.812 221.553 537.783 221.408 537.783 221.262V207.019C537.783 206.872 537.812 206.727 537.868 206.592C537.924 206.456 538.006 206.334 538.11 206.23C538.213 206.126 538.336 206.044 538.471 205.988C538.607 205.932 538.752 205.903 538.898 205.903H580.513C580.66 205.903 580.806 205.931 580.942 205.987C581.077 206.042 581.201 206.124 581.305 206.228C581.409 206.332 581.492 206.455 581.548 206.591C581.605 206.726 581.634 206.872 581.634 207.019L581.65 221.262ZM581.65 184.533C581.65 184.83 581.531 185.115 581.321 185.325C581.111 185.536 580.826 185.654 580.529 185.654H538.898C538.602 185.652 538.318 185.534 538.109 185.324C537.9 185.114 537.783 184.829 537.783 184.533V170.285C537.784 169.99 537.903 169.707 538.112 169.499C538.32 169.291 538.603 169.175 538.898 169.175H580.513C580.66 169.174 580.805 169.202 580.94 169.257C581.076 169.313 581.199 169.394 581.303 169.498C581.407 169.601 581.49 169.723 581.547 169.858C581.603 169.993 581.633 170.138 581.634 170.285L581.65 184.533ZM581.65 147.81C581.649 147.956 581.619 148.101 581.563 148.236C581.506 148.371 581.423 148.494 581.319 148.597C581.215 148.7 581.092 148.781 580.956 148.837C580.821 148.892 580.676 148.92 580.529 148.92H538.898C538.603 148.92 538.32 148.803 538.112 148.595C537.903 148.387 537.784 148.105 537.783 147.81V133.561C537.784 133.265 537.902 132.982 538.111 132.772C538.32 132.562 538.602 132.443 538.898 132.441H580.513C580.81 132.442 581.094 132.56 581.304 132.77C581.514 132.98 581.632 133.264 581.634 133.561L581.65 147.81ZM581.65 111.076C581.65 111.223 581.622 111.369 581.566 111.505C581.51 111.642 581.427 111.765 581.323 111.87C581.219 111.974 581.095 112.056 580.959 112.112C580.822 112.168 580.676 112.197 580.529 112.196H538.898C538.602 112.195 538.318 112.076 538.109 111.866C537.9 111.656 537.783 111.372 537.783 111.076V96.8377C537.783 96.5414 537.9 96.2572 538.109 96.0472C538.318 95.8372 538.602 95.7186 538.898 95.7171H580.513C580.66 95.7164 580.807 95.745 580.943 95.801C581.079 95.8571 581.203 95.9396 581.307 96.0438C581.411 96.148 581.494 96.2718 581.55 96.4081C581.606 96.5443 581.634 96.6904 581.634 96.8377L581.65 111.076ZM680.316 331.422C680.313 331.717 680.194 331.999 679.984 332.207C679.774 332.415 679.491 332.531 679.196 332.531H637.565C637.418 332.532 637.273 332.504 637.137 332.449C637.002 332.393 636.879 332.312 636.774 332.209C636.67 332.105 636.588 331.983 636.531 331.848C636.474 331.713 636.445 331.568 636.444 331.422V317.205C636.444 316.908 636.562 316.623 636.772 316.412C636.982 316.202 637.267 316.084 637.565 316.084H679.18C679.328 316.083 679.475 316.111 679.612 316.166C679.75 316.222 679.875 316.304 679.981 316.408C680.086 316.512 680.17 316.636 680.228 316.773C680.285 316.91 680.315 317.056 680.316 317.205V331.422ZM680.316 294.687C680.316 294.985 680.198 295.27 679.988 295.48C679.778 295.69 679.493 295.808 679.196 295.808H637.565C637.417 295.809 637.271 295.78 637.135 295.724C636.999 295.668 636.875 295.586 636.771 295.481C636.667 295.377 636.584 295.253 636.528 295.117C636.472 294.981 636.443 294.835 636.444 294.687V280.481C636.443 280.334 636.472 280.188 636.528 280.052C636.584 279.915 636.667 279.792 636.771 279.687C636.875 279.583 636.999 279.501 637.135 279.445C637.271 279.389 637.417 279.36 637.565 279.361H679.18C679.477 279.361 679.762 279.479 679.972 279.689C680.182 279.899 680.3 280.184 680.3 280.481L680.316 294.687ZM680.316 257.964C680.315 258.26 680.196 258.544 679.986 258.753C679.776 258.962 679.492 259.079 679.196 259.079H637.565C637.268 259.079 636.984 258.962 636.774 258.753C636.564 258.544 636.446 258.26 636.444 257.964V243.758C636.444 243.461 636.562 243.176 636.772 242.966C636.982 242.755 637.267 242.637 637.565 242.637H679.18C679.328 242.636 679.475 242.664 679.612 242.72C679.75 242.775 679.875 242.857 679.981 242.962C680.086 243.066 680.17 243.19 680.228 243.326C680.285 243.463 680.315 243.61 680.316 243.758V257.964ZM680.316 221.23C680.316 221.377 680.287 221.522 680.231 221.658C680.174 221.794 680.092 221.917 679.987 222.02C679.883 222.124 679.76 222.206 679.624 222.262C679.488 222.318 679.342 222.346 679.196 222.345H637.565C637.418 222.346 637.272 222.318 637.136 222.262C637 222.206 636.877 222.124 636.773 222.02C636.668 221.917 636.586 221.794 636.53 221.658C636.473 221.522 636.444 221.377 636.444 221.23V207.019C636.444 206.872 636.473 206.726 636.53 206.591C636.586 206.455 636.668 206.332 636.773 206.228C636.877 206.124 637 206.042 637.136 205.987C637.272 205.931 637.418 205.903 637.565 205.903H679.18C679.326 205.903 679.472 205.931 679.608 205.987C679.744 206.042 679.867 206.124 679.971 206.228C680.076 206.332 680.158 206.455 680.215 206.591C680.271 206.726 680.3 206.872 680.3 207.019L680.316 221.23ZM680.316 184.501C680.315 184.798 680.196 185.082 679.986 185.292C679.776 185.502 679.492 185.62 679.196 185.622H637.565C637.267 185.622 636.982 185.504 636.772 185.294C636.562 185.083 636.444 184.798 636.444 184.501V170.285C636.445 170.138 636.474 169.993 636.531 169.858C636.588 169.723 636.67 169.601 636.774 169.498C636.879 169.394 637.002 169.313 637.137 169.257C637.273 169.202 637.418 169.174 637.565 169.175H679.18C679.475 169.175 679.758 169.291 679.968 169.499C680.178 169.707 680.297 169.989 680.3 170.285L680.316 184.501ZM680.316 147.778C680.313 148.073 680.194 148.355 679.984 148.563C679.774 148.771 679.491 148.888 679.196 148.888H637.565C637.418 148.888 637.273 148.86 637.137 148.805C637.002 148.75 636.879 148.668 636.774 148.565C636.67 148.462 636.588 148.339 636.531 148.204C636.474 148.069 636.445 147.924 636.444 147.778V133.561C636.446 133.264 636.564 132.98 636.774 132.77C636.984 132.56 637.268 132.442 637.565 132.441H679.18C679.328 132.439 679.475 132.467 679.612 132.523C679.75 132.578 679.875 132.661 679.981 132.765C680.086 132.869 680.17 132.993 680.228 133.129C680.285 133.266 680.315 133.413 680.316 133.561V147.778ZM680.316 111.044C680.316 111.341 680.198 111.626 679.988 111.836C679.778 112.046 679.493 112.164 679.196 112.164H637.565C637.417 112.165 637.271 112.137 637.135 112.08C636.999 112.024 636.875 111.942 636.771 111.838C636.667 111.734 636.584 111.61 636.528 111.473C636.472 111.337 636.443 111.191 636.444 111.044V96.8377C636.443 96.6904 636.472 96.5443 636.528 96.4081C636.584 96.2718 636.667 96.148 636.771 96.0438C636.875 95.9396 636.999 95.8571 637.135 95.801C637.271 95.745 637.417 95.7164 637.565 95.7171H679.18C679.477 95.7171 679.762 95.8352 679.972 96.0454C680.182 96.2555 680.3 96.5405 680.3 96.8377L680.316 111.044Z" fill="#F2F2F2"/>
<path d="M297.833 42V62.4103H271V285H327V70.8829V62.4103V42H297.833Z" fill="#575A89"/>
<path d="M150.869 179.209V144H117.51V179.209H105V286H163V179.209H150.869Z" fill="#575A89"/>
<path d="M251.258 15V26.9411H183.129V15H163V270H271V15H251.258Z" fill="#3F3D56"/>
<path opacity="0.1" d="M179 31H163V286H179V31Z" fill="black"/>
<path d="M87.2186 103.639V94H77.1683V103.639H59V286H105V103.639H87.2186Z" fill="#3F3D56"/>
<path opacity="0.1" d="M82 94H76V103H82V94Z" fill="black"/>
<path opacity="0.1" d="M64 103H59V286H64V103Z" fill="black"/>
<path opacity="0.1" d="M267 129H251V286H267V129Z" fill="black"/>
<path opacity="0.1" d="M105 103H90V137H105V103Z" fill="black"/>
<path d="M247 159H226V168H247V159Z" fill="#FF6584"/>
<path d="M92 146H71V155H92V146Z" fill="#FF6584"/>
<path opacity="0.1" d="M153 187H116V203H153V187Z" fill="black"/>
<path opacity="0.1" d="M315 80H278V96H315V80Z" fill="black"/>
<path opacity="0.1" d="M315 113H278V128H315V113Z" fill="black"/>
<path opacity="0.1" d="M315 146H278V161H315V146Z" fill="black"/>
<path opacity="0.1" d="M315 179H278V194H315V179Z" fill="black"/>
<path opacity="0.1" d="M315 211H278V227H315V211Z" fill="black"/>
<path d="M339.723 149.996V108H312.664V149.996H303V286H349V149.996H339.723Z" fill="#3F3D56"/>
<path opacity="0.1" d="M321 108H313V150H321V108Z" fill="black"/>
<path opacity="0.1" d="M311 150H303V286H311V150Z" fill="black"/>
<path d="M348 198H327V207H348V198Z" fill="#FF6584"/>
<path d="M92 113.802C92 148.044 71.4051 160 46 160C20.5949 160 0 148.044 0 113.802C0 79.5608 46 36 46 36C46 36 92 79.5608 92 113.802Z" fill="#F0C146"/>
<path d="M1537.7 219.352L1538.17 190.552L1558 154.923L1538.25 186.034L1538.46 173.085L1552.13 147.308L1538.52 169.658V169.659L1538.9 146.368L1553.54 125.846L1538.96 142.706L1539.2 100L1537.69 156.535L1537.82 154.203L1522.94 131.835L1537.58 158.679L1536.19 184.69L1536.15 184L1519 160.462L1536.1 186.439L1535.93 189.692L1535.89 189.741L1535.91 190.008L1532.39 256H1537.09L1537.65 221.914L1554.71 196L1537.7 219.352Z" fill="#3F3D56"/>
<path d="M972.503 100.607V63H951.615V38.5714H937.476V63H916.588V100.607H905.019V16.0714H881.56V8.03571H850.389V0H819.539V8.03571H790.296V16.0714H764.909V100.286H751.412V62.6786H730.524V38.25H716.385V62.6786H695.497V100.286H682V233.679H712.85V186.429H734.059V233.679H816.968V178.714H852.96V233.679H903.091V234H933.941V186.75H955.15V234H986V100.607H972.503ZM693.087 116.679H705.298V126.321H693.087V116.679ZM693.247 143.679H705.459V153.321H693.247V143.679ZM705.619 180.321H693.408V170.679H705.619V180.321ZM737.594 93.2143H709.315V87.4286H737.594V93.2143ZM737.594 84.8571H709.315V79.0714H737.594V84.8571ZM737.594 76.5H709.315V70.7143H737.594V76.5ZM741.611 116.679H753.822V126.321H741.611V116.679ZM741.772 143.679H753.983V153.321H741.772V143.679ZM754.144 180.321H741.932V170.679H754.144V180.321ZM804.114 164.25H781.619V154.286H804.114V164.25ZM804.114 135.643H781.619V125.679H804.114V135.643ZM804.114 107.036H781.619V97.0714H804.114V107.036ZM804.114 78.4286H781.619V68.4643H804.114V78.4286ZM804.114 49.8214H781.619V39.8571H804.114V49.8214ZM846.211 164.25H823.717V154.286H846.211V164.25ZM846.211 135.643H823.717V125.679H846.211V135.643ZM846.211 107.036H823.717V97.0714H846.211V107.036ZM846.211 78.4286H823.717V68.4643H846.211V78.4286ZM846.211 49.8214H823.717V39.8571H846.211V49.8214ZM888.309 164.25H865.814V154.286H888.309V164.25ZM888.309 135.643H865.814V125.679H888.309V135.643ZM888.309 107.036H865.814V97.0714H888.309V107.036ZM888.309 78.4286H865.814V68.4643H888.309V78.4286ZM888.309 49.8214H865.814V39.8571H888.309V49.8214ZM914.178 117H926.389V126.643H914.178V117ZM914.338 144H926.55V153.643H914.338V144ZM926.71 180.643H914.499V171H926.71V180.643ZM958.685 93.5357H930.406V87.75H958.685V93.5357ZM958.685 85.1786H930.406V79.3929H958.685V85.1786ZM958.685 76.8214H930.406V71.0357H958.685V76.8214ZM962.702 117H974.913V126.643H962.702V117ZM962.863 144H975.074V153.643H962.863V144ZM975.235 180.643H963.023V171H975.235V180.643Z" fill="#F2F2F2"/>
<path d="M1948.5 152.607V115H1927.62V90.5714H1913.48V115H1892.59V152.607H1881.02V68.0714H1857.56V60.0357H1826.39V52H1795.54V60.0357H1766.3V68.0714H1740.91V152.286H1727.41V114.679H1706.52V90.25H1692.38V114.679H1671.5V152.286H1658V285.679H1688.85V238.429H1710.06V285.679H1792.97V230.714H1828.96V285.679H1879.09V286H1909.94V238.75H1931.15V286H1962V152.607H1948.5ZM1669.09 168.679H1681.3V178.321H1669.09V168.679ZM1669.25 195.679H1681.46V205.321H1669.25V195.679ZM1681.62 232.321H1669.41V222.679H1681.62V232.321ZM1713.59 145.214H1685.32V139.429H1713.59V145.214ZM1713.59 136.857H1685.32V131.071H1713.59V136.857ZM1713.59 128.5H1685.32V122.714H1713.59V128.5ZM1717.61 168.679H1729.82V178.321H1717.61V168.679ZM1717.77 195.679H1729.98V205.321H1717.77V195.679ZM1730.14 232.321H1717.93V222.679H1730.14V232.321ZM1780.11 216.25H1757.62V206.286H1780.11V216.25ZM1780.11 187.643H1757.62V177.679H1780.11V187.643ZM1780.11 159.036H1757.62V149.071H1780.11V159.036ZM1780.11 130.429H1757.62V120.464H1780.11V130.429ZM1780.11 101.821H1757.62V91.8571H1780.11V101.821ZM1822.21 216.25H1799.72V206.286H1822.21V216.25ZM1822.21 187.643H1799.72V177.679H1822.21V187.643ZM1822.21 159.036H1799.72V149.071H1822.21V159.036ZM1822.21 130.429H1799.72V120.464H1822.21V130.429ZM1822.21 101.821H1799.72V91.8571H1822.21V101.821ZM1864.31 216.25H1841.81V206.286H1864.31V216.25ZM1864.31 187.643H1841.81V177.679H1864.31V187.643ZM1864.31 159.036H1841.81V149.071H1864.31V159.036ZM1864.31 130.429H1841.81V120.464H1864.31V130.429ZM1864.31 101.821H1841.81V91.8571H1864.31V101.821ZM1890.18 169H1902.39V178.643H1890.18V169ZM1890.34 196H1902.55V205.643H1890.34V196ZM1902.71 232.643H1890.5V223H1902.71V232.643ZM1934.68 145.536H1906.41V139.75H1934.68V145.536ZM1934.68 137.179H1906.41V131.393H1934.68V137.179ZM1934.68 128.821H1906.41V123.036H1934.68V128.821ZM1938.7 169H1950.91V178.643H1938.7V169ZM1938.86 196H1951.07V205.643H1938.86V196ZM1951.23 232.643H1939.02V223H1951.23V232.643Z" fill="#F2F2F2"/>
<path d="M1342.88 64.458H1236.56V41.4627C1236.56 40.7399 1236.42 40.0242 1236.14 39.3564C1235.87 38.6885 1235.46 38.0817 1234.95 37.5707C1234.44 37.0597 1233.83 36.6544 1233.17 36.3782C1232.5 36.1019 1231.78 35.9601 1231.06 35.9608H1199.84V11.4626C1199.84 10.5442 1199.48 9.66352 1198.83 9.01417C1198.18 8.36481 1197.3 8 1196.38 8H1156.15C1155.23 8.0014 1154.35 8.36666 1153.7 9.01571C1153.05 9.66477 1152.68 10.5447 1152.68 11.4626V35.9608H1116C1115.27 35.9587 1114.56 36.0995 1113.89 36.375C1113.22 36.6506 1112.61 37.0555 1112.1 37.5666C1111.58 38.0777 1111.18 38.6849 1110.9 39.3535C1110.62 40.0221 1110.48 40.7388 1110.48 41.4627V64.442H1009.12C1008.82 64.4434 1008.54 64.5621 1008.33 64.7721C1008.12 64.9821 1008 65.2663 1008 65.5626V370.879C1008 371.176 1008.12 371.46 1008.33 371.67C1008.54 371.88 1008.82 371.999 1009.12 372H1076.49C1076.79 371.999 1077.08 371.88 1077.29 371.67C1077.5 371.46 1077.61 371.176 1077.62 370.879V329.785C1077.62 329.489 1077.73 329.204 1077.94 328.995C1078.15 328.785 1078.44 328.666 1078.74 328.665H1107.2C1107.49 328.666 1107.78 328.785 1107.99 328.995C1108.2 329.205 1108.31 329.489 1108.31 329.785V370.858C1108.31 371.154 1108.43 371.437 1108.64 371.647C1108.84 371.857 1109.13 371.976 1109.42 371.979H1242.58C1242.87 371.976 1243.16 371.857 1243.36 371.647C1243.57 371.438 1243.69 371.154 1243.69 370.858V329.785C1243.69 329.49 1243.81 329.207 1244.02 328.997C1244.22 328.787 1244.51 328.668 1244.8 328.665H1273.26C1273.56 328.665 1273.85 328.783 1274.06 328.993C1274.27 329.203 1274.38 329.488 1274.38 329.785V370.858C1274.39 371.155 1274.5 371.439 1274.71 371.649C1274.92 371.859 1275.21 371.977 1275.51 371.979H1342.88C1343.18 371.976 1343.46 371.857 1343.67 371.647C1343.88 371.438 1344 371.154 1344 370.858V65.5785C1344 65.2822 1343.88 64.998 1343.67 64.788C1343.46 64.578 1343.18 64.4594 1342.88 64.458ZM1065.55 314.422C1065.55 314.715 1065.43 314.997 1065.22 315.205C1065.02 315.413 1064.73 315.53 1064.44 315.531H1022.82C1022.67 315.532 1022.53 315.504 1022.39 315.448C1022.26 315.393 1022.14 315.311 1022.03 315.208C1021.93 315.105 1021.85 314.983 1021.79 314.848C1021.73 314.712 1021.71 314.568 1021.71 314.422V300.205C1021.7 300.058 1021.73 299.912 1021.79 299.776C1021.84 299.64 1021.93 299.517 1022.03 299.413C1022.13 299.309 1022.26 299.226 1022.39 299.17C1022.53 299.113 1022.67 299.084 1022.82 299.084H1064.44C1064.74 299.087 1065.02 299.206 1065.23 299.416C1065.43 299.626 1065.55 299.909 1065.55 300.205V314.422ZM1065.55 277.687C1065.55 277.982 1065.43 278.265 1065.23 278.474C1065.02 278.683 1064.74 278.801 1064.44 278.803H1022.82C1022.67 278.803 1022.53 278.774 1022.39 278.717C1022.26 278.661 1022.13 278.578 1022.03 278.474C1021.93 278.37 1021.84 278.246 1021.79 278.111C1021.73 277.975 1021.7 277.829 1021.71 277.682V263.481C1021.7 263.334 1021.73 263.189 1021.79 263.053C1021.84 262.917 1021.93 262.793 1022.03 262.689C1022.13 262.585 1022.26 262.503 1022.39 262.446C1022.53 262.39 1022.67 262.361 1022.82 262.361H1064.44C1064.59 262.361 1064.73 262.391 1064.87 262.448C1065 262.504 1065.12 262.587 1065.23 262.691C1065.33 262.795 1065.41 262.919 1065.47 263.054C1065.52 263.19 1065.55 263.335 1065.55 263.481V277.687ZM1065.55 240.964C1065.55 241.259 1065.43 241.542 1065.23 241.751C1065.02 241.96 1064.74 242.078 1064.44 242.079H1022.82C1022.52 242.079 1022.24 241.962 1022.03 241.753C1021.82 241.543 1021.71 241.26 1021.71 240.964V226.758C1021.7 226.611 1021.73 226.465 1021.79 226.33C1021.84 226.194 1021.93 226.07 1022.03 225.966C1022.13 225.862 1022.26 225.779 1022.39 225.723C1022.53 225.666 1022.67 225.637 1022.82 225.637H1064.44C1064.74 225.64 1065.02 225.759 1065.23 225.969C1065.43 226.179 1065.55 226.463 1065.55 226.758V240.964ZM1065.55 204.23C1065.55 204.376 1065.52 204.521 1065.47 204.656C1065.41 204.792 1065.33 204.915 1065.23 205.018C1065.12 205.122 1065 205.204 1064.87 205.26C1064.73 205.316 1064.59 205.345 1064.44 205.345H1022.82C1022.67 205.346 1022.53 205.318 1022.39 205.262C1022.26 205.206 1022.13 205.124 1022.03 205.02C1021.93 204.916 1021.84 204.793 1021.79 204.658C1021.73 204.522 1021.7 204.377 1021.71 204.23V190.019C1021.7 189.872 1021.73 189.727 1021.79 189.591C1021.84 189.455 1021.93 189.332 1022.03 189.228C1022.13 189.125 1022.26 189.043 1022.39 188.987C1022.53 188.931 1022.67 188.903 1022.82 188.903H1064.44C1064.59 188.903 1064.73 188.932 1064.87 188.988C1065 189.044 1065.12 189.127 1065.23 189.23C1065.33 189.334 1065.41 189.457 1065.47 189.592C1065.52 189.728 1065.55 189.872 1065.55 190.019V204.23ZM1065.55 167.501C1065.55 167.797 1065.43 168.08 1065.23 168.29C1065.02 168.5 1064.74 168.619 1064.44 168.622H1022.82C1022.67 168.622 1022.53 168.593 1022.39 168.536C1022.26 168.48 1022.13 168.397 1022.03 168.293C1021.93 168.189 1021.84 168.066 1021.79 167.93C1021.73 167.794 1021.7 167.648 1021.71 167.501V153.285C1021.71 153.138 1021.73 152.994 1021.79 152.859C1021.85 152.724 1021.93 152.601 1022.03 152.498C1022.14 152.395 1022.26 152.313 1022.39 152.258C1022.53 152.202 1022.67 152.174 1022.82 152.175H1064.44C1064.73 152.176 1065.02 152.293 1065.22 152.501C1065.43 152.709 1065.55 152.991 1065.55 153.285V167.501ZM1065.55 130.778C1065.55 131.072 1065.43 131.353 1065.22 131.561C1065.02 131.769 1064.73 131.886 1064.44 131.888H1022.82C1022.67 131.888 1022.53 131.86 1022.39 131.805C1022.26 131.749 1022.14 131.668 1022.03 131.565C1021.93 131.461 1021.85 131.339 1021.79 131.204C1021.73 131.069 1021.71 130.924 1021.71 130.778V116.561C1021.71 116.265 1021.82 115.981 1022.03 115.771C1022.24 115.561 1022.52 115.442 1022.82 115.441H1064.44C1064.74 115.443 1065.02 115.563 1065.23 115.773C1065.43 115.982 1065.55 116.266 1065.55 116.561V130.778ZM1065.55 94.0438C1065.55 94.1903 1065.52 94.3354 1065.47 94.471C1065.41 94.6066 1065.33 94.7299 1065.23 94.834C1065.12 94.938 1065 95.0208 1064.87 95.0774C1064.73 95.1341 1064.59 95.1637 1064.44 95.1644H1022.82C1022.67 95.1644 1022.53 95.1353 1022.39 95.079C1022.26 95.0226 1022.13 94.94 1022.03 94.8358C1021.93 94.7317 1021.84 94.6081 1021.79 94.4722C1021.73 94.3363 1021.7 94.1907 1021.71 94.0438V79.8377C1021.7 79.6908 1021.73 79.5452 1021.79 79.4093C1021.84 79.2734 1021.93 79.1498 1022.03 79.0457C1022.13 78.9416 1022.26 78.8589 1022.39 78.8026C1022.53 78.7462 1022.67 78.7171 1022.82 78.7171H1064.44C1064.59 78.7178 1064.73 78.7474 1064.87 78.8041C1065 78.8608 1065.12 78.9435 1065.23 79.0476C1065.33 79.1516 1065.41 79.2749 1065.47 79.4105C1065.52 79.5461 1065.55 79.6913 1065.55 79.8377V94.0438ZM1164.21 314.437C1164.21 314.584 1164.18 314.728 1164.13 314.863C1164.07 314.998 1163.99 315.121 1163.88 315.224C1163.78 315.327 1163.66 315.409 1163.52 315.464C1163.39 315.52 1163.24 315.548 1163.1 315.547H1121.48C1121.19 315.547 1120.9 315.431 1120.69 315.223C1120.48 315.015 1120.36 314.733 1120.36 314.437V300.205C1120.36 299.908 1120.48 299.624 1120.69 299.414C1120.9 299.204 1121.18 299.086 1121.48 299.084H1163.1C1163.24 299.084 1163.39 299.113 1163.52 299.17C1163.66 299.226 1163.78 299.309 1163.89 299.413C1163.99 299.517 1164.07 299.64 1164.13 299.776C1164.18 299.912 1164.21 300.058 1164.21 300.205V314.437ZM1164.21 277.703C1164.21 277.85 1164.18 277.996 1164.13 278.132C1164.07 278.268 1163.99 278.391 1163.89 278.495C1163.78 278.6 1163.66 278.682 1163.52 278.739C1163.39 278.795 1163.24 278.824 1163.1 278.824H1121.48C1121.18 278.824 1120.9 278.706 1120.69 278.496C1120.48 278.286 1120.36 278.001 1120.36 277.703V263.481C1120.36 263.184 1120.48 262.899 1120.69 262.689C1120.9 262.479 1121.18 262.361 1121.48 262.361H1163.1C1163.24 262.361 1163.39 262.39 1163.52 262.446C1163.66 262.503 1163.78 262.585 1163.89 262.689C1163.99 262.793 1164.07 262.917 1164.13 263.053C1164.18 263.189 1164.21 263.334 1164.21 263.481V277.703ZM1164.21 240.98C1164.21 241.276 1164.09 241.559 1163.89 241.769C1163.68 241.978 1163.39 242.095 1163.1 242.095H1121.48C1121.19 242.095 1120.9 241.978 1120.69 241.769C1120.48 241.56 1120.36 241.276 1120.36 240.98V226.758C1120.36 226.461 1120.48 226.177 1120.69 225.967C1120.9 225.757 1121.18 225.639 1121.48 225.637H1163.1C1163.24 225.637 1163.39 225.666 1163.52 225.723C1163.66 225.779 1163.78 225.862 1163.89 225.966C1163.99 226.07 1164.07 226.194 1164.13 226.33C1164.18 226.465 1164.21 226.611 1164.21 226.758V240.98ZM1164.21 204.246C1164.21 204.393 1164.18 204.538 1164.13 204.674C1164.07 204.809 1163.99 204.932 1163.89 205.036C1163.78 205.14 1163.66 205.222 1163.52 205.278C1163.39 205.334 1163.24 205.362 1163.1 205.361H1121.48C1121.33 205.362 1121.19 205.334 1121.05 205.278C1120.92 205.222 1120.79 205.14 1120.69 205.036C1120.59 204.933 1120.5 204.81 1120.45 204.674C1120.39 204.538 1120.36 204.393 1120.36 204.246V190.019C1120.36 189.872 1120.39 189.726 1120.45 189.591C1120.5 189.455 1120.59 189.332 1120.69 189.228C1120.79 189.124 1120.92 189.042 1121.05 188.987C1121.19 188.931 1121.33 188.903 1121.48 188.903H1163.1C1163.24 188.903 1163.39 188.931 1163.52 188.987C1163.66 189.043 1163.78 189.125 1163.89 189.228C1163.99 189.332 1164.07 189.455 1164.13 189.591C1164.18 189.727 1164.21 189.872 1164.21 190.019V204.246ZM1164.21 167.517C1164.21 167.664 1164.18 167.81 1164.13 167.946C1164.07 168.082 1163.99 168.205 1163.89 168.309C1163.78 168.413 1163.66 168.496 1163.52 168.552C1163.39 168.609 1163.24 168.638 1163.1 168.638H1121.48C1121.18 168.636 1120.9 168.518 1120.69 168.308C1120.48 168.098 1120.36 167.814 1120.36 167.517V153.285C1120.36 152.989 1120.48 152.707 1120.69 152.499C1120.9 152.291 1121.19 152.175 1121.48 152.175H1163.1C1163.24 152.174 1163.39 152.202 1163.52 152.258C1163.66 152.313 1163.78 152.395 1163.88 152.498C1163.99 152.601 1164.07 152.724 1164.13 152.859C1164.18 152.994 1164.21 153.138 1164.21 153.285V167.517ZM1164.21 130.794C1164.21 130.94 1164.18 131.085 1164.13 131.22C1164.07 131.355 1163.99 131.477 1163.88 131.581C1163.78 131.684 1163.66 131.765 1163.52 131.821C1163.39 131.876 1163.24 131.904 1163.1 131.904H1121.48C1121.19 131.904 1120.9 131.787 1120.69 131.579C1120.48 131.371 1120.36 131.089 1120.36 130.794V116.561C1120.36 116.264 1120.48 115.98 1120.69 115.77C1120.9 115.56 1121.18 115.442 1121.48 115.441H1163.1C1163.39 115.442 1163.68 115.561 1163.89 115.771C1164.09 115.981 1164.21 116.265 1164.21 116.561V130.794ZM1164.21 94.0597C1164.21 94.2066 1164.18 94.3522 1164.13 94.4882C1164.07 94.6241 1163.99 94.7477 1163.89 94.8518C1163.78 94.9559 1163.66 95.0385 1163.52 95.0949C1163.39 95.1513 1163.24 95.1803 1163.1 95.1803H1121.48C1121.18 95.1803 1120.9 95.0622 1120.69 94.8521C1120.48 94.642 1120.36 94.3569 1120.36 94.0597V79.8377C1120.36 79.5405 1120.48 79.2555 1120.69 79.0454C1120.9 78.8352 1121.18 78.7171 1121.48 78.7171H1163.1C1163.24 78.7171 1163.39 78.7462 1163.52 78.8026C1163.66 78.8589 1163.78 78.9416 1163.89 79.0457C1163.99 79.1498 1164.07 79.2734 1164.13 79.4093C1164.18 79.5452 1164.21 79.6908 1164.21 79.8377V94.0597ZM1231.65 314.453C1231.65 314.6 1231.62 314.745 1231.56 314.88C1231.51 315.015 1231.42 315.137 1231.32 315.24C1231.22 315.344 1231.09 315.425 1230.96 315.48C1230.82 315.536 1230.68 315.564 1230.53 315.563H1188.9C1188.6 315.563 1188.32 315.447 1188.11 315.239C1187.9 315.031 1187.78 314.748 1187.78 314.453V300.205C1187.78 299.909 1187.9 299.624 1188.11 299.414C1188.32 299.204 1188.6 299.086 1188.9 299.084H1230.51C1230.81 299.084 1231.1 299.202 1231.31 299.412C1231.52 299.623 1231.63 299.908 1231.63 300.205L1231.65 314.453ZM1231.65 277.719C1231.65 277.867 1231.62 278.013 1231.57 278.149C1231.51 278.285 1231.43 278.409 1231.32 278.513C1231.22 278.617 1231.09 278.7 1230.96 278.756C1230.82 278.812 1230.68 278.841 1230.53 278.84H1188.9C1188.6 278.839 1188.32 278.72 1188.11 278.51C1187.9 278.3 1187.78 278.016 1187.78 277.719V263.481C1187.78 263.185 1187.9 262.901 1188.11 262.691C1188.32 262.481 1188.6 262.362 1188.9 262.361H1230.51C1230.66 262.36 1230.81 262.389 1230.94 262.445C1231.08 262.501 1231.2 262.583 1231.31 262.687C1231.41 262.792 1231.49 262.915 1231.55 263.052C1231.61 263.188 1231.63 263.334 1231.63 263.481L1231.65 277.719ZM1231.65 240.996C1231.65 241.292 1231.53 241.576 1231.32 241.785C1231.11 241.994 1230.83 242.111 1230.53 242.111H1188.9C1188.6 242.11 1188.32 241.992 1188.11 241.783C1187.9 241.574 1187.78 241.291 1187.78 240.996V226.758C1187.78 226.462 1187.9 226.177 1188.11 225.967C1188.32 225.757 1188.6 225.639 1188.9 225.637H1230.51C1230.81 225.637 1231.1 225.755 1231.31 225.966C1231.52 226.176 1231.63 226.461 1231.63 226.758L1231.65 240.996ZM1231.65 204.262C1231.65 204.409 1231.62 204.554 1231.56 204.69C1231.51 204.826 1231.43 204.949 1231.32 205.052C1231.22 205.156 1231.09 205.238 1230.96 205.294C1230.82 205.349 1230.68 205.378 1230.53 205.377H1188.9C1188.75 205.377 1188.61 205.348 1188.47 205.292C1188.34 205.236 1188.21 205.154 1188.11 205.05C1188.01 204.947 1187.92 204.824 1187.87 204.689C1187.81 204.553 1187.78 204.408 1187.78 204.262V190.019C1187.78 189.872 1187.81 189.727 1187.87 189.592C1187.92 189.456 1188.01 189.334 1188.11 189.23C1188.21 189.126 1188.34 189.044 1188.47 188.988C1188.61 188.932 1188.75 188.903 1188.9 188.903H1230.51C1230.66 188.903 1230.81 188.931 1230.94 188.987C1231.08 189.042 1231.2 189.124 1231.31 189.228C1231.41 189.332 1231.49 189.455 1231.55 189.591C1231.6 189.726 1231.63 189.872 1231.63 190.019L1231.65 204.262ZM1231.65 167.533C1231.65 167.83 1231.53 168.115 1231.32 168.325C1231.11 168.536 1230.83 168.654 1230.53 168.654H1188.9C1188.6 168.652 1188.32 168.534 1188.11 168.324C1187.9 168.114 1187.78 167.829 1187.78 167.533V153.285C1187.78 152.99 1187.9 152.707 1188.11 152.499C1188.32 152.291 1188.6 152.175 1188.9 152.175H1230.51C1230.66 152.174 1230.8 152.202 1230.94 152.257C1231.08 152.313 1231.2 152.394 1231.3 152.498C1231.41 152.601 1231.49 152.723 1231.55 152.858C1231.6 152.993 1231.63 153.138 1231.63 153.285L1231.65 167.533ZM1231.65 130.81C1231.65 130.956 1231.62 131.101 1231.56 131.236C1231.51 131.371 1231.42 131.494 1231.32 131.597C1231.22 131.7 1231.09 131.781 1230.96 131.837C1230.82 131.892 1230.68 131.92 1230.53 131.92H1188.9C1188.6 131.92 1188.32 131.803 1188.11 131.595C1187.9 131.387 1187.78 131.105 1187.78 130.81V116.561C1187.78 116.265 1187.9 115.982 1188.11 115.772C1188.32 115.562 1188.6 115.443 1188.9 115.441H1230.51C1230.81 115.442 1231.09 115.56 1231.3 115.77C1231.51 115.98 1231.63 116.264 1231.63 116.561L1231.65 130.81ZM1231.65 94.0757C1231.65 94.223 1231.62 94.369 1231.57 94.5053C1231.51 94.6416 1231.43 94.7654 1231.32 94.8696C1231.22 94.9738 1231.09 95.0563 1230.96 95.1124C1230.82 95.1684 1230.68 95.1969 1230.53 95.1962H1188.9C1188.6 95.1948 1188.32 95.0761 1188.11 94.8661C1187.9 94.6562 1187.78 94.3719 1187.78 94.0757V79.8377C1187.78 79.5414 1187.9 79.2572 1188.11 79.0472C1188.32 78.8372 1188.6 78.7186 1188.9 78.7171H1230.51C1230.66 78.7164 1230.81 78.745 1230.94 78.801C1231.08 78.8571 1231.2 78.9396 1231.31 79.0438C1231.41 79.148 1231.49 79.2718 1231.55 79.4081C1231.61 79.5443 1231.63 79.6904 1231.63 79.8377L1231.65 94.0757ZM1330.32 314.422C1330.31 314.717 1330.19 314.999 1329.98 315.207C1329.77 315.415 1329.49 315.531 1329.2 315.531H1287.56C1287.42 315.532 1287.27 315.504 1287.14 315.449C1287 315.393 1286.88 315.312 1286.77 315.209C1286.67 315.105 1286.59 314.983 1286.53 314.848C1286.47 314.713 1286.44 314.568 1286.44 314.422V300.205C1286.44 299.908 1286.56 299.623 1286.77 299.412C1286.98 299.202 1287.27 299.084 1287.56 299.084H1329.18C1329.33 299.083 1329.47 299.111 1329.61 299.166C1329.75 299.222 1329.88 299.304 1329.98 299.408C1330.09 299.512 1330.17 299.636 1330.23 299.773C1330.29 299.91 1330.32 300.056 1330.32 300.205V314.422ZM1330.32 277.687C1330.32 277.985 1330.2 278.27 1329.99 278.48C1329.78 278.69 1329.49 278.808 1329.2 278.808H1287.56C1287.42 278.809 1287.27 278.78 1287.13 278.724C1287 278.668 1286.87 278.586 1286.77 278.481C1286.67 278.377 1286.58 278.253 1286.53 278.117C1286.47 277.981 1286.44 277.835 1286.44 277.687V263.481C1286.44 263.334 1286.47 263.188 1286.53 263.052C1286.58 262.915 1286.67 262.792 1286.77 262.687C1286.87 262.583 1287 262.501 1287.13 262.445C1287.27 262.389 1287.42 262.36 1287.56 262.361H1329.18C1329.48 262.361 1329.76 262.479 1329.97 262.689C1330.18 262.899 1330.3 263.184 1330.3 263.481L1330.32 277.687ZM1330.32 240.964C1330.31 241.26 1330.2 241.544 1329.99 241.753C1329.78 241.962 1329.49 242.079 1329.2 242.079H1287.56C1287.27 242.079 1286.98 241.962 1286.77 241.753C1286.56 241.544 1286.45 241.26 1286.44 240.964V226.758C1286.44 226.461 1286.56 226.176 1286.77 225.966C1286.98 225.755 1287.27 225.637 1287.56 225.637H1329.18C1329.33 225.636 1329.47 225.664 1329.61 225.72C1329.75 225.775 1329.88 225.857 1329.98 225.962C1330.09 226.066 1330.17 226.19 1330.23 226.326C1330.29 226.463 1330.32 226.61 1330.32 226.758V240.964ZM1330.32 204.23C1330.32 204.377 1330.29 204.522 1330.23 204.658C1330.17 204.794 1330.09 204.917 1329.99 205.02C1329.88 205.124 1329.76 205.206 1329.62 205.262C1329.49 205.318 1329.34 205.346 1329.2 205.345H1287.56C1287.42 205.346 1287.27 205.318 1287.14 205.262C1287 205.206 1286.88 205.124 1286.77 205.02C1286.67 204.917 1286.59 204.794 1286.53 204.658C1286.47 204.522 1286.44 204.377 1286.44 204.23V190.019C1286.44 189.872 1286.47 189.726 1286.53 189.591C1286.59 189.455 1286.67 189.332 1286.77 189.228C1286.88 189.124 1287 189.042 1287.14 188.987C1287.27 188.931 1287.42 188.903 1287.56 188.903H1329.18C1329.33 188.903 1329.47 188.931 1329.61 188.987C1329.74 189.042 1329.87 189.124 1329.97 189.228C1330.08 189.332 1330.16 189.455 1330.21 189.591C1330.27 189.726 1330.3 189.872 1330.3 190.019L1330.32 204.23ZM1330.32 167.501C1330.31 167.798 1330.2 168.082 1329.99 168.292C1329.78 168.502 1329.49 168.62 1329.2 168.622H1287.56C1287.27 168.622 1286.98 168.504 1286.77 168.294C1286.56 168.083 1286.44 167.798 1286.44 167.501V153.285C1286.44 153.138 1286.47 152.993 1286.53 152.858C1286.59 152.723 1286.67 152.601 1286.77 152.498C1286.88 152.394 1287 152.313 1287.14 152.257C1287.27 152.202 1287.42 152.174 1287.56 152.175H1329.18C1329.47 152.175 1329.76 152.291 1329.97 152.499C1330.18 152.707 1330.3 152.989 1330.3 153.285L1330.32 167.501ZM1330.32 130.778C1330.31 131.073 1330.19 131.355 1329.98 131.563C1329.77 131.771 1329.49 131.888 1329.2 131.888H1287.56C1287.42 131.888 1287.27 131.86 1287.14 131.805C1287 131.75 1286.88 131.668 1286.77 131.565C1286.67 131.462 1286.59 131.339 1286.53 131.204C1286.47 131.069 1286.44 130.924 1286.44 130.778V116.561C1286.45 116.264 1286.56 115.98 1286.77 115.77C1286.98 115.56 1287.27 115.442 1287.56 115.441H1329.18C1329.33 115.439 1329.47 115.467 1329.61 115.523C1329.75 115.578 1329.88 115.661 1329.98 115.765C1330.09 115.869 1330.17 115.993 1330.23 116.129C1330.29 116.266 1330.32 116.413 1330.32 116.561V130.778ZM1330.32 94.0438C1330.32 94.341 1330.2 94.626 1329.99 94.8362C1329.78 95.0463 1329.49 95.1644 1329.2 95.1644H1287.56C1287.42 95.1651 1287.27 95.1366 1287.13 95.0805C1287 95.0244 1286.87 94.9419 1286.77 94.8377C1286.67 94.7335 1286.58 94.6097 1286.53 94.4735C1286.47 94.3372 1286.44 94.1912 1286.44 94.0438V79.8377C1286.44 79.6904 1286.47 79.5443 1286.53 79.4081C1286.58 79.2718 1286.67 79.148 1286.77 79.0438C1286.87 78.9396 1287 78.8571 1287.13 78.801C1287.27 78.745 1287.42 78.7164 1287.56 78.7171H1329.18C1329.48 78.7171 1329.76 78.8352 1329.97 79.0454C1330.18 79.2555 1330.3 79.5405 1330.3 79.8377L1330.32 94.0438Z" fill="#F2F2F2"/>
<path d="M976.833 47V67.4103H950V290H1006V75.8829V67.4103V47H976.833Z" fill="#575A89"/>
<path d="M829.869 184.209V149H796.51V184.209H784V291H842V184.209H829.869Z" fill="#575A89"/>
<path d="M1692.26 62V73.9411H1624.13V62H1604V317H1712V62H1692.26Z" fill="#3F3D56"/>
<path opacity="0.1" d="M858 36H842V291H858V36Z" fill="black"/>
<path d="M766.219 108.639V99H756.168V108.639H738V291H784V108.639H766.219Z" fill="#3F3D56"/>
<path opacity="0.1" d="M761 99H755V108H761V99Z" fill="black"/>
<path opacity="0.1" d="M743 108H738V291H743V108Z" fill="black"/>
<path opacity="0.1" d="M946 134H930V291H946V134Z" fill="black"/>
<path opacity="0.1" d="M784 108H769V142H784V108Z" fill="black"/>
<path d="M1688 144H1667V153H1688V144Z" fill="#FF6584"/>
<path d="M1643 210H1621V219H1643V210Z" fill="#FF6584"/>
<path d="M771 151H750V160H771V151Z" fill="#FF6584"/>
<path opacity="0.1" d="M832 192H795V208H832V192Z" fill="black"/>
<path opacity="0.1" d="M994 85H957V101H994V85Z" fill="black"/>
<path opacity="0.1" d="M994 118H957V133H994V118Z" fill="black"/>
<path opacity="0.1" d="M994 151H957V166H994V151Z" fill="black"/>
<path opacity="0.1" d="M994 184H957V199H994V184Z" fill="black"/>
<path d="M1018.72 154.996V113H991.664V154.996H982V291H1028V154.996H1018.72Z" fill="#3F3D56"/>
<path opacity="0.1" d="M1000 113H992V155H1000V113Z" fill="black"/>
<path opacity="0.1" d="M990 155H982V291H990V155Z" fill="black"/>
<path d="M1027 203H1006V212H1027V203Z" fill="#FF6584"/>
<path d="M1585 105.528C1585 137.008 1564.41 148 1539 148C1513.59 148 1493 137.008 1493 105.528C1493 74.0478 1539 34 1539 34C1539 34 1585 74.0478 1585 105.528Z" fill="#F0C146"/>
<path d="M1598.5 143.607V106H1577.62V81.5714H1563.48V106H1542.59V143.607H1531.02V59.0714H1507.56V51.0357H1476.39V43H1445.54V51.0357H1416.3V59.0714H1390.91V143.286H1377.41V105.679H1356.52V81.25H1342.38V105.679H1321.5V143.286H1308V276.679H1338.85V229.429H1360.06V276.679H1442.97V221.714H1478.96V276.679H1529.09V277H1559.94V229.75H1581.15V277H1612V143.607H1598.5ZM1319.09 159.679H1331.3V169.321H1319.09V159.679ZM1319.25 186.679H1331.46V196.321H1319.25V186.679ZM1331.62 223.321H1319.41V213.679H1331.62V223.321ZM1363.59 136.214H1335.32V130.429H1363.59V136.214ZM1363.59 127.857H1335.32V122.071H1363.59V127.857ZM1363.59 119.5H1335.32V113.714H1363.59V119.5ZM1367.61 159.679H1379.82V169.321H1367.61V159.679ZM1367.77 186.679H1379.98V196.321H1367.77V186.679ZM1380.14 223.321H1367.93V213.679H1380.14V223.321ZM1430.11 207.25H1407.62V197.286H1430.11V207.25ZM1430.11 178.643H1407.62V168.679H1430.11V178.643ZM1430.11 150.036H1407.62V140.071H1430.11V150.036ZM1430.11 121.429H1407.62V111.464H1430.11V121.429ZM1430.11 92.8214H1407.62V82.8571H1430.11V92.8214ZM1472.21 207.25H1449.72V197.286H1472.21V207.25ZM1472.21 178.643H1449.72V168.679H1472.21V178.643ZM1472.21 150.036H1449.72V140.071H1472.21V150.036ZM1472.21 121.429H1449.72V111.464H1472.21V121.429ZM1472.21 92.8214H1449.72V82.8571H1472.21V92.8214ZM1514.31 207.25H1491.81V197.286H1514.31V207.25ZM1514.31 178.643H1491.81V168.679H1514.31V178.643ZM1514.31 150.036H1491.81V140.071H1514.31V150.036ZM1514.31 121.429H1491.81V111.464H1514.31V121.429ZM1514.31 92.8214H1491.81V82.8571H1514.31V92.8214ZM1540.18 160H1552.39V169.643H1540.18V160ZM1540.34 187H1552.55V196.643H1540.34V187ZM1552.71 223.643H1540.5V214H1552.71V223.643ZM1584.68 136.536H1556.41V130.75H1584.68V136.536ZM1584.68 128.179H1556.41V122.393H1584.68V128.179ZM1584.68 119.821H1556.41V114.036H1584.68V119.821ZM1588.7 160H1600.91V169.643H1588.7V160ZM1588.86 187H1601.07V196.643H1588.86V187ZM1601.23 223.643H1589.02V214H1601.23V223.643Z" fill="#F2F2F2"/>
<path d="M50.6963 191.352L51.1726 162.552L71 126.923L51.2477 158.034L51.4616 145.085L65.1262 119.308L51.5185 141.658V141.659L51.9036 118.368L66.5362 97.8462L51.9642 114.706L52.205 72L50.692 128.535L50.8165 126.203L35.9393 103.835L50.5778 130.679L49.1919 156.69L49.1506 156L32 132.462L49.0986 158.439L48.9254 161.692L48.8943 161.741L48.9082 162.008L45.3915 228H50.0903L50.6539 193.914L67.7107 168L50.6963 191.352Z" fill="#3F3D56"/>
</svg>
