<svg width="223" height="99" viewBox="0 0 223 99" fill="none" xmlns="http://www.w3.org/2000/svg">
<path d="M24.96 45.192C30.5067 45.6187 34.5813 46.8987 37.184 49.032C39.7867 51.1653 41.088 53.6827 41.088 56.584C41.088 60.552 39.5307 63.624 36.416 65.8C33.3013 67.9333 28.9707 69 23.424 69C22.1867 69 21.1413 68.9787 20.288 68.936C17.472 68.8507 14.72 68.808 12.032 68.808C7.63733 68.808 4.352 68.872 2.176 69V67.72C3.584 67.6347 4.608 67.464 5.248 67.208C5.93067 66.952 6.37867 66.4613 6.592 65.736C6.848 65.0107 6.976 63.8373 6.976 62.216V30.472C6.976 28.8507 6.848 27.6773 6.592 26.952C6.37867 26.2267 5.93067 25.736 5.248 25.48C4.608 25.224 3.584 25.0533 2.176 24.968V23.688C4.352 23.816 7.59467 23.88 11.904 23.88L19.008 23.816C19.8613 23.7733 20.8427 23.752 21.952 23.752C27.072 23.752 30.976 24.6693 33.664 26.504C36.3947 28.3387 37.76 30.7707 37.76 33.8C37.76 36.2747 36.672 38.5787 34.496 40.712C32.3627 42.8453 29.184 44.296 24.96 45.064V45.192ZM21.12 24.968C19.968 24.968 19.1147 25.1173 18.56 25.416C18.048 25.7147 17.6853 26.248 17.472 27.016C17.2587 27.784 17.152 28.936 17.152 30.472V44.936H19.904C22.6773 44.936 24.6187 43.9973 25.728 42.12C26.8373 40.2 27.392 37.6613 27.392 34.504C27.392 31.304 26.88 28.9147 25.856 27.336C24.8747 25.7573 23.296 24.968 21.12 24.968ZM21.568 67.528C27.4987 67.528 30.464 63.7947 30.464 56.328C30.464 52.9573 29.6107 50.3973 27.904 48.648C26.1973 46.8987 23.5093 46.024 19.84 46.024H17.152V62.216C17.152 63.752 17.2587 64.8827 17.472 65.608C17.6853 66.3333 18.0907 66.8453 18.688 67.144C19.328 67.4 20.288 67.528 21.568 67.528ZM66.427 35.016C68.347 35.016 69.7977 35.592 70.779 36.744C71.7603 37.896 72.251 39.2827 72.251 40.904C72.251 42.4827 71.7817 43.784 70.843 44.808C69.947 45.7893 68.7523 46.28 67.259 46.28C65.8083 46.28 64.6563 45.9173 63.803 45.192C62.9497 44.424 62.523 43.4213 62.523 42.184C62.523 40.136 63.4617 38.472 65.339 37.192C65.1683 37.1493 64.9123 37.128 64.571 37.128C64.1443 37.128 63.803 37.1707 63.547 37.256C61.9257 37.512 60.539 38.4933 59.387 40.2C58.2777 41.9067 57.723 43.656 57.723 45.448V62.408C57.723 64.3707 58.1923 65.736 59.131 66.504C60.1123 67.272 61.6483 67.656 63.739 67.656V69C63.1417 69 62.651 68.9787 62.267 68.936C57.915 68.808 55.0137 68.744 53.563 68.744C52.411 68.744 49.787 68.808 45.691 68.936C45.3497 68.9787 44.923 69 44.411 69V67.656C45.947 67.656 47.0137 67.336 47.611 66.696C48.2083 66.0133 48.507 64.7973 48.507 63.048V42.888C48.507 40.9253 48.2083 39.496 47.611 38.6C47.0137 37.704 45.947 37.256 44.411 37.256V35.912C45.7763 36.04 47.099 36.104 48.379 36.104C52.1763 36.104 55.291 35.8053 57.723 35.208V41.16C58.5337 39.3253 59.707 37.8533 61.243 36.744C62.779 35.592 64.507 35.016 66.427 35.016ZM148.06 42.056C147.206 42.056 146.481 41.7787 145.884 41.224C145.286 40.6267 144.988 39.7947 144.988 38.728C144.988 37.704 145.244 36.6587 145.756 35.592C144.732 36.0187 143.878 36.5093 143.196 37.064C142.556 37.576 142.001 38.2373 141.532 39.048C142.854 40.6267 143.516 42.6747 143.516 45.192C143.516 48.5627 142.342 51.1013 139.996 52.808C137.692 54.5147 134.62 55.368 130.78 55.368H129.628C127.878 56.392 127.004 57.5227 127.004 58.76C127.004 60.1253 127.857 60.808 129.564 60.808H136.54C140.294 60.808 143.281 61.512 145.5 62.92C147.761 64.2853 148.892 66.3973 148.892 69.256C148.892 71.432 148.188 73.3947 146.78 75.144C145.414 76.936 143.324 78.3653 140.508 79.432C137.692 80.4987 134.236 81.032 130.14 81.032C126.001 81.032 122.673 80.4987 120.156 79.432C117.681 78.408 116.444 76.9147 116.444 74.952C116.444 73.6293 117.041 72.4347 118.236 71.368C119.43 70.344 121.201 69.5333 123.548 68.936L124.124 69.96C122.588 71.24 121.82 72.712 121.82 74.376C121.82 76.168 122.63 77.5333 124.252 78.472C125.873 79.4533 128.113 79.944 130.972 79.944C133.958 79.944 136.369 79.3467 138.204 78.152C140.081 76.9573 141.02 75.272 141.02 73.096C141.02 71.688 140.486 70.5787 139.42 69.768C138.396 68.9573 136.582 68.552 133.98 68.552H130.012C127.281 68.552 125.148 68.104 123.612 67.208C122.076 66.2693 121.308 64.8613 121.308 62.984C121.308 61.4053 121.862 59.9973 122.972 58.76C124.081 57.5227 125.766 56.328 128.028 55.176C124.956 54.792 122.524 53.768 120.732 52.104C118.94 50.44 118.044 48.136 118.044 45.192C118.044 41.8213 119.196 39.2827 121.5 37.576C123.846 35.8693 126.94 35.016 130.78 35.016C135.046 35.016 138.31 36.0187 140.572 38.024C141.382 36.872 142.385 35.9547 143.58 35.272C144.774 34.5893 145.99 34.248 147.228 34.248C148.508 34.248 149.51 34.632 150.236 35.4C151.004 36.1253 151.388 37.0853 151.388 38.28C151.388 39.4747 151.046 40.4133 150.364 41.096C149.724 41.736 148.956 42.056 148.06 42.056ZM130.78 54.216C131.974 54.216 132.87 53.5333 133.468 52.168C134.108 50.8027 134.428 48.4773 134.428 45.192C134.428 41.9067 134.108 39.5813 133.468 38.216C132.87 36.8507 131.974 36.168 130.78 36.168C129.585 36.168 128.668 36.8507 128.028 38.216C127.43 39.5813 127.132 41.9067 127.132 45.192C127.132 48.4773 127.43 50.8027 128.028 52.168C128.668 53.5333 129.585 54.216 130.78 54.216ZM166.091 40.968C168.011 37 171.488 35.016 176.523 35.016C179.851 35.016 182.197 35.848 183.562 37.512C184.288 38.3227 184.8 39.3893 185.099 40.712C185.44 41.992 185.611 43.6987 185.611 45.832V63.048C185.611 64.7973 185.909 66.0133 186.507 66.696C187.104 67.336 188.171 67.656 189.707 67.656V69C185.269 68.8293 182.453 68.744 181.259 68.744C179.808 68.744 177.035 68.8293 172.939 69V67.656C174.219 67.656 175.115 67.336 175.627 66.696C176.139 66.0133 176.395 64.7973 176.395 63.048V43.144C176.395 41.3947 176.096 40.072 175.499 39.176C174.944 38.28 173.92 37.832 172.427 37.832C170.635 37.832 169.12 38.536 167.883 39.944C166.688 41.3093 166.091 43.0587 166.091 45.192V63.048C166.091 64.7973 166.347 66.0133 166.859 66.696C167.371 67.336 168.267 67.656 169.547 67.656V69C165.451 68.8293 162.805 68.744 161.611 68.744C160.16 68.744 157.216 68.8293 152.779 69V67.656C154.272 67.656 155.317 67.336 155.915 66.696C156.555 66.0133 156.875 64.7973 156.875 63.048V26.632C156.875 24.6693 156.555 23.24 155.915 22.344C155.317 21.448 154.272 21 152.779 21V19.656C154.144 19.784 155.467 19.848 156.747 19.848C160.459 19.848 163.573 19.5493 166.091 18.952V40.968ZM205.028 35.912H212.58V37.192H205.028V63.048C205.028 64.328 205.241 65.2453 205.668 65.8C206.137 66.312 206.863 66.568 207.844 66.568C209.679 66.568 211.129 65.288 212.196 62.728L213.284 63.304C211.663 67.6987 208.74 69.896 204.516 69.896C201.7 69.896 199.567 69.1707 198.116 67.72C197.22 66.824 196.601 65.7147 196.26 64.392C195.961 63.0267 195.812 61.1707 195.812 58.824V37.192H190.436V35.912H195.812V27.464C199.353 27.464 202.425 26.7813 205.028 25.416V35.912Z" fill="#3F3D56"/>
<path d="M96.1016 20.5357C92.1024 20.5868 88.286 22.2244 85.4921 25.0884C82.6981 27.9524 81.1554 31.8081 81.2034 35.8073C81.3033 44.1352 96.7106 71.2894 96.7106 71.2894C96.7106 71.2894 111.462 43.75 111.362 35.4221C111.314 31.4229 109.679 27.6078 106.817 24.816C103.955 22.0243 100.101 20.4846 96.1016 20.5357ZM96.3708 42.9703C94.9887 42.988 93.6328 42.5954 92.4744 41.8422C91.316 41.0891 90.4073 40.0092 89.8631 38.7391C89.3188 37.4689 89.1636 36.0657 89.4169 34.7067C89.6703 33.3478 90.3209 32.0942 91.2865 31.1044C92.252 30.1147 93.4892 29.4332 94.8415 29.1463C96.1937 28.8594 97.6005 28.9798 98.8837 29.4924C100.167 30.0049 101.269 30.8867 102.051 32.026C102.832 33.1654 103.258 34.5111 103.275 35.8932C103.297 37.7465 102.582 39.5333 101.287 40.8605C99.9927 42.1877 98.2241 42.9466 96.3708 42.9703Z" fill="#607D8B"/>
</svg>
