<svg width="1101" height="794" viewBox="0 0 1101 794" fill="none" xmlns="http://www.w3.org/2000/svg">
<path opacity="0.1" d="M11.8489 389.016C29.2189 456.146 65.9589 514.176 124.019 542.306C244.719 600.766 516.929 570.616 720.089 536.006C825.179 518.106 917.549 468.706 984.649 399.186L11.8489 389.016Z" fill="#4285F4"/>
<path opacity="0.1" d="M1077.21 73.0257H965.739C960.449 73.0257 956.109 69.1057 956.109 64.3157C956.109 59.5257 960.449 55.5957 965.739 55.5957H985.019C979.719 55.5957 975.389 51.6757 975.389 46.8757C975.389 42.0757 979.719 38.1657 985.019 38.1657H971.259C965.959 38.1657 961.619 34.2457 961.619 29.4457C961.619 24.6457 965.959 20.7357 971.259 20.7357H1029.44C1016.53 15.3057 1001.44 11.4457 984.049 9.41571C825.399 -9.01429 768.759 3.17571 748.779 15.7057C723.875 31.5182 696.211 42.4901 667.239 48.0457C569.359 66.3157 386.309 88.2957 220.399 41.0457C137.939 17.5157 76.6487 57.2257 39.9187 123.606H1096.57C1095.19 104.316 1091.06 86.4957 1083.48 70.9057C1081.68 72.2917 1079.48 73.0379 1077.21 73.0257V73.0257Z" fill="#4285F4"/>
<path opacity="0.1" d="M2.39892 248.896C-1.88262 287.937 -0.427199 327.395 6.71892 366.016L985.399 398.406C1012.34 370.464 1035.23 338.883 1053.4 304.586L2.39892 248.896ZM389.479 332.445H370.209C375.509 332.445 379.849 336.375 379.849 341.165C379.849 345.955 375.509 349.876 370.209 349.876H258.739C253.449 349.876 249.109 345.955 249.109 341.165C249.109 336.375 253.449 332.445 258.739 332.445H278.019C272.719 332.445 268.389 328.526 268.389 323.736C268.389 318.946 272.719 315.016 278.019 315.016H264.249C258.949 315.016 254.609 311.096 254.609 306.306C254.609 301.516 258.949 297.586 264.249 297.586H375.719C381.019 297.586 385.349 301.506 385.349 306.306C385.349 311.106 381.019 315.016 375.719 315.016H389.479C394.779 315.016 399.109 318.936 399.109 323.736C399.109 328.536 394.779 332.445 389.479 332.445Z" fill="#4285F4"/>
<path opacity="0.1" d="M1096.61 124.206L28.1288 147.706C15.1288 177.936 6.50882 212.116 2.53882 247.536H1077.89C1084.89 226.813 1090.08 205.523 1093.41 183.906C1096.62 163.096 1097.9 142.966 1096.61 124.206ZM219.479 201.256H200.209C205.509 201.256 209.849 205.186 209.849 209.976C209.849 214.766 205.509 218.696 200.209 218.696H88.7388C83.4488 218.696 79.1088 214.766 79.1088 209.976C79.1088 205.186 83.4488 201.256 88.7388 201.256H108.019C102.719 201.256 98.3888 197.336 98.3888 192.546C98.3888 187.756 102.719 183.826 108.019 183.826H94.2488C88.9488 183.826 84.6088 179.906 84.6088 175.116C84.6088 170.326 88.9488 166.396 94.2488 166.396H205.719C211.019 166.396 215.349 170.316 215.349 175.116C215.349 179.916 211.019 183.826 205.719 183.826H219.479C224.779 183.826 229.109 187.756 229.109 192.546C229.109 197.336 224.779 201.256 219.479 201.256Z" fill="#4285F4"/>
<path opacity="0.1" d="M545.089 781.076C791.949 781.076 992.069 762.666 992.069 739.956C992.069 717.246 791.949 698.836 545.089 698.836C298.229 698.836 98.1089 717.246 98.1089 739.956C98.1089 762.666 298.229 781.076 545.089 781.076Z" fill="#4285F4"/>
<path d="M827.379 69.2257C827.379 69.2257 743.179 64.1558 753.109 123.156C753.109 123.156 751.109 133.576 760.589 138.316C760.589 138.316 760.739 133.946 769.219 135.426C772.241 135.931 775.312 136.079 778.369 135.866C782.499 135.585 786.425 133.963 789.549 131.246V131.246C789.549 131.246 813.219 121.476 822.429 82.7858C822.429 82.7858 829.239 74.3458 828.969 72.1858L814.759 78.2458C814.759 78.2458 819.609 88.4958 815.759 97.0158C815.759 97.0158 815.299 78.6257 812.569 79.0157C812.019 79.1057 805.189 82.5658 805.189 82.5658C805.189 82.5658 813.539 100.426 807.189 113.396C807.189 113.396 809.579 91.3957 802.529 83.8557L792.529 89.6958C792.529 89.6958 802.289 108.136 795.669 123.186C795.669 123.186 797.369 100.106 790.429 91.1158L781.359 98.1857C781.359 98.1857 790.529 116.366 784.939 128.846C784.939 128.846 784.209 101.976 779.399 99.9458C779.399 99.9458 771.469 106.946 770.259 109.816C770.259 109.816 776.539 123.006 772.649 129.966C772.649 129.966 770.259 112.066 768.299 111.966C768.299 111.966 760.399 123.826 759.569 131.966C759.569 131.966 759.919 119.866 766.379 110.836C766.379 110.836 758.739 112.146 754.289 117.106C754.289 117.106 755.519 108.716 768.289 107.986C768.289 107.986 774.819 98.9858 776.569 98.4458C776.569 98.4458 763.819 97.3758 756.089 100.806C756.089 100.806 762.889 92.8958 778.899 96.4858L787.899 89.1857C787.899 89.1857 771.119 86.8858 763.999 89.4258C763.999 89.4258 772.189 82.4258 790.309 87.5258L800.059 81.6958C800.059 81.6958 785.749 78.6158 777.219 79.6958C777.219 79.6958 786.219 74.8458 802.909 80.1058L809.909 76.9757C809.909 76.9757 799.419 74.9158 796.349 74.5958C793.279 74.2758 793.119 73.4158 793.119 73.4158C799.781 72.3326 806.612 73.1256 812.849 75.7058C812.849 75.7058 827.629 70.1557 827.379 69.2257Z" fill="#4285F4"/>
<path d="M741.018 42.9956C741.018 42.9956 703.019 40.6956 707.459 67.3556C707.459 67.3556 706.569 72.0656 710.839 74.2056C710.839 74.2056 710.898 72.2056 714.738 72.9056C716.103 73.1302 717.489 73.1973 718.868 73.1056C720.736 72.9723 722.511 72.2392 723.928 71.0156V71.0156C723.928 71.0156 734.619 66.5956 738.779 49.1156C738.779 49.1156 741.859 45.3056 741.779 44.3256L735.359 47.0656C735.359 47.0656 737.558 51.6956 735.828 55.5456C735.828 55.5456 735.618 47.2356 734.388 47.4356C734.138 47.4356 731.049 49.0356 731.049 49.0356C731.049 49.0356 734.829 57.1056 731.979 62.9656C731.979 62.9656 733.058 53.0256 729.878 49.6156L725.359 52.2556C725.359 52.2556 729.769 60.5956 726.779 67.3956C726.779 67.3956 727.539 56.9656 724.409 52.9056L720.308 56.0956C720.308 56.0956 724.448 64.3056 721.928 69.9456C721.928 69.9456 721.599 57.8056 719.419 56.8856C719.419 56.8856 715.839 60.0456 715.289 61.3456C715.289 61.3456 718.128 67.3456 716.368 70.4556C716.368 70.4556 715.288 62.3656 714.368 62.3356C714.368 62.3356 710.798 67.6856 710.428 71.3356C710.601 67.9388 711.659 64.6464 713.498 61.7856C711.441 62.1749 709.543 63.1588 708.039 64.6156C708.039 64.6156 708.588 60.8256 714.378 60.4956C714.378 60.4956 717.328 56.4356 718.118 56.1856C718.118 56.1856 712.358 55.7056 708.868 57.2556C708.868 57.2556 711.938 53.6756 719.178 55.2556L723.178 51.9656C723.178 51.9656 715.598 50.9656 712.378 52.0656C712.378 52.0656 716.078 48.9056 724.268 51.2156L728.669 48.5756C728.669 48.5756 722.209 47.1856 718.349 47.6856C718.349 47.6856 722.419 45.4956 729.959 47.8756L733.109 46.4556C733.109 46.4556 728.368 45.5256 726.988 45.3856C725.608 45.2456 725.518 44.8556 725.518 44.8556C728.52 44.3562 731.602 44.7025 734.419 45.8556C734.419 45.8556 741.128 43.4156 741.018 42.9956Z" fill="#4285F4"/>
<path opacity="0.1" d="M1073.1 730.006C1087.97 730.006 1100.03 727.968 1100.03 725.456C1100.03 722.943 1087.97 720.906 1073.1 720.906C1058.23 720.906 1046.17 722.943 1046.17 725.456C1046.17 727.968 1058.23 730.006 1073.1 730.006Z" fill="#4285F4"/>
<path d="M1030.78 763.106C1032.61 761.608 1033.95 759.589 1034.62 757.316C1035.11 755.026 1034.13 752.266 1031.94 751.426C1029.48 750.486 1026.85 752.196 1024.86 753.916C1022.87 755.636 1020.58 757.596 1017.97 757.236C1019.31 756.02 1020.32 754.477 1020.88 752.758C1021.45 751.039 1021.56 749.201 1021.21 747.426C1021.1 746.69 1020.78 745.999 1020.31 745.426C1018.94 743.966 1016.47 744.586 1014.83 745.736C1009.63 749.396 1008.18 756.456 1008.15 762.816C1007.63 760.526 1008.07 758.136 1008.06 755.816C1008.05 753.496 1007.4 750.816 1005.42 749.586C1004.19 748.929 1002.81 748.605 1001.42 748.646C999.079 748.556 996.479 748.786 994.879 750.496C992.879 752.626 993.409 756.186 995.139 758.496C996.869 760.806 999.489 762.306 1001.9 763.916C1003.84 765.069 1005.49 766.644 1006.74 768.526C1006.88 768.79 1007.01 769.068 1007.1 769.356H1021.75C1025.03 767.689 1028.06 765.587 1030.78 763.106V763.106Z" fill="#4285F4"/>
<path d="M59.3488 679.256C59.3488 679.256 64.8388 686.436 56.8088 697.256C48.7788 708.076 42.1588 717.256 44.8088 724.016C44.8088 724.016 56.9188 703.876 66.8088 703.586C76.6988 703.296 70.1888 691.366 59.3488 679.256Z" fill="#4285F4"/>
<path opacity="0.1" d="M59.3488 679.256C59.8256 679.95 60.2026 680.707 60.4688 681.506C70.0888 692.806 75.2088 703.356 65.9688 703.616C57.3488 703.866 46.9688 719.266 44.5388 723.156C44.6238 723.457 44.7239 723.754 44.8388 724.046C44.8388 724.046 56.9488 703.906 66.8388 703.616C76.7288 703.326 70.1888 691.366 59.3488 679.256Z" fill="black"/>
<path d="M69.5588 688.406C69.5588 690.936 69.2688 692.986 68.9188 692.986C68.5688 692.986 68.2888 690.986 68.2888 688.406C68.2888 685.826 68.6388 687.066 68.9988 687.066C69.3588 687.066 69.5588 685.876 69.5588 688.406Z" fill="#FFD037"/>
<path d="M73.0189 691.426C70.7989 692.636 68.8689 693.366 68.6989 693.056C68.5289 692.746 70.1989 691.526 72.4189 690.316C74.6389 689.106 73.7589 689.986 73.9289 690.316C74.0989 690.646 75.2789 690.216 73.0189 691.426Z" fill="#FFD037"/>
<path d="M30.3287 679.256C30.3287 679.256 24.8387 686.436 32.8587 697.256C40.8787 708.076 47.5087 717.256 44.8587 724.016C44.8587 724.016 32.7387 703.876 22.8587 703.586C12.9787 703.296 19.4787 691.366 30.3287 679.256Z" fill="#4285F4"/>
<path opacity="0.1" d="M30.3288 679.256C29.8477 679.947 29.4703 680.705 29.2088 681.506C19.5888 692.806 14.4588 703.356 23.7088 703.616C32.3188 703.866 42.7088 719.266 45.1288 723.156C45.0472 723.457 44.9504 723.754 44.8388 724.046C44.8388 724.046 32.7188 703.906 22.8388 703.616C12.9588 703.326 19.4788 691.366 30.3288 679.256Z" fill="black"/>
<path d="M20.1187 688.406C20.1187 690.936 20.3987 692.986 20.7487 692.986C21.0987 692.986 21.3787 690.986 21.3787 688.406C21.3787 685.826 21.0287 687.066 20.6787 687.066C20.3287 687.066 20.1187 685.876 20.1187 688.406Z" fill="#FFD037"/>
<path d="M16.6087 691.426C18.8287 692.636 20.7688 693.366 20.9388 693.056C21.1088 692.746 19.4387 691.526 17.2187 690.316C14.9987 689.106 15.8688 689.986 15.7088 690.316C15.5488 690.646 14.3887 690.216 16.6087 691.426Z" fill="#FFD037"/>
<path d="M21.8687 723.106C21.8687 723.106 37.2287 722.636 41.8687 719.336C46.5087 716.036 65.4987 712.106 66.6487 717.336C67.7987 722.566 89.7287 743.636 72.3887 743.776C55.0487 743.916 32.0987 741.065 27.4787 738.255C22.8587 735.445 21.8687 723.106 21.8687 723.106Z" fill="#A8A8A8"/>
<path opacity="0.2" d="M72.6787 741.986C55.3387 742.126 32.3887 739.276 27.7687 736.466C24.2487 734.326 22.8487 726.636 22.3787 723.086H21.8687C21.8687 723.086 22.8687 735.476 27.4587 738.286C32.0487 741.096 55.0287 743.946 72.3687 743.806C77.3687 743.806 79.0987 741.976 79.0087 739.346C78.3087 740.956 76.4087 741.956 72.6787 741.986Z" fill="black"/>
</svg>
