<svg width="617" height="617" viewBox="0 0 617 617" fill="none" xmlns="http://www.w3.org/2000/svg">
<path d="M308.5 617C478.88 617 617 478.88 617 308.5C617 138.12 478.88 0 308.5 0C138.12 0 0 138.12 0 308.5C0 478.88 138.12 617 308.5 617Z" fill="#4285F4"/>
<path d="M470.37 463.53C470.37 512.23 393.81 467.69 311.73 467.69C229.65 467.69 146.63 510.39 146.63 461.69C146.63 433.92 173.09 395.3 211.05 367.25C239.65 346.11 274.77 330.97 310.05 330.97C346.33 330.97 381.87 347.36 410.22 369.86C446 398.23 470.37 436.35 470.37 463.53Z" fill="#444053"/>
<path d="M410.21 369.84C366.58 363.27 287.67 355.26 211.05 367.23C239.65 346.09 274.77 330.95 310.05 330.95C346.32 330.95 381.86 347.34 410.21 369.84Z" fill="#F6F8FB"/>
<path opacity="0.05" d="M146.63 90.73C146.63 90.73 53.7 150.14 54.46 243.07C55.22 336 146.63 90.73 146.63 90.73Z" fill="black"/>
<path d="M198.82 268.05C204.69 267.72 232.32 265.64 249.87 255.63C252.689 253.972 255.873 253.034 259.14 252.9C264.72 252.74 271.14 255.07 267.03 268.11C260.37 289.44 221.7 313.44 197.7 312.11C174.62 310.83 147.24 301.53 129.16 268.83C127.428 265.684 126.575 262.13 126.69 258.54C126.9 251.94 129.3 243.67 141.69 252.89C158.43 265.34 190.19 267.7 196.56 268.05C197.313 268.09 198.067 268.09 198.82 268.05V268.05Z" fill="#444053"/>
<path d="M420.82 268.05C426.69 267.72 454.32 265.64 471.87 255.63C474.689 253.972 477.873 253.034 481.14 252.9C486.72 252.74 493.14 255.07 489.03 268.11C482.37 289.44 443.7 313.44 419.7 312.11C396.62 310.83 369.24 301.53 351.16 268.83C349.428 265.684 348.575 262.13 348.69 258.54C348.9 251.94 351.3 243.67 363.69 252.89C380.43 265.34 412.19 267.7 418.56 268.05C419.313 268.09 420.067 268.09 420.82 268.05V268.05Z" fill="#444053"/>
</svg>
