<svg width="1069" height="1080" viewBox="0 0 1069 1080" fill="none" xmlns="http://www.w3.org/2000/svg">
<path fill-rule="evenodd" clip-rule="evenodd" d="M625.202 1.06959C777.41 -4.67936 954.013 10.3037 1052.54 106.593C1148.94 200.812 1059.62 347.137 1100.77 465.854C1139.5 577.605 1289.26 654.735 1282.8 770.879C1275.74 897.75 1198.05 1032.05 1065.71 1096.16C935.755 1159.12 775.718 1091.89 625.202 1089.47C478.86 1087.12 320.514 1147.19 196.928 1082.21C71.9043 1016.49 18.5396 883.572 1.72516 761.695C-13.2322 653.279 72.9524 559.913 110.437 455.303C149.337 346.743 131.71 220.397 225.27 137.839C326.462 48.5464 477.515 6.64775 625.202 1.06959Z" fill="#FF6565"/>
</svg>
