<svg width="404" height="464" viewBox="0 0 404 464" fill="none" xmlns="http://www.w3.org/2000/svg">
<path opacity="0.1" d="M190.312 389.543C290.466 389.543 371.657 376.469 371.657 360.341C371.657 344.213 290.466 331.139 190.312 331.139C90.1581 331.139 8.96729 344.213 8.96729 360.341C8.96729 376.469 90.1581 389.543 190.312 389.543Z" fill="#46F0B3"/>
<path d="M17.0131 417.827C17.0131 417.827 34.8927 414.255 39.6692 409.491C44.4456 404.727 65.9012 396.399 68.2831 402.349C70.6649 408.299 100.479 428.547 80.205 432.118C59.9307 435.69 32.5173 436.882 26.5659 434.503C20.6145 432.125 17.0131 417.827 17.0131 417.827Z" fill="#F0C146"/>
<path opacity="0.2" d="M80.1859 429.905C59.918 433.477 32.4982 434.669 26.5468 432.291C22.0066 430.473 18.8522 421.761 17.607 417.705C17.2302 417.788 17.0067 417.827 17.0067 417.827C17.0067 417.827 20.589 432.118 26.5468 434.504C32.5046 436.889 59.9307 435.69 80.1859 432.118C86.0415 431.085 87.7145 428.668 87.0823 425.601C86.6034 427.603 84.56 429.14 80.1859 429.905Z" fill="black"/>
<path d="M324.582 357.331C324.582 357.331 342.462 353.759 347.238 348.996C352.015 344.232 373.464 335.877 375.839 341.853C378.215 347.829 408.029 368.051 387.761 371.623C367.493 375.194 340.067 376.386 334.122 374.001C328.177 371.616 324.582 357.331 324.582 357.331Z" fill="#A8A8A8"/>
<path opacity="0.2" d="M387.774 369.41C367.506 372.981 340.08 374.173 334.135 371.788C329.595 369.977 326.472 361.266 325.195 357.21L324.601 357.331C324.601 357.331 328.177 371.623 334.141 374.001C340.105 376.38 367.525 375.194 387.78 371.622C393.63 370.589 395.303 368.166 394.677 365.105C394.166 367.126 392.129 368.644 387.774 369.41Z" fill="black"/>
<path d="M294.742 422.54C294.742 422.54 298.248 427.119 293.12 434.019C287.993 440.919 283.765 446.774 285.457 451.085C285.457 451.085 293.19 438.241 299.506 438.056C305.821 437.871 301.683 430.263 294.742 422.54Z" fill="#38D39F"/>
<path opacity="0.1" d="M294.742 422.54C295.047 422.982 295.287 423.465 295.457 423.974C301.6 431.181 304.87 437.909 298.97 438.075C293.465 438.234 286.869 448.055 285.285 450.536C285.339 450.728 285.403 450.918 285.477 451.104C285.477 451.104 293.21 438.26 299.525 438.075C305.84 437.89 301.683 430.263 294.742 422.54Z" fill="black"/>
<path d="M301.281 428.349C301.281 429.963 301.096 431.27 300.872 431.27C300.649 431.27 300.47 429.995 300.47 428.349C300.47 426.704 300.693 427.495 300.917 427.495C301.14 427.495 301.281 426.761 301.281 428.349Z" fill="#FFD037"/>
<path d="M303.516 430.301C302.098 431.072 300.866 431.538 300.757 431.34C300.649 431.143 301.715 430.365 303.133 429.593C304.55 428.821 303.988 429.382 304.097 429.593C304.206 429.803 304.959 429.529 303.516 430.301Z" fill="#FFD037"/>
<path d="M276.224 422.54C276.224 422.54 272.718 427.119 277.839 434.019C282.961 440.919 287.194 446.774 285.502 451.085C285.502 451.085 277.763 438.241 271.454 438.056C265.145 437.871 269.302 430.263 276.224 422.54Z" fill="#38D39F"/>
<path opacity="0.1" d="M276.224 422.54C275.917 422.98 275.676 423.464 275.509 423.974C269.366 431.181 266.09 437.909 271.997 438.075C277.495 438.234 284.129 448.055 285.675 450.536C285.622 450.728 285.561 450.918 285.489 451.104C285.489 451.104 277.75 438.26 271.441 438.075C265.132 437.89 269.302 430.263 276.224 422.54Z" fill="black"/>
<path d="M269.711 428.349C269.711 429.963 269.889 431.27 270.113 431.27C270.336 431.27 270.515 429.995 270.515 428.349C270.515 426.704 270.292 427.495 270.068 427.495C269.845 427.495 269.711 426.761 269.711 428.349Z" fill="#FFD037"/>
<path d="M267.469 430.301C268.887 431.072 270.126 431.538 270.234 431.34C270.343 431.143 269.276 430.365 267.859 429.593C266.441 428.821 266.997 429.382 266.895 429.593C266.792 429.803 266.052 429.529 267.469 430.301Z" fill="#FFD037"/>
<path d="M270.828 450.504C270.828 450.504 280.636 450.205 283.599 448.1C286.562 445.996 298.688 443.489 299.423 446.825C300.157 450.16 314.161 463.597 303.088 463.686C292.015 463.776 277.36 461.958 274.41 460.166C271.46 458.374 270.828 450.504 270.828 450.504Z" fill="#A8A8A8"/>
<path opacity="0.2" d="M303.273 462.545C292.201 462.628 277.546 460.817 274.596 459.025C272.348 457.66 271.454 452.756 271.154 450.492H270.828C270.828 450.492 271.467 458.393 274.398 460.185C277.329 461.977 292.003 463.795 303.075 463.706C306.268 463.674 307.373 462.538 307.315 460.861C306.875 461.888 305.655 462.526 303.273 462.545Z" fill="black"/>
<path d="M6.36827 357.037C4.97621 355.762 3.67993 354.231 3.27764 352.382C2.87534 350.532 3.66716 348.313 5.43597 347.637C7.41551 346.885 9.53553 348.275 11.1383 349.64C12.7411 351.004 14.5865 352.605 16.6874 352.312C15.6065 351.333 14.7978 350.091 14.3401 348.708C13.8824 347.324 13.7913 345.846 14.0757 344.417C14.1669 343.826 14.4187 343.273 14.8036 342.816C15.902 341.642 17.9007 342.178 19.2161 343.071C23.4051 346.011 24.5736 351.7 24.5992 356.814C25.0206 354.971 24.663 353.045 24.6758 351.151C24.6886 349.257 25.2058 347.159 26.8022 346.145C27.7992 345.608 28.9205 345.344 30.0525 345.38C31.9362 345.316 34.0307 345.501 35.3142 346.878C36.917 348.587 36.5019 351.457 35.1099 353.338C33.7178 355.22 31.6042 356.4 29.6566 357.694C28.0971 358.626 26.7662 359.894 25.7613 361.406C25.6467 361.609 25.5506 361.823 25.474 362.044H13.667C11.0179 360.713 8.56247 359.029 6.36827 357.037V357.037Z" fill="#D83D59"/>
<path d="M193.134 79.1685C190.841 80.7655 188.786 82.6786 187.03 84.8507C184.891 87.505 183.262 90.5322 182.228 93.7791C181.348 96.3965 180.917 99.1432 180.951 101.904L171.5 93.8428L159.335 96.566C161.876 94.1499 164.07 91.3942 165.855 88.3774C167.457 85.6697 168.743 82.7874 169.686 79.7871C170.323 77.849 170.772 75.8544 171.027 73.8306C171.027 73.8306 206.129 70.0743 193.134 79.1685Z" fill="#EFB4B6"/>
<path d="M143.991 364.792C143.613 365.285 143.161 365.715 142.65 366.068L124.081 366.501L111.629 357.025L110.23 359.99C107.791 360.041 95.9009 353.485 95.9009 353.485L97.2866 350.035C97.2866 349.831 97.3313 349.627 97.3568 349.397C98.4232 341.961 104.828 338.103 104.828 338.103L107.248 337.07L122.005 340.635L126.609 349.314C130.894 358.37 135.466 359.18 137.854 358.823C139.502 358.558 141.19 358.917 142.586 359.831C145.408 361.776 144.878 363.619 143.991 364.792Z" fill="#565388"/>
<path d="M272.003 355.711C272.584 359.607 255.1 364.901 255.1 364.901L236.991 364.346L237.042 366.297L222.853 366.144L222.764 362.235C222.764 362.165 222.719 362.095 222.7 362.025C220.714 355.277 223.875 347.07 223.875 347.07L225.28 344.595L239.366 340.341C242.356 343.072 245.52 345.606 248.836 347.931C254.8 352.191 259.692 351.585 264.557 350.985C269.027 350.43 271.09 351.591 271.831 354.812C271.901 355.118 271.952 355.405 272.003 355.711Z" fill="#565388"/>
<path d="M187.598 239.005C187.132 240 185.593 242.767 183.562 246.352C177.483 257.078 166.96 275.145 166.96 275.145C164.22 283.513 148.391 296.58 148.391 296.58C148.391 296.58 136.718 320.297 128.595 329.277C120.473 338.256 124.566 344.997 124.566 344.997L104.841 338.135C108.206 335.616 112.823 323.786 112.823 323.786C120.977 296.242 142.433 272.767 142.433 272.767C142.433 272.767 150.523 263.296 151.762 253.501C152.688 246.148 155.479 236.001 156.82 231.397C157.294 229.739 157.509 228.018 157.458 226.295V225.549C157.381 222.954 156.727 220.41 155.542 218.1C153.346 213.994 152.78 209.211 153.959 204.707C154.349 203.105 154.996 201.576 155.874 200.179L160.696 198.776L177.732 193.802C177.732 193.802 178.786 197.514 180.21 202.807C183.537 215.192 188.901 236.243 187.598 239.005Z" fill="#7679B4"/>
<path opacity="0.1" d="M187.26 238.431C186.794 239.426 185.261 242.193 183.224 245.778C177.145 256.504 166.59 274.571 166.59 274.571C163.837 282.945 148.02 296.006 148.02 296.006C148.02 296.006 136.354 319.723 128.225 328.703C120.096 337.682 124.247 344.423 124.247 344.423L104.528 337.561C107.887 335.042 112.503 323.212 112.503 323.212C120.658 295.668 142.113 272.193 142.113 272.193C142.113 272.193 150.172 262.741 151.411 252.971C152.337 245.618 155.127 235.472 156.468 230.867C156.939 229.209 157.155 227.489 157.107 225.765V225.019C157.033 222.423 156.378 219.875 155.191 217.564C152.994 213.458 152.429 208.676 153.608 204.172C154.002 202.569 154.649 201.038 155.523 199.637L160.344 198.241L177.381 193.266C177.381 193.266 178.441 196.971 179.859 202.271C183.205 214.618 188.562 235.669 187.26 238.431Z" fill="black"/>
<path d="M241.857 342.255L223.862 347.07C223.862 347.07 223.779 343.658 218.69 334.984C213.6 326.311 201.583 293.869 199.807 280.726C198.032 267.582 185.401 250.293 185.401 250.293C185.401 250.293 184.571 248.596 183.55 246.352C182.605 244.279 181.506 241.747 180.753 239.655C179.182 235.3 172.19 229.113 172.19 229.113C159.387 222.022 156.864 213.527 156.717 208.221C156.643 206.481 156.874 204.741 157.401 203.081L160.683 198.789L166.89 190.651L187.879 168.184L200.65 170.811L201.423 203.521C211.135 216.218 217.132 245.038 219.13 255.943C219.581 258.342 220.264 260.691 221.167 262.958C224.532 271.6 224.884 286.484 224.884 286.484C224.884 286.484 231.269 309.29 230.516 318.097C229.762 326.904 241.857 342.255 241.857 342.255Z" fill="#7679B4"/>
<path d="M202.368 160.027C202.368 160.027 212.317 167.125 216.263 168.496C220.209 169.868 229.609 175.021 229.609 175.021C229.609 175.021 257.246 185.607 247.616 192.182C237.987 198.757 225.42 183.891 225.42 183.891C225.42 183.891 219.948 180.11 215.529 179.236C211.11 178.362 201.704 173.254 201.704 173.254L202.368 160.027Z" fill="#EFB4B6"/>
<path opacity="0.1" d="M193.134 79.1685C190.841 80.7655 188.786 82.6786 187.03 84.8507C185.867 85.0916 184.685 85.2282 183.499 85.2589C178.122 85.3864 175.338 79.5192 171.787 76.0053C172.905 72.4595 171.008 73.8306 171.008 73.8306C171.008 73.8306 206.129 70.0743 193.134 79.1685Z" fill="black"/>
<path d="M183.032 84.2832C193.563 84.2832 202.1 75.7574 202.1 65.2403C202.1 54.7232 193.563 46.1974 183.032 46.1974C172.502 46.1974 163.965 54.7232 163.965 65.2403C163.965 75.7574 172.502 84.2832 183.032 84.2832Z" fill="#EFB4B6"/>
<path opacity="0.1" d="M180.957 101.923L171.5 93.8429L159.335 96.566C161.876 94.1499 164.07 91.3942 165.855 88.3775H165.938C170.018 87.603 174.24 88.4103 177.745 90.635C179.309 91.6092 180.814 92.6739 182.253 93.8237C181.37 96.432 180.932 99.1698 180.957 101.923Z" fill="black"/>
<path opacity="0.1" d="M200.663 170.811L200.835 178.114C199.367 176.64 192.03 169.689 194.028 179.759C196.251 190.945 183.237 199.063 183.237 199.063C182.215 200.458 181.206 201.71 180.21 202.82C169.891 214.241 160.747 210.759 156.73 208.221C155.954 207.743 155.227 207.189 154.559 206.569C154.172 206.027 153.95 205.385 153.92 204.72C154.311 203.117 154.957 201.588 155.836 200.192L160.657 198.789L166.864 190.651L187.854 168.184L200.663 170.811Z" fill="black"/>
<path d="M201.065 177.399C201.065 177.399 191.787 167.604 194.041 178.783C196.295 189.963 183.243 198.088 183.243 198.088C168.084 218.954 154.565 205.594 154.565 205.594C154.565 205.594 151.053 201.767 160.006 187.393C166.864 176.392 162.126 159.932 159.527 152.821C158.411 149.747 157.463 146.616 156.685 143.44L156.047 140.889L154.584 134.92C152.862 127.952 152.322 120.746 152.988 113.6C153.425 108.823 154.424 104.114 155.964 99.5697C156.947 96.6616 158.052 94.1617 159.24 92.6694C160.943 90.633 163.323 89.2752 165.944 88.843C170.024 88.064 174.247 88.8692 177.751 91.0942C180.265 92.6455 182.618 94.4421 184.776 96.4576C189.782 101.221 183.926 101.846 183.926 101.846C180.133 106.821 190.612 115.877 190.612 115.877C190.612 115.877 206.059 128.211 202.355 137.088C198.652 145.965 202.144 148.816 204.373 160.487C206.602 172.157 201.065 177.399 201.065 177.399Z" fill="#565388"/>
<path opacity="0.1" d="M181.768 37.4923C178.843 38.0152 176.2 39.6096 173.282 40.1517C170.242 40.7065 167.126 40.1006 164.042 40.1517C159.907 40.198 155.868 41.3927 152.375 43.6018C151.489 44.0947 150.742 44.8033 150.204 45.6617C149.773 46.6691 149.555 47.7548 149.565 48.8504C148.703 60.2468 140.568 69.7236 131.922 77.2106C130.755 78.0825 129.761 79.1638 128.991 80.3993C128.11 82.0766 128.135 84.0536 128.123 85.9476C127.988 104.831 121.392 124.665 106.411 136.176C111.475 139.511 119.183 137.706 122.229 132.471C121.112 138.241 118.913 143.748 115.747 148.701C122.427 148.561 127.35 142.662 131.309 137.286C131.867 143.957 130.303 150.635 126.839 156.367C135.779 155.595 144.91 153.669 152.139 148.389C155.453 145.972 158.454 142.451 158.384 138.357C158.346 136.016 157.298 133.823 156.551 131.597C154.604 125.806 155.07 118.504 159.897 114.748C160.807 114.156 161.662 113.483 162.452 112.739C163.556 111.502 163.946 109.793 164.169 108.154C164.717 104.151 164.516 100.081 163.575 96.1515C163.321 95.3248 163.19 94.4653 163.186 93.6005C163.294 91.7957 164.655 90.2843 166.2 89.3532C167.745 88.4221 169.508 87.9119 171.149 87.1402C173.963 85.7605 176.339 83.6304 178.016 80.9854C179.693 78.3404 180.605 75.2837 180.651 72.1534C180.651 70.3231 180.414 68.2823 181.57 66.8729C183.288 64.7811 186.864 65.4954 188.92 63.7352C190.868 62.0707 190.65 58.9713 192.011 56.7966C193.128 55.011 195.203 54.0607 196.717 52.6258C204.303 45.5979 187.905 36.4018 181.768 37.4923Z" fill="black"/>
<path opacity="0.1" d="M180.159 109.633V109.754L168.116 126.061L160.727 136.068C160.727 136.068 158.722 137.981 156.028 140.857L154.565 134.888C152.843 127.92 152.303 120.714 152.969 113.568C155.759 108.007 158.761 104.276 161.57 101.776C163.151 100.377 165.095 99.453 167.179 99.1117C169.263 98.7704 171.402 99.0255 173.347 99.8476C175.292 100.67 176.964 102.025 178.169 103.757C179.375 105.489 180.065 107.526 180.159 109.633V109.633Z" fill="black"/>
<path d="M181.717 36.5166C178.792 37.0395 176.149 38.6339 173.231 39.1696C170.197 39.7308 167.081 39.1185 163.991 39.1696C159.865 39.2144 155.833 40.4022 152.343 42.6006C151.457 43.0935 150.71 43.802 150.172 44.6605C149.741 45.6678 149.523 46.7536 149.534 47.8492C148.678 59.2456 140.536 68.7223 131.89 76.2094C130.725 77.083 129.731 78.164 128.959 79.3981C128.084 81.069 128.103 83.0523 128.091 84.9464C127.963 103.83 121.36 123.664 106.38 135.175C111.437 138.51 119.151 136.699 122.19 131.469C121.084 137.254 118.889 142.777 115.722 147.744C122.401 147.604 127.324 141.699 131.284 136.323C131.836 142.993 130.267 149.668 126.801 155.397C135.741 154.626 144.872 152.7 152.107 147.419C155.415 145.002 158.422 141.482 158.352 137.388C158.307 135.047 157.267 132.853 156.519 130.628C154.565 124.837 155.032 117.535 159.859 113.779C160.769 113.184 161.624 112.51 162.413 111.763C163.518 110.532 163.908 108.823 164.131 107.184C164.673 103.179 164.47 99.1075 163.531 95.1757C163.278 94.349 163.148 93.4893 163.148 92.6248C163.256 90.82 164.61 89.3085 166.155 88.3774C167.701 87.4463 169.469 86.9362 171.104 86.1645C173.917 84.7919 176.296 82.6693 177.977 80.0313C179.659 77.3933 180.577 74.3425 180.631 71.2159C180.631 69.3856 180.389 67.3448 181.551 65.9291C183.269 63.8437 186.838 64.5579 188.894 62.7978C190.848 61.1333 190.625 58.0339 191.985 55.8592C193.103 54.0735 195.178 53.1233 196.698 51.6884C204.277 44.6158 187.879 35.426 181.717 36.5166Z" fill="#A66477"/>
<path d="M179.163 108.683V108.804L167.113 125.13L159.731 135.143C159.731 135.143 145.855 148.165 142.184 158.509C140.748 162.37 138.965 166.092 136.858 169.632C133.19 175.876 129.871 182.319 126.916 188.93C126.381 190.228 125.702 191.463 124.891 192.609C123.398 194.641 122.444 197.017 122.12 199.516C122.12 199.516 118.072 214.752 107.389 217.928C96.7054 221.103 102.599 201.436 105.013 199.911C106.367 199.057 109.515 195.849 112.037 193.196C114.323 190.779 116.131 187.953 117.369 184.867L119.7 179.057C119.7 179.057 130.811 152.425 132.733 150.914C133.294 150.432 133.769 149.858 134.138 149.218C135.677 146.718 137.241 144.224 138.85 141.769C140.964 138.542 144.31 132.107 149.106 119.276C149.444 118.37 149.783 117.509 150.134 116.674C153.416 108.817 157.158 103.919 160.593 100.845C162.173 99.4524 164.114 98.5336 166.194 98.1947C168.273 97.8558 170.406 98.1106 172.347 98.9298C174.288 99.749 175.957 101.099 177.163 102.825C178.369 104.55 179.062 106.581 179.163 108.683Z" fill="#EFB4B6"/>
<path d="M179.425 108.626V108.753L167.158 125.379L149.846 116.77C153.186 108.766 156.992 103.766 160.498 100.647C162.105 99.2238 164.083 98.2835 166.204 97.9353C168.324 97.587 170.499 97.845 172.479 98.6794C174.458 99.5138 176.161 100.891 177.39 102.651C178.619 104.411 179.324 106.482 179.425 108.626V108.626Z" fill="#565388"/>
<path opacity="0.1" d="M164.24 95.705C164.24 95.705 177.247 101.279 183.633 101.617Z" fill="black"/>
<path opacity="0.1" d="M272.003 355.711C272.584 359.607 255.1 364.901 255.1 364.901L236.991 364.346L237.042 366.297L222.853 366.144L222.764 362.235C222.764 362.165 222.719 362.095 222.7 362.025L255.266 362.701L271.805 354.837C271.901 355.118 271.952 355.405 272.003 355.711Z" fill="black"/>
<path opacity="0.1" d="M143.991 364.792C143.613 365.285 143.161 365.715 142.65 366.068L124.081 366.501L111.629 357.025L110.23 359.99C107.791 360.041 95.9009 353.485 95.9009 353.485L97.2866 350.035C97.2866 349.831 97.3313 349.627 97.3568 349.397L111.846 355.775L124.285 364.76L143.991 364.792Z" fill="black"/>
<path opacity="0.1" d="M156.673 202.858C156.673 202.858 163.658 188.043 170.861 183.458Z" fill="black"/>
<path opacity="0.1" d="M184.463 136.763C184.463 136.763 188.556 144.377 200.957 141.456Z" fill="black"/>
<path opacity="0.1" d="M102.025 6.33242H98.0145C98.7357 6.29805 99.4159 5.98775 99.9141 5.46588C100.412 4.94401 100.69 4.25062 100.69 3.52956C100.69 2.8085 100.412 2.11512 99.9141 1.59325C99.4159 1.07137 98.7357 0.761065 98.0145 0.7267H65.499C65.1192 0.708601 64.7396 0.767681 64.3834 0.900371C64.0271 1.03306 63.7015 1.2366 63.4263 1.49865C63.1511 1.7607 62.932 2.07581 62.7823 2.42491C62.6326 2.774 62.5554 3.14981 62.5554 3.52956C62.5554 3.90932 62.6326 4.28512 62.7823 4.63421C62.932 4.9833 63.1511 5.29841 63.4263 5.56047C63.7015 5.82252 64.0271 6.02605 64.3834 6.15874C64.7396 6.29143 65.1192 6.35051 65.499 6.33242H69.5091C69.1402 6.33242 68.7748 6.405 68.4339 6.54601C68.093 6.68703 67.7833 6.89373 67.5224 7.1543C67.2615 7.41486 67.0546 7.7242 66.9134 8.06464C66.7722 8.40509 66.6995 8.76997 66.6995 9.13847C66.6995 9.50697 66.7722 9.87185 66.9134 10.2123C67.0546 10.5527 67.2615 10.8621 67.5224 11.1226C67.7833 11.3832 68.093 11.5899 68.4339 11.7309C68.7748 11.8719 69.1402 11.9445 69.5091 11.9445H63.8962C63.5164 11.9264 63.1368 11.9855 62.7806 12.1182C62.4243 12.2509 62.0987 12.4544 61.8235 12.7165C61.5483 12.9785 61.3292 13.2936 61.1795 13.6427C61.0298 13.9918 60.9526 14.3676 60.9526 14.7474C60.9526 15.1271 61.0298 15.5029 61.1795 15.852C61.3292 16.2011 61.5483 16.5162 61.8235 16.7783C62.0987 17.0403 62.4243 17.2439 62.7806 17.3766C63.1368 17.5093 63.5164 17.5683 63.8962 17.5502H96.4053C96.7851 17.5683 97.1647 17.5093 97.5209 17.3766C97.8772 17.2439 98.2028 17.0403 98.478 16.7783C98.7532 16.5162 98.9723 16.2011 99.122 15.852C99.2717 15.5029 99.3489 15.1271 99.3489 14.7474C99.3489 14.3676 99.2717 13.9918 99.122 13.6427C98.9723 13.2936 98.7532 12.9785 98.478 12.7165C98.2028 12.4544 97.8772 12.2509 97.5209 12.1182C97.1647 11.9855 96.7851 11.9264 96.4053 11.9445H102.025C102.77 11.9445 103.484 11.6489 104.011 11.1226C104.538 10.5964 104.834 9.88268 104.834 9.13847C104.834 8.39426 104.538 7.68053 104.011 7.1543C103.484 6.62806 102.77 6.33242 102.025 6.33242V6.33242Z" fill="#38D39F"/>
<path opacity="0.1" d="M400.603 103.626H396.593C397.338 103.626 398.052 103.33 398.579 102.804C399.106 102.278 399.402 101.564 399.402 100.82C399.402 100.076 399.106 99.3618 398.579 98.8355C398.052 98.3093 397.338 98.0137 396.593 98.0137H364.103C363.357 98.0137 362.643 98.3093 362.116 98.8355C361.589 99.3618 361.293 100.076 361.293 100.82C361.293 101.564 361.589 102.278 362.116 102.804C362.643 103.33 363.357 103.626 364.103 103.626H368.113C367.733 103.608 367.353 103.667 366.997 103.799C366.641 103.932 366.315 104.136 366.04 104.398C365.765 104.66 365.546 104.975 365.396 105.324C365.246 105.673 365.169 106.049 365.169 106.429C365.169 106.808 365.246 107.184 365.396 107.533C365.546 107.882 365.765 108.197 366.04 108.46C366.315 108.722 366.641 108.925 366.997 109.058C367.353 109.191 367.733 109.25 368.113 109.231H362.5C362.12 109.213 361.74 109.272 361.384 109.405C361.028 109.538 360.702 109.741 360.427 110.003C360.152 110.266 359.933 110.581 359.783 110.93C359.633 111.279 359.556 111.655 359.556 112.034C359.556 112.414 359.633 112.79 359.783 113.139C359.933 113.488 360.152 113.803 360.427 114.065C360.702 114.327 361.028 114.531 361.384 114.664C361.74 114.796 362.12 114.855 362.5 114.837H394.996C395.376 114.855 395.755 114.796 396.112 114.664C396.468 114.531 396.794 114.327 397.069 114.065C397.344 113.803 397.563 113.488 397.713 113.139C397.862 112.79 397.94 112.414 397.94 112.034C397.94 111.655 397.862 111.279 397.713 110.93C397.563 110.581 397.344 110.266 397.069 110.003C396.794 109.741 396.468 109.538 396.112 109.405C395.755 109.272 395.376 109.213 394.996 109.231H400.615C401.337 109.197 402.017 108.887 402.515 108.365C403.013 107.843 403.291 107.15 403.291 106.429C403.291 105.708 403.013 105.014 402.515 104.492C402.017 103.97 401.337 103.66 400.615 103.626H400.603Z" fill="#38D39F"/>
<path opacity="0.1" d="M41.2337 86.8022H37.2235C37.9687 86.8022 38.6833 86.5066 39.2102 85.9803C39.7371 85.4541 40.0332 84.7404 40.0332 83.9962C40.0332 83.252 39.7371 82.5382 39.2102 82.012C38.6833 81.4858 37.9687 81.1901 37.2235 81.1901H4.72714C3.98197 81.1901 3.26732 81.4858 2.74041 82.012C2.21349 82.5382 1.91748 83.252 1.91748 83.9962C1.91748 84.7404 2.21349 85.4541 2.74041 85.9803C3.26732 86.5066 3.98197 86.8022 4.72714 86.8022H8.7373C8.01613 86.8366 7.3359 87.1469 6.83769 87.6687C6.33949 88.1906 6.06155 88.884 6.06155 89.6051C6.06155 90.3261 6.33949 91.0195 6.83769 91.5414C7.3359 92.0632 8.01613 92.3736 8.7373 92.4079H3.12437C2.74455 92.3898 2.36501 92.4489 2.00874 92.5816C1.65246 92.7143 1.32684 92.9178 1.05164 93.1799C0.776429 93.4419 0.557348 93.757 0.407658 94.1061C0.257967 94.4552 0.180786 94.831 0.180786 95.2108C0.180786 95.5905 0.257967 95.9663 0.407658 96.3154C0.557348 96.6645 0.776429 96.9796 1.05164 97.2417C1.32684 97.5037 1.65246 97.7073 2.00874 97.84C2.36501 97.9727 2.74455 98.0317 3.12437 98.0136H35.6143C36.3355 97.9793 37.0157 97.669 37.5139 97.1471C38.0121 96.6252 38.2901 95.9318 38.2901 95.2108C38.2901 94.4897 38.0121 93.7963 37.5139 93.2745C37.0157 92.7526 36.3355 92.4423 35.6143 92.4079H41.2337C41.6135 92.426 41.993 92.3669 42.3493 92.2342C42.7056 92.1016 43.0312 91.898 43.3064 91.636C43.5816 91.3739 43.8007 91.0588 43.9504 90.7097C44.1001 90.3606 44.1772 89.9848 44.1772 89.6051C44.1772 89.2253 44.1001 88.8495 43.9504 88.5004C43.8007 88.1513 43.5816 87.8362 43.3064 87.5742C43.0312 87.3121 42.7056 87.1086 42.3493 86.9759C41.993 86.8432 41.6135 86.7841 41.2337 86.8022V86.8022Z" fill="#38D39F"/>
</svg>
