<svg width="162" height="241" viewBox="0 0 162 241" fill="none" xmlns="http://www.w3.org/2000/svg">
<path d="M50.2356 179.501C50.2356 179.501 36.7045 133.615 52.7898 99.8407C59.62 85.7169 61.6791 69.7618 58.6582 54.3699C57.1695 47.075 55.0127 39.932 52.2151 33.0312" stroke="#535461" stroke-width="2" stroke-miterlimit="10"/>
<path d="M62.1958 11.6861C62.1958 17.311 51.9788 33.6179 51.9788 33.6179C51.9788 33.6179 41.7619 17.311 41.7619 11.6861C41.6694 10.2924 41.8644 8.8945 42.3349 7.57909C42.8054 6.26369 43.5413 5.05875 44.497 4.03893C45.4527 3.01912 46.6079 2.20614 47.891 1.65034C49.1741 1.09453 50.5579 0.807739 51.9565 0.807739C53.3551 0.807739 54.7388 1.09453 56.0219 1.65034C57.305 2.20614 58.4602 3.01912 59.4159 4.03893C60.3717 5.05875 61.1075 6.26369 61.578 7.57909C62.0485 8.8945 62.2436 10.2924 62.1511 11.6861H62.1958Z" fill="#D83D59"/>
<path d="M79.0474 42.8332C75.9887 47.5589 58.556 55.7092 58.556 55.7092C58.556 55.7092 58.8689 36.4877 61.934 31.7685C62.6133 30.5456 63.537 29.4752 64.6478 28.6237C65.7586 27.7723 67.0327 27.158 68.3912 26.8189C69.7497 26.4798 71.1635 26.4233 72.5447 26.6527C73.926 26.8822 75.2453 27.3927 76.4208 28.1527C77.5962 28.9127 78.6027 29.9059 79.3777 31.0706C80.1527 32.2353 80.6797 33.5467 80.926 34.9233C81.1723 36.3 81.1327 37.7125 80.8095 39.0732C80.4864 40.4339 79.8866 41.7137 79.0474 42.8332Z" fill="#D83D59"/>
<path d="M78.313 96.0843C73.2811 98.6353 54.1116 96.8688 54.1116 96.8688C54.1116 96.8688 64.105 80.4343 69.1305 77.9024C70.3349 77.1933 71.6722 76.7386 73.0596 76.5664C74.447 76.3942 75.8551 76.5083 77.1966 76.9015C78.5381 77.2947 79.7845 77.9587 80.8587 78.8524C81.9329 79.7461 82.8121 80.8504 83.4417 82.0971C84.0713 83.3438 84.438 84.7063 84.5192 86.1002C84.6003 87.4942 84.3941 88.8899 83.9133 90.2011C83.4326 91.5122 82.6875 92.7109 81.7242 93.7228C80.7609 94.7348 79.5999 95.5386 78.313 96.0843Z" fill="#D83D59"/>
<path d="M68.6707 136.217C64.1433 139.559 44.9546 141.07 44.9546 141.07C44.9546 141.07 52.0235 123.214 56.5445 119.847C57.612 118.948 58.8524 118.278 60.1893 117.877C61.5262 117.476 62.9311 117.353 64.3175 117.516C65.7038 117.678 67.0421 118.123 68.2499 118.821C69.4576 119.52 70.5091 120.459 71.3395 121.58C72.1699 122.7 72.7617 123.979 73.0782 125.336C73.3947 126.694 73.4293 128.102 73.1798 129.474C72.9303 130.845 72.4021 132.151 71.6277 133.311C70.8532 134.471 69.8491 135.46 68.6771 136.217H68.6707Z" fill="#D83D59"/>
<path d="M37.145 56.7997C41.1871 60.7218 59.9991 64.7778 59.9991 64.7778C59.9991 64.7778 55.3951 46.1112 51.353 42.1955C49.3779 40.519 46.8386 39.6548 44.2494 39.7782C41.6603 39.9016 39.2148 41.0032 37.4085 42.8598C35.6022 44.7165 34.57 47.1895 34.5211 49.7778C34.4722 52.3661 35.4102 54.8762 37.145 56.7997V56.7997Z" fill="#D83D59"/>
<path d="M26.4747 103.897C31.5002 106.448 50.6698 104.681 50.6698 104.681C50.6698 104.681 40.6827 88.2466 35.6508 85.7147C33.2644 84.7093 30.5846 84.6467 28.1537 85.5394C25.7227 86.4322 23.722 88.2137 22.5562 90.5236C21.3904 92.8336 21.1466 95.4995 21.874 97.9821C22.6015 100.465 24.2459 102.579 26.4747 103.897V103.897Z" fill="#D83D59"/>
<path d="M22.3879 151.102C26.9153 154.444 46.104 155.955 46.104 155.955C46.104 155.955 39.0351 138.099 34.5077 134.725C33.4391 133.834 32.1993 133.17 30.8645 132.774C29.5298 132.379 28.1281 132.26 26.7457 132.425C25.3632 132.59 24.0292 133.036 22.8254 133.734C21.6216 134.433 20.5735 135.37 19.7454 136.488C18.9173 137.606 18.3266 138.881 18.0098 140.235C17.6929 141.589 17.6565 142.993 17.9028 144.362C18.1491 145.73 18.6728 147.034 19.4419 148.193C20.2109 149.352 21.2091 150.342 22.3751 151.102H22.3879Z" fill="#D83D59"/>
<path d="M10.6831 182.319C7.42844 188.644 5.90835 195.717 6.27735 202.818C6.64635 209.92 8.89129 216.798 12.784 222.752C14.0611 224.665 15.2361 226.036 16.1748 226.406C20.6447 228.173 29.6931 232.516 29.6931 232.516L51.4041 223.996C51.4041 223.996 54.929 205.374 58.2623 189.385C60.5356 178.48 62.7322 168.806 63.6326 167.109C65.8803 162.932 63.6326 117.455 63.6326 117.455C63.6326 117.455 41.9215 116.001 35.951 132.716L33.3393 137.818L10.6831 182.319Z" fill="#A8A8A8"/>
<path opacity="0.1" d="M39.5078 187.351C52.7068 202.459 58.275 189.392 58.275 189.392C60.5483 178.487 62.745 168.812 63.6453 167.116C65.8931 162.938 63.6453 117.461 63.6453 117.461C63.6453 117.461 41.9343 116.007 35.9638 132.722L33.352 137.824C31.679 151.198 30.0251 176.497 39.5078 187.351Z" fill="white"/>
<path d="M42.4067 229.461L119.034 220.622L132.712 130.771L122.367 107.443C118.001 97.5021 111.953 88.3873 104.488 80.4981C99.2833 75.0263 92.9935 69.7522 86.378 67.1056C85.4743 66.7407 84.5513 66.4256 83.613 66.1617C82.5348 65.8351 81.3946 65.7672 80.285 65.9633C79.1755 66.1594 78.128 66.6141 77.2274 67.2905C67.7767 73.9804 64.3988 102.424 63.3068 116.116C62.8576 121.742 62.0965 127.34 61.0272 132.882L42.4067 229.461Z" fill="#A8A8A8"/>
<path opacity="0.1" d="M93.4213 129.808L77.4573 169.029C85.8289 162.919 98.2169 129.649 98.2169 129.649L109.353 167.581L100.503 127.601C101.799 118.917 102.175 110.121 101.627 101.358C100.931 91.3269 91.4929 75.2112 86.3716 67.1056C85.468 66.7407 84.5449 66.4256 83.6067 66.1617C82.5284 65.8351 81.3882 65.7672 80.2787 65.9633C79.1692 66.1594 78.1216 66.6141 77.2211 67.2905C81.244 75.3579 91.2694 95.5232 94.3664 101.524C98.2489 109.075 93.4213 129.808 93.4213 129.808Z" fill="white"/>
<path d="M106.454 232.516H161.173C161.173 232.516 159.895 178.831 151.843 149.61C148.848 138.768 145.368 133.029 142.175 130.216C140.68 128.771 138.746 127.862 136.677 127.633C135.109 127.498 133.539 127.879 132.208 128.717C124.481 136.109 115.471 175.004 115.471 175.004L106.454 232.516Z" fill="#A8A8A8"/>
<path opacity="0.1" d="M144.864 198.021C146.575 202.759 147.252 208.224 144.864 213.549L135.598 218.122C135.598 218.122 110.694 207.574 113.721 185.974C113.721 185.974 114.539 181.509 123.114 181.847C127.937 182.083 132.581 183.747 136.454 186.627C140.328 189.507 143.255 193.473 144.864 198.021V198.021Z" fill="white"/>
<path opacity="0.1" d="M134.941 141.224C134.66 133.647 138.772 131.052 142.176 130.184C140.68 128.739 138.746 127.83 136.678 127.601C134.309 129.58 132.632 132.261 131.888 135.254L123.198 177.524C123.198 177.524 135.426 153.921 134.941 141.224Z" fill="white"/>
<path d="M95.5159 174.647L116.116 202.778L119.685 225.985L106.461 232.509L84.571 237.331L29.6931 232.509L36.7748 216.119L61.238 181.828L95.5159 174.647Z" fill="#A8A8A8"/>
<path opacity="0.1" d="M87.5466 165.011C87.5466 165.011 101.595 165.974 96.3204 190.081C91.0459 214.187 36.7747 216.119 36.7747 216.119C36.7747 216.119 48.3071 195.674 66.0463 181.088C68.0386 179.449 69.9606 177.734 71.7933 175.916C75.8929 171.829 83.6769 164.66 87.5466 165.011Z" fill="white"/>
<path opacity="0.1" d="M100.184 183.174C100.184 183.174 119.226 200.469 117.425 227.101Z" fill="black"/>
<path opacity="0.1" d="M132.208 128.686C132.208 128.686 112.233 155.215 109.992 196.031Z" fill="black"/>
<path opacity="0.1" d="M63.6517 117.442C63.6517 117.442 73.345 161.287 49.1819 194.328Z" fill="black"/>
<path d="M72.3169 235.679C70.9249 234.403 69.6222 232.873 69.2263 231.023C68.8304 229.174 69.6158 226.961 71.3846 226.285C73.3642 225.526 75.4842 226.923 77.087 228.287C78.6898 229.652 80.5352 231.253 82.6361 230.96C81.5552 229.981 80.7465 228.739 80.2888 227.356C79.8311 225.972 79.74 224.494 80.0244 223.064C80.1156 222.474 80.3674 221.921 80.7523 221.464C81.8507 220.284 83.8493 220.788 85.1648 221.719C89.3537 224.659 90.5223 230.341 90.5479 235.456C90.9693 233.613 90.6117 231.693 90.6245 229.799C90.6372 227.905 91.1545 225.807 92.7509 224.793C93.7479 224.256 94.8692 223.992 96.0012 224.027C97.8785 223.957 99.9794 224.149 101.263 225.52C102.866 227.229 102.451 230.099 101.059 231.98C99.6665 233.861 97.5529 235.041 95.6053 236.342C94.0449 237.272 92.7137 238.541 91.71 240.054C91.5944 240.257 91.4982 240.47 91.4227 240.691H79.6029C76.9595 239.356 74.5087 237.67 72.3169 235.679V235.679Z" fill="#D83D59"/>
<path d="M3.18642 225.711C1.80074 224.436 0.49808 222.905 0.102173 221.056C-0.293735 219.206 0.491693 216.987 2.2605 216.311C4.24004 215.558 6.36006 216.949 7.96285 218.313C9.56564 219.678 11.4111 221.279 13.5119 220.985C12.431 220.008 11.6223 218.768 11.1645 217.385C10.7068 216.002 10.6157 214.525 10.9002 213.097C11.0022 212.511 11.2628 211.964 11.6537 211.515C12.7521 210.342 14.7444 210.845 16.0662 211.77C20.2551 214.716 21.4237 220.399 21.4492 225.513C21.8707 223.67 21.5131 221.744 21.5259 219.85C21.5386 217.956 22.0559 215.864 23.6523 214.844C24.6473 214.309 25.7667 214.047 26.8962 214.085C28.7799 214.015 30.8808 214.2 32.1643 215.577C33.7671 217.287 33.352 220.156 31.9599 222.038C30.5679 223.919 28.4542 225.099 26.5066 226.4C24.9443 227.327 23.6126 228.596 22.6114 230.111C22.4958 230.315 22.3995 230.528 22.3241 230.749H10.4915C7.84012 229.407 5.38279 227.712 3.18642 225.711V225.711Z" fill="#D83D59"/>
</svg>
