<svg width="153" height="223" viewBox="0 0 153 223" fill="none" xmlns="http://www.w3.org/2000/svg">
<path opacity="0.1" d="M76.6901 0.336853C56.5366 0.336853 37.2086 8.33246 22.958 22.5648C8.70731 36.7971 0.701416 56.1002 0.701416 76.2277C0.701416 118.146 76.6901 222.27 76.6901 222.27C76.6901 222.27 152.679 118.114 152.679 76.2277C152.679 56.1002 144.673 36.7971 130.422 22.5648C116.172 8.33246 96.8435 0.336853 76.6901 0.336853ZM76.6901 115.296C68.9559 115.291 61.3968 112.995 54.9684 108.701C48.54 104.406 43.5308 98.3037 40.5743 91.1661C37.6177 84.0284 36.8465 76.1756 38.358 68.6003C39.8695 61.025 43.5959 54.0672 49.0662 48.6067C54.5364 43.1462 61.5049 39.4279 69.0907 37.9221C76.6766 36.4162 84.5392 37.1904 91.6845 40.1466C98.8299 43.1028 104.937 48.1085 109.235 54.5307C113.532 60.9529 115.826 68.5034 115.827 76.2277C115.826 81.3581 114.812 86.4379 112.844 91.1769C110.876 95.9159 107.992 100.221 104.358 103.847C100.723 107.473 96.4093 110.347 91.6619 112.308C86.9146 114.268 81.8271 115.274 76.6901 115.27V115.296Z" fill="#38D39F"/>
</svg>
