<svg width="696" height="673" viewBox="0 0 696 673" fill="none" xmlns="http://www.w3.org/2000/svg">
<path fill-rule="evenodd" clip-rule="evenodd" d="M632.444 291.167C640.1 356.866 685.082 420.43 663.012 482.31C640.081 546.602 582.546 601.936 517.147 614.435C454.62 626.385 406.197 554.874 343.4 543.393C279.293 531.671 210.298 580.468 153.214 547.894C91.1307 512.466 46.0065 441.924 38.4403 369.368C30.9406 297.451 70.3719 229.502 114.167 173.449C152.536 124.338 210.885 102.585 266.857 77.0137C321.206 52.1835 374.569 24.4517 434.155 27.2572C500.392 30.3759 576.948 39.2892 617.704 93.5326C658.069 147.255 624.604 223.897 632.444 291.167Z" fill="#EBF9F7"/>
</svg>
