<svg width="538" height="597" viewBox="0 0 538 597" fill="none" xmlns="http://www.w3.org/2000/svg">
<path fill-rule="evenodd" clip-rule="evenodd" d="M286.066 0.039445C343.173 -1.58414 388.027 47.2392 430.725 86.2938C469.488 121.75 500.915 163.278 519.148 213.238C538.108 265.189 540.631 319.43 535.988 374.717C530.013 445.851 543.885 534.842 488.52 577.883C433.275 620.831 354.555 579.478 286.066 569.011C228.847 560.267 170.205 556.501 123.048 522.031C75.5616 487.319 44.7563 434.835 25.249 378.36C5.28617 320.566 -12.4656 255.516 11.6088 199.405C35.0201 144.84 99.7438 128.757 147.1 94.3575C193.57 60.6014 229.204 1.65606 286.066 0.039445Z" fill="#FAD0C4" fill-opacity="0.29"/>
</svg>
