<svg width="117" height="299" viewBox="0 0 117 299" fill="none" xmlns="http://www.w3.org/2000/svg">
<path d="M14.0022 276.275C14.0022 276.275 19.0942 278.821 22.6585 279.33C26.2229 279.839 28.2278 276.234 27.4799 274.981C26.7321 273.729 29.7873 274.747 31.8241 279.33C31.8241 279.33 40.4804 289.514 45.5724 290.023C50.6643 290.532 50.7041 297.425 48.1184 297.661C45.3178 297.915 40.4804 299.697 34.3701 297.661C28.2597 295.624 22.6586 290.023 20.1126 290.023C17.5666 290.023 8.91029 285.949 11.4563 283.913C14.0022 281.876 14.0022 276.275 14.0022 276.275Z" fill="#3F3D56"/>
<path d="M64.1886 287.779C66.788 287.979 69.4025 287.819 71.958 287.302C75.4567 286.452 75.9801 282.36 74.8208 281.475C73.6614 280.589 76.8764 280.401 80.4687 283.9C80.4687 283.9 92.2867 290.143 97.2039 288.726C102.121 287.309 104.717 293.695 102.403 294.873C98.4795 297.025 94.1178 298.255 89.6483 298.472C83.2185 298.849 75.9271 297.231 73.563 298.176C71.199 299.121 61.649 298.552 63.2571 295.716C64.8651 292.879 64.1886 287.779 64.1886 287.779Z" fill="#3F3D56"/>
<path d="M55.5322 44.8977C66.4998 44.8977 75.3908 36.0069 75.3908 25.0395C75.3908 14.0721 66.4998 5.18127 55.5322 5.18127C44.5646 5.18127 35.6736 14.0721 35.6736 25.0395C35.6736 36.0069 44.5646 44.8977 55.5322 44.8977Z" fill="#FFC1C7"/>
<path d="M40.0018 32.9319C40.0018 32.9319 43.057 54.3177 35.9282 57.3728C28.7995 60.4279 72.0811 59.4095 72.0811 59.4095C72.0811 59.4095 65.9708 40.0605 67.4984 34.9686C69.0259 29.8768 40.0018 32.9319 40.0018 32.9319Z" fill="#FFC1C7"/>
<path d="M32.873 154.627C32.873 154.627 31.3454 193.325 29.8178 197.399C28.2902 201.472 26.7626 228.968 26.7626 228.968L13.5236 278.868L25.7442 282.942C25.7442 282.942 42.5477 253.409 44.5845 249.845C46.6213 246.281 62.9155 189.252 62.9155 189.252C62.9155 189.252 61.388 224.386 61.388 236.097C61.388 247.808 64.4431 290.58 64.4431 290.58L74.1178 289.561L86.8477 235.588C86.8477 235.588 105.179 162.774 92.9581 154.627C80.7374 146.48 32.873 154.627 32.873 154.627Z" fill="#2F2E41"/>
<path d="M107.216 166.848C107.216 166.848 107.725 196.38 101.614 191.798C95.504 187.215 101.614 164.302 101.614 164.302L107.216 166.848Z" fill="#FFC1C7"/>
<path d="M22.6891 156.664C22.6891 156.664 23.1983 186.197 17.0879 181.614C10.9776 177.031 17.0879 154.118 17.0879 154.118L22.6891 156.664Z" fill="#FFC1C7"/>
<path d="M97.5409 70.6115C97.5409 70.6115 87.3569 58.9003 78.7006 60.4278C70.0443 61.9554 22.6891 61.4462 22.6891 61.4462C22.6891 61.4462 6.90406 81.3044 10.9776 85.3779C15.0512 89.4513 28.2903 161.756 28.2903 161.756C28.2903 161.756 63.4248 157.173 75.6455 157.173C87.8661 157.173 92.9581 155.136 92.9581 155.136C92.9581 155.136 76.6638 122.548 84.3018 107.782C91.9397 93.0157 103.142 77.2309 103.142 77.2309L97.5409 70.6115Z" fill="#FFC107"/>
<path d="M94.4857 74.1759L103.142 77.231C103.142 77.231 108.234 95.0525 108.234 109.31C108.234 123.567 108.743 130.695 110.78 135.787C112.817 140.879 119.436 164.811 115.872 169.903C113.904 172.801 111.499 175.378 108.743 177.541L97.0317 176.522C97.0317 176.522 96.5225 159.719 93.4673 158.191C90.4122 156.664 86.3386 146.989 86.3386 146.989C86.3386 146.989 76.6639 115.929 82.7742 105.745C88.8846 95.5617 94.4857 74.1759 94.4857 74.1759Z" fill="#FFC107"/>
<path d="M61.8972 93.0157C61.8972 93.0157 66.9892 70.6115 57.3144 71.6299C47.6397 72.6483 34.4006 73.1574 30.8363 73.1574C27.2719 73.1574 6.90408 70.6115 3.84891 83.8503C0.793731 97.0891 -3.27983 113.383 5.37649 123.567C5.37649 123.567 8.43168 168.375 20.1432 171.43C31.8547 174.485 62.9156 178.05 74.1179 163.283C85.3202 148.517 80.7374 132.223 80.7374 132.223H75.6455L61.8972 93.0157Z" fill="#3F3D56"/>
<path d="M78.7007 133.242L82.774 105.745L80.7376 134.26L78.7007 133.242Z" fill="#3F3D56"/>
<path opacity="0.1" d="M10.4684 127.131C10.4684 127.131 19.1247 131.205 36.9465 128.659V136.296L10.4684 134.26V127.131Z" fill="black"/>
<path d="M57.0597 71.3756L70.2988 64.2468L59.0966 73.9215L57.0597 71.3756Z" fill="#3F3D56"/>
<path d="M85.3201 63.9922C85.3201 63.9922 95.504 67.5565 95.504 63.9922C95.504 60.4279 86.3385 57.3728 80.7374 55.336C75.1362 53.2993 48.6581 50.2442 44.5845 48.7166C40.5109 47.189 21.1615 44.6431 19.6339 50.7534C18.1063 56.8636 17.5971 69.5932 25.2351 71.1208C32.873 72.6483 52.7316 68.5748 62.9155 69.5932C73.0994 70.6116 85.3201 63.9922 85.3201 63.9922Z" fill="#FFC107"/>
<path opacity="0.1" d="M85.3201 63.9922C85.3201 63.9922 95.504 67.5565 95.504 63.9922C95.504 60.4279 86.3385 57.3728 80.7374 55.336C75.1362 53.2993 48.6581 50.2442 44.5845 48.7166C40.5109 47.189 21.1615 44.6431 19.6339 50.7534C18.1063 56.8636 17.5971 69.5932 25.2351 71.1208C32.873 72.6483 52.7316 68.5748 62.9155 69.5932C73.0994 70.6116 85.3201 63.9922 85.3201 63.9922Z" fill="black"/>
<path d="M14.2874 75.4487L17.7482 68.1794L18.3612 76.9765L14.2874 75.4487Z" fill="#3F3D56"/>
<path d="M52.0908 45.5361C62.3588 45.5361 70.6827 35.8659 70.6827 23.9371C70.6827 12.0083 62.3588 2.33813 52.0908 2.33813C41.8228 2.33813 33.4989 12.0083 33.4989 23.9371C33.4989 35.8659 41.8228 45.5361 52.0908 45.5361Z" fill="#2F2E41"/>
<path d="M55.3717 24.2105C65.6397 24.2105 73.9636 18.9469 73.9636 12.454C73.9636 5.96116 65.6397 0.697632 55.3717 0.697632C45.1037 0.697632 36.7798 5.96116 36.7798 12.454C36.7798 18.9469 45.1037 24.2105 55.3717 24.2105Z" fill="#2F2E41"/>
<path d="M69.8625 33.5063C70.9195 33.5063 71.7763 32.0374 71.7763 30.2254C71.7763 28.4135 70.9195 26.9446 69.8625 26.9446C68.8055 26.9446 67.9486 28.4135 67.9486 30.2254C67.9486 32.0374 68.8055 33.5063 69.8625 33.5063Z" fill="#FFC1C7"/>
<path d="M67.1931 9.49396C69.1489 8.42351 70.8197 6.48819 72.0706 3.84432C72.1931 4.4321 72.226 5.03501 72.1683 5.63263C72.9804 5.54106 73.7692 5.30324 74.4966 4.93068L74.3221 6.83659C75.7272 5.97592 77.0184 4.94204 78.1656 3.75928C78.4766 6.5399 78.0105 9.3523 76.8193 11.884C75.8048 13.887 74.4261 15.1899 73.0618 16.4733" fill="#2F2E41"/>
</svg>
