<svg width="223" height="100" viewBox="0 0 223 100" fill="none" xmlns="http://www.w3.org/2000/svg">
<path d="M25.969 98.7266H222.009" stroke="#3F3D56" stroke-miterlimit="10"/>
<path d="M18.7795 3.99646C16.6089 4.11906 14.5154 4.84387 12.7338 6.08958C10.9521 7.3353 9.55262 9.05266 8.69232 11.0492C6.17003 17.146 9.41767 24.3078 14.293 28.7537C19.1683 33.1996 25.4309 35.7409 31.121 39.0812C38.7638 43.5677 45.6315 49.7958 49.4556 57.7906C53.2797 65.7853 53.6864 75.6885 49.1914 83.3262C45.0192 90.4153 37.4327 94.6581 30.1972 98.571" stroke="#3F3D56" stroke-miterlimit="10"/>
<path d="M25.2052 8.85538C30.1266 8.85538 34.1162 6.91762 34.1162 4.5273C34.1162 2.13697 30.1266 0.199219 25.2052 0.199219C20.2839 0.199219 16.2943 2.13697 16.2943 4.5273C16.2943 6.91762 20.2839 8.85538 25.2052 8.85538Z" fill="#57B894"/>
<path d="M32.3339 37.3698C37.2553 37.3698 41.2448 35.4321 41.2448 33.0417C41.2448 30.6514 37.2553 28.7136 32.3339 28.7136C27.4125 28.7136 23.423 30.6514 23.423 33.0417C23.423 35.4321 27.4125 37.3698 32.3339 37.3698Z" fill="#57B894"/>
<path d="M16.0397 41.9525C20.9611 41.9525 24.9506 40.0147 24.9506 37.6244C24.9506 35.234 20.9611 33.2963 16.0397 33.2963C11.1183 33.2963 7.12878 35.234 7.12878 37.6244C7.12878 40.0147 11.1183 41.9525 16.0397 41.9525Z" fill="#57B894"/>
<path d="M41.4994 65.8842C46.4208 65.8842 50.4103 63.9464 50.4103 61.5561C50.4103 59.1658 46.4208 57.228 41.4994 57.228C36.5781 57.228 32.5885 59.1658 32.5885 61.5561C32.5885 63.9464 36.5781 65.8842 41.4994 65.8842Z" fill="#57B894"/>
<path d="M59.3213 65.8842C64.2427 65.8842 68.2322 63.9464 68.2322 61.5561C68.2322 59.1658 64.2427 57.228 59.3213 57.228C54.4 57.228 50.4104 59.1658 50.4104 61.5561C50.4104 63.9464 54.4 65.8842 59.3213 65.8842Z" fill="#57B894"/>
<path d="M40.3864 21.483C42.159 21.5832 43.8687 22.1751 45.3237 23.1924C46.7788 24.2097 47.9217 25.6123 48.6242 27.2428C50.6841 32.2219 48.0319 38.0706 44.0504 41.7014C40.0688 45.3323 34.9544 47.4076 30.3074 50.1355C24.0658 53.7996 18.4572 58.8859 15.3342 65.4149C12.2112 71.9439 11.879 80.0316 15.55 86.269C18.9573 92.0584 25.1529 95.5234 31.0619 98.719" stroke="#3F3D56" stroke-miterlimit="10"/>
<path d="M35.1387 25.4512C39.1578 25.4512 42.416 23.8687 42.416 21.9166C42.416 19.9645 39.1578 18.382 35.1387 18.382C31.1196 18.382 27.8615 19.9645 27.8615 21.9166C27.8615 23.8687 31.1196 25.4512 35.1387 25.4512Z" fill="#57B894"/>
<path d="M29.3169 48.7379C33.336 48.7379 36.5942 47.1554 36.5942 45.2033C36.5942 43.2512 33.336 41.6687 29.3169 41.6687C25.2978 41.6687 22.0397 43.2512 22.0397 45.2033C22.0397 47.1554 25.2978 48.7379 29.3169 48.7379Z" fill="#57B894"/>
<path d="M42.6239 52.4805C46.6431 52.4805 49.9012 50.898 49.9012 48.9459C49.9012 46.9938 46.6431 45.4113 42.6239 45.4113C38.6048 45.4113 35.3467 46.9938 35.3467 48.9459C35.3467 50.898 38.6048 52.4805 42.6239 52.4805Z" fill="#57B894"/>
<path d="M21.8317 72.0246C25.8508 72.0246 29.109 70.4422 29.109 68.4901C29.109 66.5379 25.8508 64.9554 21.8317 64.9554C17.8126 64.9554 14.5544 66.5379 14.5544 68.4901C14.5544 70.4422 17.8126 72.0246 21.8317 72.0246Z" fill="#57B894"/>
<path d="M7.27725 72.0246C11.2964 72.0246 14.5545 70.4422 14.5545 68.4901C14.5545 66.5379 11.2964 64.9554 7.27725 64.9554C3.25814 64.9554 0 66.5379 0 68.4901C0 70.4422 3.25814 72.0246 7.27725 72.0246Z" fill="#57B894"/>
</svg>
