<svg width="288" height="341" viewBox="0 0 288 341" fill="none" xmlns="http://www.w3.org/2000/svg">
<g style="mix-blend-mode:multiply">
<path d="M267.143 16.0372H57.866C46.3471 16.0372 37.0093 25.3749 37.0093 36.8935V319.986C37.0093 331.505 46.3471 340.842 57.866 340.842H267.143C278.662 340.842 288 331.505 288 319.986V36.8935C288 25.3749 278.662 16.0372 267.143 16.0372Z" fill="#F2F2F2" fill-opacity="0.33"/>
</g>
<path d="M255.113 1.27344H45.8359C34.3171 1.27344 24.9792 10.6111 24.9792 22.1297V305.222C24.9792 316.741 34.3171 326.079 45.8359 326.079H255.113C266.632 326.079 275.97 316.741 275.97 305.222V22.1297C275.97 10.6111 266.632 1.27344 255.113 1.27344Z" stroke="#3F3D56" stroke-miterlimit="10"/>
<path d="M260.932 34.8861H37.8295V292.466H260.932V34.8861Z" stroke="#3F3D56" stroke-miterlimit="10"/>
<path d="M150.475 23.4192C153.495 23.4192 155.943 20.9711 155.943 17.9511C155.943 14.9312 153.495 12.483 150.475 12.483C147.455 12.483 145.006 14.9312 145.006 17.9511C145.006 20.9711 147.455 23.4192 150.475 23.4192Z" stroke="#3F3D56" stroke-miterlimit="10"/>
<path d="M150.475 321.157C157.119 321.157 162.505 315.771 162.505 309.127C162.505 302.483 157.119 297.098 150.475 297.098C143.831 297.098 138.444 302.483 138.444 309.127C138.444 315.771 143.831 321.157 150.475 321.157Z" stroke="#3F3D56" stroke-miterlimit="10"/>
<path d="M143.634 63.0996C138.822 63.0996 134.057 64.0474 129.612 65.8888C125.166 67.7302 121.127 70.4292 117.724 73.8317C114.321 77.2342 111.622 81.2735 109.781 85.7191C107.939 90.1646 106.992 94.9293 106.992 99.7412C106.992 119.978 145.379 194.617 145.379 194.617C145.379 194.617 180.276 119.978 180.276 99.7412C180.276 90.0232 176.416 80.7033 169.544 73.8317C162.672 66.96 153.352 63.0996 143.634 63.0996ZM143.634 124.169C139.838 124.169 136.127 123.043 132.971 120.934C129.814 118.825 127.354 115.828 125.901 112.321C124.449 108.814 124.069 104.954 124.809 101.231C125.55 97.5082 127.378 94.0883 130.062 91.4041C132.746 88.7198 136.166 86.8919 139.89 86.1513C143.613 85.4107 147.472 85.7908 150.979 87.2435C154.486 88.6962 157.484 91.1562 159.593 94.3125C161.702 97.4688 162.828 101.18 162.828 104.976C162.828 110.066 160.805 114.948 157.206 118.547C153.606 122.147 148.724 124.169 143.634 124.169V124.169Z" fill="#FFC107"/>
<path d="M143.639 232.027C163.873 232.027 180.276 226.641 180.276 219.997C180.276 213.353 163.873 207.968 143.639 207.968C123.405 207.968 107.002 213.353 107.002 219.997C107.002 226.641 123.405 232.027 143.639 232.027Z" fill="#FFC107"/>
<path d="M12.8839 53.4705C10.553 53.6021 8.30479 54.3805 6.39146 55.7182C4.47812 57.056 2.97525 58.9003 2.05139 61.0443C-0.65729 67.5917 2.83033 75.2826 8.06586 80.0571C13.3014 84.8315 20.0268 87.5605 26.1374 91.1476C34.3449 95.9657 41.72 102.654 45.8267 111.24C49.9334 119.825 50.3702 130.46 45.5429 138.662C41.0625 146.275 32.9155 150.831 25.1453 155.033" stroke="#3F3D56" stroke-miterlimit="10"/>
<path d="M19.7844 58.6885C25.0695 58.6885 29.3538 56.6075 29.3538 54.0406C29.3538 51.4736 25.0695 49.3927 19.7844 49.3927C14.4994 49.3927 10.2151 51.4736 10.2151 54.0406C10.2151 56.6075 14.4994 58.6885 19.7844 58.6885Z" fill="#57B894"/>
<path d="M27.44 89.3098C32.725 89.3098 37.0093 87.2289 37.0093 84.6619C37.0093 82.095 32.725 80.014 27.44 80.014C22.155 80.014 17.8706 82.095 17.8706 84.6619C17.8706 87.2289 22.155 89.3098 27.44 89.3098Z" fill="#57B894"/>
<path d="M9.94168 94.2311C15.2267 94.2311 19.511 92.1501 19.511 89.5832C19.511 87.0162 15.2267 84.9353 9.94168 84.9353C4.65667 84.9353 0.372314 87.0162 0.372314 89.5832C0.372314 92.1501 4.65667 94.2311 9.94168 94.2311Z" fill="#57B894"/>
<path d="M37.2827 119.931C42.5677 119.931 46.8521 117.85 46.8521 115.283C46.8521 112.716 42.5677 110.635 37.2827 110.635C31.9977 110.635 27.7134 112.716 27.7134 115.283C27.7134 117.85 31.9977 119.931 37.2827 119.931Z" fill="#57B894"/>
<path d="M56.4214 119.931C61.7064 119.931 65.9908 117.85 65.9908 115.283C65.9908 112.716 61.7064 110.635 56.4214 110.635C51.1364 110.635 46.8521 112.716 46.8521 115.283C46.8521 117.85 51.1364 119.931 56.4214 119.931Z" fill="#57B894"/>
</svg>
